<svg xmlns="http://www.w3.org/2000/svg"><g id="remove" viewBox="0 0 30 30"><path d="M29.5933 15C29.5933 23.0597 23.0597 29.5933 15 29.5933C6.94032 29.5933 0.406667 23.0597 0.406667 15C0.406667 6.94032 6.94032 0.406667 15 0.406667C23.0597 0.406667 29.5933 6.94032 29.5933 15Z" stroke-width="0.813333"/><path style="fill: var(--iron-icon-stroke-color);" d="M9.25 14.25H14H16H20.75C21.3023 14.25 21.75 14.6977 21.75 15.25C21.75 15.8023 21.3023 16.25 20.75 16.25H16H14H9.25C8.69772 16.25 8.25 15.8023 8.25 15.25C8.25 14.6977 8.69772 14.25 9.25 14.25Z"/></g><g id="plus" viewBox="0 0 12 12"><path fill-rule="evenodd" clip-rule="evenodd" d="M7.05905 0H4.94141V4.94092H0V7.05856L4.94141 7.05856V12H7.05905V7.05856L12 7.05857V4.94092H7.05905V0Z"/></g><g id="minus" viewBox="0 0 12 2"><rect x="12" width="2" height="12" transform="rotate(90 12 0)"/></g><g id="chevron-right" viewBox="0 0 20 22"><path fill-rule="evenodd" clip-rule="evenodd" d="M15.7004 10.905C15.6805 10.7567 15.6136 10.6136 15.4997 10.4996C15.4941 10.4941 15.4884 10.4886 15.4827 10.4833L6.49973 1.50027C6.22359 1.22413 5.77587 1.22413 5.49973 1.50027C5.22359 1.77641 5.22359 2.22413 5.49973 2.50027L13.9994 10.9999L5.49965 19.4997C5.22351 19.7758 5.22351 20.2235 5.49965 20.4997C5.77579 20.7758 6.22351 20.7758 6.49965 20.4997L15.4805 11.5188C15.487 11.5127 15.4934 11.5066 15.4997 11.5003C15.6595 11.3405 15.7269 11.1232 15.7017 10.915C15.7013 10.9116 15.7009 10.9083 15.7004 10.905Z" fill="white"/><path d="M15.7004 10.905L16.2951 10.8252L16.2951 10.8251L15.7004 10.905ZM15.4827 10.4833L15.0585 10.9075L15.0654 10.9145L15.0726 10.9212L15.4827 10.4833ZM6.49973 1.50027L6.92399 1.076L6.49973 1.50027ZM5.49973 2.50027L5.92399 2.076L5.49973 2.50027ZM13.9994 10.9999L14.4236 11.4242L14.8479 10.9999L14.4236 10.5757L13.9994 10.9999ZM5.49965 19.4997L5.92392 19.9239L5.92392 19.9239L5.49965 19.4997ZM5.49965 20.4997L5.92392 20.0754L5.49965 20.4997ZM6.49965 20.4997L6.92392 20.9239L6.49965 20.4997ZM15.4805 11.5188L15.0723 11.0791L15.0641 11.0866L15.0563 11.0945L15.4805 11.5188ZM15.4997 11.5003L15.924 11.9245L15.4997 11.5003ZM15.7017 10.915L15.106 10.9865L15.106 10.9869L15.7017 10.915ZM15.0754 10.9239C15.0931 10.9416 15.1028 10.9624 15.1058 10.9849L16.2951 10.8251C16.2583 10.551 16.1341 10.2855 15.9239 10.0754L15.0754 10.9239ZM15.0726 10.9212C15.0735 10.9221 15.0744 10.923 15.0754 10.9239L15.9239 10.0754C15.9137 10.0652 15.9034 10.0552 15.8928 10.0453L15.0726 10.9212ZM6.07547 1.92453L15.0585 10.9075L15.907 10.059L6.92399 1.076L6.07547 1.92453ZM5.92399 1.92453C5.96582 1.8827 6.03364 1.8827 6.07547 1.92453L6.92399 1.076C6.41354 0.565547 5.58592 0.565547 5.07547 1.076L5.92399 1.92453ZM5.92399 2.076C5.88217 2.03418 5.88216 1.96636 5.92399 1.92453L5.07547 1.076C4.56501 1.58646 4.56501 2.41407 5.07546 2.92453L5.92399 2.076ZM14.4236 10.5757L5.92399 2.076L5.07546 2.92453L13.5751 11.4242L14.4236 10.5757ZM5.92392 19.9239L14.4236 11.4242L13.5751 10.5757L5.07539 19.0754L5.92392 19.9239ZM5.92392 20.0754C5.88209 20.0336 5.88209 19.9657 5.92392 19.9239L5.07539 19.0754C4.56493 19.5858 4.56493 20.4135 5.07539 20.9239L5.92392 20.0754ZM6.07539 20.0754C6.03356 20.1172 5.96574 20.1172 5.92392 20.0754L5.07539 20.9239C5.58584 21.4344 6.41346 21.4344 6.92392 20.9239L6.07539 20.0754ZM15.0563 11.0945L6.07539 20.0754L6.92392 20.9239L15.9048 11.943L15.0563 11.0945ZM15.0755 11.076C15.0744 11.0771 15.0733 11.0781 15.0723 11.0791L15.8888 11.9585C15.9007 11.9474 15.9124 11.9361 15.924 11.9245L15.0755 11.076ZM15.106 10.9869C15.11 11.0201 15.0995 11.052 15.0755 11.076L15.924 11.9245C16.2196 11.6289 16.3437 11.2263 16.2974 10.843L15.106 10.9869ZM15.1058 10.9848C15.1058 10.9854 15.1059 10.9859 15.106 10.9865L16.2974 10.8435C16.2967 10.8374 16.2959 10.8313 16.2951 10.8252L15.1058 10.9848Z"/></g></svg>