<svg xmlns="http://www.w3.org/2000/svg"><g id="chevron" viewBox="0 0 12 12" fill="none"><path opacity="0.8" d="M1 3L6 9L8.5 6L11 3" stroke="black" stroke-linecap="round" stroke-linejoin="round"/></g><g id="download" viewBox="0 0 16 20"><path d="M6.71513 15.1908L7.42475 15.4847L8.13438 15.1908L13.9397 9.38553C14.3314 8.9938 14.3314 8.358 13.9397 7.96628C13.5479 7.57455 12.9121 7.57455 12.5204 7.96628L8.42875 12.0579V1.00353C8.42875 0.449399 7.97935 0 7.42522 0C6.87108 0 6.42168 0.449399 6.42168 1.00353V12.0584L2.32956 7.96628C1.93784 7.57455 1.30203 7.57455 0.91031 7.96628C0.518585 8.358 0.518585 8.9938 0.91031 9.38553L6.71513 15.1908Z"/><path d="M14.3225 17.9929H1.00353C0.449399 17.9929 0 18.4423 0 18.9965C0 19.5506 0.449399 20 1.00353 20H14.3225C14.8767 20 15.3261 19.5506 15.3261 18.9965C15.3261 18.4423 14.8771 17.9929 14.3225 17.9929Z"/></g></svg>