<svg xmlns="http://www.w3.org/2000/svg"><defs><g id="paddle"><g><path d="M21.7,20.6l-4.9-4.9c-0.4-0.4-0.4-1,0-1.4l0,0c0.4-0.4,1-0.4,1.4,0l4.9,4.9c0.4,0.4,0.4,1,0,1.4 l0,0C22.8,21,22.1,21,21.7,20.6z"/><path d="M23.2,20.8l-4.9,4.9c-0.4,0.4-1,0.4-1.4,0l0,0c-0.4-0.4-0.4-1,0-1.4l4.9-4.9 c0.4-0.4,1-0.4,1.4,0l0,0C23.6,19.7,23.6,20.4,23.2,20.8z"/></g><path d="M20,2.1c9.8,0,17.9,8,17.9,17.9s-8,17.9-17.9,17.9S2.1,29.8,2.1,20S10.2,2.1,20,2.1 M20,0.2C9,0.2,0.2,9,0.2,20 S9,39.8,20,39.8S39.8,31,39.8,20S31,0.2,20,0.2L20,0.2z"/></g><g id="expand"><circle style="fill: #f3f3f3;" cx="20" cy="20" r="20"/><g><g><path style="fill: #161616;" d="M28.2,13.9l-5.3,5.3c-0.4,0.4-0.9,0.3-1.2,0l0,0c-0.4-0.4-0.3-0.9,0-1.2l5.3-5.3 c0.4-0.4,0.9-0.3,1.2,0l0,0C28.6,13,28.5,13.6,28.2,13.9z"/><path style="fill: #161616;" d="M27.6,14.1l-5.8,0c-0.5,0-0.8-0.4-0.8-0.8l0,0c0-0.5,0.4-0.8,0.8-0.8h5.8 c0.5,0,0.8,0.4,0.8,0.8l0,0C28.5,13.8,28.1,14.1,27.6,14.1z"/><path style="fill: #161616;" d="M28.6,13.4v5.8c0,0.5-0.4,0.8-0.8,0.8l0,0c-0.5,0-0.8-0.4-0.8-0.8v-5.8c0-0.5,0.4-0.8,0.8-0.8 l0,0C28.2,12.5,28.6,12.9,28.6,13.4z"/></g><g><path style="fill: #161616;" d="M12.8,27.1l5.3-5.3c0.4-0.4,0.9-0.3,1.2,0l0,0c0.4,0.4,0.3,0.9,0,1.2L14,28.3 c-0.4,0.4-0.9,0.3-1.2,0l0,0C12.4,28,12.5,27.4,12.8,27.1z"/><path style="fill: #161616;" d="M13.4,26.9l5.8,0c0.5,0,0.8,0.4,0.8,0.8l0,0c0,0.5-0.4,0.8-0.8,0.8h-5.8 c-0.5,0-0.8-0.4-0.8-0.8l0,0C12.5,27.2,12.9,26.9,13.4,26.9z"/><path style="fill: #161616;" d="M12.4,27.6v-5.8c0-0.5,0.4-0.8,0.8-0.8l0,0c0.5,0,0.8,0.4,0.8,0.8v5.8c0,0.5-0.4,0.8-0.8,0.8 l0,0C12.8,28.5,12.4,28.1,12.4,27.6z"/></g></g></g><g id="arrow"><path d="M20,2A18,18,0,1,1,2,20,18.02,18.02,0,0,1,20,2m0-2A20,20,0,1,0,40,20,20,20,0,0,0,20,0h0Z"/><path d="M27,20.9H13a1,1,0,0,1-1-1h0a1,1,0,0,1,1-1H27a1,1,0,0,1,1,1h0A1,1,0,0,1,27,20.9Z"/><path d="M26.3,20.6l-4.8-4.8a0.967,0.967,0,0,1,0-1.4h0a0.967,0.967,0,0,1,1.4,0l4.8,4.8a0.967,0.967,0,0,1,0,1.4h0A0.967,0.967,0,0,1,26.3,20.6Z"/><path d="M27.7,20.8l-4.8,4.8a0.967,0.967,0,0,1-1.4,0h0a0.967,0.967,0,0,1,0-1.4l4.8-4.8a0.967,0.967,0,0,1,1.4,0h0A0.965,0.965,0,0,1,27.7,20.8Z"/></g><g id="gear"><path d="M20,2A18,18,0,1,1,2,20,18.02,18.02,0,0,1,20,2m0-2A20,20,0,1,0,40,20,20,20,0,0,0,20,0h0Z"/><path d="M26.872,22.1l-1.3-.7a5.853,5.853,0,0,0,.2-1.3,5.852,5.852,0,0,0-.2-1.3l1.3-.7a1.107,1.107,0,0,0,.4-1.4l-0.6-1.1a1.107,1.107,0,0,0-1.4-.4l-1.3.6a4.784,4.784,0,0,0-2.3-1.3V13a1.075,1.075,0,0,0-1-1h-1.3a1.075,1.075,0,0,0-1,1v1.5a5.763,5.763,0,0,0-2.3,1.3l-1.3-.8a1.012,1.012,0,0,0-1.4.4l-0.6,1.1a1.012,1.012,0,0,0,.4,1.4l1.3,0.8a5.853,5.853,0,0,0-.2,1.3,5.853,5.853,0,0,0,.2,1.3l-1.3.8a1.107,1.107,0,0,0-.4,1.4l0.6,1.1a1.107,1.107,0,0,0,1.4.4l1.3-.8a4.784,4.784,0,0,0,2.3,1.3V27a1.075,1.075,0,0,0,1,1h1.3a1.075,1.075,0,0,0,1-1V25.5a5.763,5.763,0,0,0,2.3-1.3l1.3,0.7a1.012,1.012,0,0,0,1.4-.4l0.6-1.1A1.011,1.011,0,0,0,26.872,22.1Zm-6.9,1.5a3.6,3.6,0,1,1,3.6-3.6A3.585,3.585,0,0,1,19.972,23.6Z"/></g><g id="play"><path d="M20,2A18,18,0,1,1,2,20,18.02,18.02,0,0,1,20,2m0-2A20,20,0,1,0,40,20,20,20,0,0,0,20,0h0Z"/><path d="M16.31,26.625a0.749,0.749,0,0,1-.5-0.1,1.05,1.05,0,0,1-.5-0.9v-11.2a1.05,1.05,0,0,1,.5-0.9,0.908,0.908,0,0,1,1,0l10.1,5.6a1.06,1.06,0,0,1,0,1.8l-10.1,5.6A4.331,4.331,0,0,0,16.31,26.625Zm1-10.5v7.7l7-3.9Z"/></g><g id="circle-close"><path fill-rule="evenodd" clip-rule="evenodd" d="M20 39C30.4934 39 39 30.4934 39 20C39 9.50659 30.4934 1 20 1C9.50659 1 1 9.50659 1 20C1 30.4934 9.50659 39 20 39Z" stroke-width="0.95"/><path d="M25.3213 15.6286L15.4846 25.4654" stroke-width="1.9" stroke-linecap="round"/><path d="M15.6288 15.6286L25.4655 25.4654" stroke-width="1.9" stroke-linecap="round"/></g><g id="plus"><path d="M20,2A18,18,0,1,1,2,20,18.02,18.02,0,0,1,20,2m0-2A20,20,0,1,0,40,20,20,20,0,0,0,20,0h0Z"/><path d="M27,19H21V13a1,1,0,0,0-2,0v6H13a1,1,0,0,0,0,2h6v6a1,1,0,0,0,2,0V21h6A1,1,0,0,0,27,19Z"/></g><g id="profile"><path d="M20.451,19.7A3.853,3.853,0,0,1,16.6,15.849,3.919,3.919,0,0,1,20.451,12,3.849,3.849,0,0,1,20.451,19.7Zm0-5.724a1.875,1.875,0,1,0,1.875,1.875A1.815,1.815,0,0,0,20.451,13.974Z"/><path d="M26.372,28H14.53V27.013c0-.3.1-2.961,1.382-4.243,1.283-1.382,4.046-1.283,4.638-1.283,0.493,0,3.257-.1,4.539,1.283s1.283,3.947,1.382,4.243ZM16.6,26.026h7.7a4.607,4.607,0,0,0-.691-1.974,5.2,5.2,0,0,0-3.158-.592c-1.086-.1-2.664.1-3.158,0.691A4.655,4.655,0,0,0,16.6,26.026Z"/><path d="M20,2A18,18,0,1,1,2,20,18.02,18.02,0,0,1,20,2m0-2A20,20,0,1,0,40,20,20,20,0,0,0,20,0h0Z"/></g><g id="ea-access"><path d="M20,0A20,20,0,1,0,40,20,20,20,0,0,0,20,0ZM19.9541,36.625A16.6472,16.6472,0,0,1,3.4174,21.74h1.384a15.2552,15.2552,0,1,0,0-3.481H3.4174A16.6281,16.6281,0,1,1,19.9541,36.625Zm0-27.5165a10.8986,10.8986,0,1,0,6.369,19.7424l0.9815,0.9744a12.34,12.34,0,1,1,2.4642-2.4714L28.7874,26.38A10.8938,10.8938,0,0,0,19.9541,9.1085Zm3.1633,9.4828-2.9586,4.7379H12.2577l1.9064-3.0433H12.7661l0.9462-1.5251H19.82l-0.9532,1.5181H15.9576l-0.9532,1.5252h4.3142l3.7988-6.0865,4.759,7.6046H26.0759L25.13,21.8041h-2.782l0.9532-1.5181h0.8685Zm-8.452-1.3557,0.9532-1.5181h6.2631l-0.9532,1.5181H14.6655Zm9.6594-1.384v-0.12h0.6072v0.12h-0.24v0.6H24.5508v-0.6h-0.226Zm1.1721,0.6H25.384l-0.1977-.5861v0.5861H25.0521v-0.72h0.2048L25.44,16.2471l0.1766-.5154h0.2048v0.72H25.6946V15.8658Z"/></g><g id="origin-access"><path d="M20.2776,15.85a4.167,4.167,0,1,0,3.8806,4.435A4.1645,4.1645,0,0,0,20.2776,15.85Z"/><path d="M20,0A20,20,0,1,0,40,20,20,20,0,0,0,20,0ZM30.5975,20.7031a10.6524,10.6524,0,0,1-1.177,4.2133,22.0333,22.0333,0,0,1-8.9467,9.322,0.3335,0.3335,0,0,1-.1791.0427,0.2807,0.2807,0,0,1-.2644-0.307,0.2947,0.2947,0,0,1,.06-0.1706,7.0447,7.0447,0,0,0,1.2537-3.0789,0.148,0.148,0,0,0-.162-0.162A10.62,10.62,0,0,1,9.4034,19.3044,10.3776,10.3776,0,0,1,10.58,15.0912a22.0851,22.0851,0,0,1,8.9382-9.3305,0.404,0.404,0,0,1,.1791-0.0427,0.2959,0.2959,0,0,1,.2729.3156,0.2748,0.2748,0,0,1-.06.1706,6.9907,6.9907,0,0,0-1.2623,3.0874,0.1457,0.1457,0,0,0,.162.1536,11.6069,11.6069,0,0,1,1.8934-.0427A10.6282,10.6282,0,0,1,30.5975,20.7031Z"/></g><g id="platform-xbox" stroke-width="0"><path d="M5.957,5.751l-.019.017v0A19.993,19.993,0,0,0,4.077,32.113a.089.089,0,0,0,.107.034.08.08,0,0,0,.023-.1C2.683,27.329,10.476,15.9,14.5,11.113a.105.105,0,0,0,.029-.059.092.092,0,0,0-.038-.065c-6.773-6.741-8.581-5.2-8.556-5.221"/><path d="M34.02,5.751l.019.017v0A20,20,0,0,1,35.9,32.113a.088.088,0,0,1-.107.034.085.085,0,0,1-.023-.1c1.524-4.714-6.262-16.149-10.286-20.941a.094.094,0,0,1-.029-.057.086.086,0,0,1,.038-.067c6.775-6.741,8.571-5.19,8.548-5.211"/><path d="M19.988,0A19.715,19.715,0,0,1,30.405,2.927a.076.076,0,0,1,.034.1.077.077,0,0,1-.1.034C26.471,2.223,20.585,5.568,20.03,5.9a.064.064,0,0,1-.086,0C18.468,5.055,13.028,2.2,9.6,3.08a.074.074,0,0,1-.063-.135A19.7,19.7,0,0,1,19.988,0"/><path d="M19.988,16.04a.113.113,0,0,1,.063.032c5.984,4.55,16.227,15.8,13.1,18.981l0,0,0,0h0a19.986,19.986,0,0,1-26.328,0l0,0,0,0c-3.12-3.181,7.12-14.431,13.1-18.981a.132.132,0,0,1,.069-.032"/></g><g id="platform-nintendo" stroke-width="0"><path d="M8.6.13A10.26,10.26,0,0,0,.44,7.6C.07,9,.07,10,.07,20.67A76.55,76.55,0,0,0,.26,31.59a10.31,10.31,0,0,0,8,8.05,36.56,36.56,0,0,0,5.73.19,19.83,19.83,0,0,0,5.22,0V.18c0-.23-.17-.18-5-.18A40.08,40.08,0,0,0,8.6.13ZM16.07,20V36.75H12.74a17.79,17.79,0,0,1-4.06-.2,7,7,0,0,1-5.18-5.4C3.33,30.32,3.33,9.79,3.5,9A7.09,7.09,0,0,1,7.73,3.71a12.21,12.21,0,0,1,5.13-.47h3.19Z"/><path d="M9.3,8.27a4.69,4.69,0,0,0-1.74.84A3.74,3.74,0,0,0,6.34,12.2a2.48,2.48,0,0,0,.35,1.35,3.77,3.77,0,0,0,1.76,1.79,2.52,2.52,0,0,0,1.42.32,3,3,0,0,0,1.32-.15A3.76,3.76,0,0,0,9.3,8.27Z"/><path d="M23.37,0V19.92c0,18,0,19.91.12,19.91H31a10.26,10.26,0,0,0,7.92-5.45,15.23,15.23,0,0,0,.62-1.44c.52-1.54.5-1.12.5-13,0-9.49,0-10.88-.13-11.48A10.26,10.26,0,0,0,31.36.13,31.29,31.29,0,0,0,27,.13C25,0,23.39,0,23.37,0Zm8.81,18A4.12,4.12,0,0,1,35,20.52a4.57,4.57,0,0,1,0,2.64A4,4,0,0,1,27.45,23a4.87,4.87,0,0,1,0-2.34A4,4,0,0,1,32.18,18Z"/></g><g id="platform-ps" stroke-width="0"><path d="M39.615,28.186a7.482,7.482,0,0,1-2.694,1.688l-14.23,5.111v-3.77l10.472-3.731c1.188-.426,1.371-1.028.4-1.344a7.064,7.064,0,0,0-3.9.2L22.691,28.8V24.888l.4-.136a23.939,23.939,0,0,1,4.852-1.028A20.7,20.7,0,0,1,36.978,24.8C40.049,25.77,40.395,27.2,39.615,28.186ZM24.046,21.768v-9.64c0-1.132-.209-2.174-1.271-2.469-.813-.261-1.318.495-1.318,1.626V35.425l-6.51-2.066V4.575a78.282,78.282,0,0,1,8.969,2.459c5.514,1.893,7.383,4.249,7.383,9.557C31.3,21.766,28.1,23.727,24.046,21.768ZM3,30.822c-3.153-.888-3.678-2.738-2.241-3.8a15.447,15.447,0,0,1,3.587-1.725l9.335-3.319v3.784l-6.717,2.4c-1.187.426-1.369,1.029-.4,1.345a7.083,7.083,0,0,0,3.9-.2l3.222-1.169v3.385c-.2.036-.432.073-.643.108A21.121,21.121,0,0,1,3,30.822Zm34.541,1.5a1.525,1.525,0,1,1-1.523,1.526A1.527,1.527,0,0,1,37.541,32.321Zm-1.267,1.526a1.269,1.269,0,0,0,1.267,1.267,1.268,1.268,0,0,0,1.267-1.267,1.267,1.267,0,1,0-2.535,0ZM38,33.025a.416.416,0,0,1,.251.417.466.466,0,0,1-.066.259.449.449,0,0,1-.128.123.374.374,0,0,1,.1.084.388.388,0,0,1,.06.225l.008.217a.557.557,0,0,0,.015.13.1.1,0,0,0,.048.074l.023.011v.1h-.329l-.011-.019a.3.3,0,0,1-.022-.066,1.03,1.03,0,0,1-.012-.133l-.014-.27a.192.192,0,0,0-.1-.182.472.472,0,0,0-.182-.025h-.462v.7h-.3v-1.7h.788a.763.763,0,0,1,.32.058Zm-.813.684h.47a.4.4,0,0,0,.223-.053.223.223,0,0,0,.073-.193.2.2,0,0,0-.1-.2.376.376,0,0,0-.163-.03h-.5v.479Z"/></g><g id="platform-origin" stroke-width="0"><path d="M20.98,5.159a15.255,15.255,0,0,0-2.647.059A.2.2,0,0,1,18.112,5,9.9,9.9,0,0,1,19.869.679a.454.454,0,0,0,.093-.238A.41.41,0,0,0,19.58,0a.5.5,0,0,0-.246.059A31.029,31.029,0,0,0,6.8,13.124,14.886,14.886,0,0,0,19.012,34.841a14.46,14.46,0,0,0,2.647-.059.2.2,0,0,1,.221.221,9.9,9.9,0,0,1-1.756,4.318.454.454,0,0,0-.093.238.416.416,0,0,0,.382.441.5.5,0,0,0,.246-.059,30.959,30.959,0,0,0,12.53-13.056A14.877,14.877,0,0,0,20.98,5.159Zm4.835,15.227a5.828,5.828,0,1,1-5.429-6.2A5.824,5.824,0,0,1,25.815,20.386Z"/></g><g id="platform-epic" stroke-width="0" viewBox="0 0 150 150"><path d="M129.92197,0 C138.743881,0 142,3.16440908 142,11.7428288 L142,115.254854 C142,116.225588 141.959446,117.127346 141.871213,117.962791 C141.67036,119.835284 141.632546,121.64972 139.840762,123.71556 C139.665941,123.917963 137.836617,125.241038 137.836617,125.241038 C136.852356,125.710027 136.180745,126.055444 135.07071,126.489545 L81.4747587,148.313901 C78.692137,149.553619 77.5286696,150.036722 75.5078094,149.99784 L75.499863,149.998106 L74.6711076,149.981861 C73.1055988,149.883251 71.9101107,149.376516 69.5252413,148.313901 L15.9290157,126.489545 C14.8192552,126.055444 14.1473706,125.710027 13.163383,125.241038 C13.163383,125.241038 11.3340592,123.917963 11.1589637,123.71556 C9.36718002,121.64972 9.32936595,119.835284 9.128513,117.962791 C9.0402802,117.127346 9,116.225588 9,115.254854 L9,11.7428288 C9,3.16440908 12.2558455,0 21.0780304,0 L129.92197,0 Z M101.386246,129.448036 L49.856641,129.448036 L75.0846481,137.878115 L101.386246,129.448036 Z M38.4186546,91.1280852 L37.3683554,91.1280852 L37.122564,91.1520541 L36.8781426,91.1760223 L36.389848,91.2236935 L36.1443307,91.2713648 L35.8999093,91.2953337 L35.6557621,91.343005 L35.436002,91.4146452 L35.1904847,91.4623165 L34.9709987,91.5339559 L34.7515128,91.5818937 L34.5301087,91.6772363 L34.2859613,91.7491423 L34.0908627,91.8205159 L33.8464414,91.9400931 L33.6255854,92.0354357 L33.4058254,92.1310448 L33.1863394,92.2503555 L32.9652094,92.3696669 L32.7454494,92.4892442 L32.5506248,92.6085557 L32.3538821,92.7278671 L32.1587834,92.8711467 L31.9623147,92.9904582 L31.7672161,93.1337378 L31.5965047,93.2770174 L31.4000361,93.4442667 L31.2295988,93.5872797 L30.8870801,93.921511 L30.7396601,94.0887595 L30.5692228,94.2557422 L30.4218028,94.4232574 L30.2757527,94.6142082 L30.1283327,94.8051591 L29.9825568,94.9961108 L29.8595241,95.1870616 L29.7370394,95.3780125 L29.6153768,95.56923 L29.4926181,95.7601816 L29.3698594,95.9751014 L29.2731321,96.1900212 L29.1747608,96.404941 L29.0766634,96.6198608 L28.9796621,96.8345148 L28.8812908,97.0734036 L28.8075808,97.2883233 L28.7338707,97.5269455 L28.6618048,97.7418653 L28.6124821,97.980754 L28.5387721,98.2193761 L28.4897234,98.4342959 L28.4653361,98.6731847 L28.4162874,98.9104754 L28.391352,99.1730664 L28.3683348,99.4119552 L28.3683348,99.6505773 L28.3439474,99.9131692 L28.3439474,100.701208 L28.3683348,100.939831 L28.391352,101.178719 L28.4162874,101.417608 L28.4404007,101.632262 L28.4897234,101.87115 L28.5143848,102.08607 L28.5634334,102.324692 L28.6371434,102.539879 L28.6861921,102.778501 L28.758532,102.993155 L28.8075808,103.208075 L28.9059521,103.42326 L28.9796621,103.614212 L29.0766634,103.828865 L29.1747608,104.043785 L29.3698594,104.473625 L29.4926181,104.664576 L29.6153768,104.879496 L29.7370394,105.070714 L29.8595241,105.261399 L30.005574,105.452616 L30.1283327,105.643567 L30.2757527,105.810815 L30.4218028,106.001767 L30.5692228,106.168749 L30.7396601,106.335998 L30.9117414,106.503247 L31.0821787,106.64626 L31.2542601,106.813509 L31.4246974,106.956789 L31.5965047,107.100068 L31.7918774,107.243349 L31.986976,107.386363 L32.1834448,107.529909 L32.5750121,107.768531 L32.7947721,107.887842 L32.9895967,108.006088 L33.2110008,108.125399 L33.4304867,108.221008 L33.6502467,108.31635 L33.8713768,108.411692 L34.1152501,108.507301 L34.3350101,108.578942 L34.55477,108.674283 L34.7759001,108.74619 L35.0200473,108.793861 L35.2398074,108.865501 L35.4853247,108.913172 L35.7048107,108.960843 L35.9492321,109.008781 L36.1933793,109.056452 L36.4391707,109.080421 L36.6833181,109.10439 L36.9274654,109.128085 L37.196274,109.152061 L37.4404213,109.175763 L38.4926387,109.175763 L38.7611733,109.152061 L39.0069647,109.128085 L39.2757734,109.10439 L39.5199207,109.080421 L39.7887293,109.056452 L40.0331507,109.032484 L40.278668,108.984812 L40.5228154,108.937141 L40.7425753,108.88947 L40.9883667,108.841798 L41.2078527,108.769892 L41.452,108.698519 L41.892616,108.554973 L42.11265,108.483332 L42.332136,108.387724 L42.5779274,108.292382 L42.7974134,108.196772 L43.0415606,108.10143 L43.2613206,107.981853 L43.4821767,107.887842 L43.7019366,107.768531 L43.9216966,107.648954 L44.1428267,107.529909 L44.3379254,107.410331 L44.534394,107.29102 L44.7294926,107.14774 L44.9245913,107.028429 L45.2917713,106.765571 L45.48824,106.622292 L45.6586773,106.479278 L45.6586773,98.7208559 L37.5878414,98.7208559 L37.5878414,102.205381 L41.158804,102.205381 L41.158804,104.378016 L40.9634314,104.497594 L40.791624,104.592936 L40.572138,104.688545 L40.3756693,104.784154 L40.1556354,104.879496 L39.9361494,104.927434 L39.692002,104.998807 L39.4462106,105.046479 L39.2020634,105.094416 L38.957916,105.118385 L38.4186546,105.166056 L37.85665,105.166056 L37.5878414,105.142087 L37.3436941,105.118385 L37.0995467,105.070714 L36.8537553,105.022776 L36.3651867,104.879496 L36.1443307,104.784154 L35.9248447,104.688545 L35.7048107,104.592936 L35.508342,104.473625 L35.3135174,104.354314 L35.1184187,104.211034 L34.9216761,104.067754 L34.7515128,103.924474 L34.6038187,103.757492 L34.4333814,103.590243 L34.2859613,103.42326 L34.1399114,103.232043 L34.0171527,103.041092 L33.894394,102.850141 L33.7730054,102.635221 L33.674908,102.420035 L33.5765367,102.181413 L33.5041967,101.990461 L33.4304867,101.775541 L33.3814381,101.560888 L33.3321153,101.345702 L33.2830667,101.131049 L33.2584053,100.89216 L33.234018,100.67724 L33.2110008,100.438617 L33.2110008,99.8892002 L33.234018,99.6505773 L33.2584053,99.4119552 L33.307728,99.1490983 L33.3567767,98.9344443 L33.4058254,98.696887 L33.4795354,98.4582649 L33.5765367,98.2433451 L33.6502467,98.0284253 L33.7483441,97.8135055 L33.8713768,97.6225538 L33.9924913,97.407634 L34.1152501,97.2166831 L34.2369127,97.0494346 L34.3843327,96.8584829 L34.55477,96.6912344 L34.7021901,96.5242525 L35.0447087,96.2376925 L35.215146,96.0946787 L35.4118887,95.9751014 L35.6067133,95.8555242 L35.8031821,95.7362127 L36.0229421,95.6408702 L36.2427021,95.5452618 L36.462188,95.4736216 L36.6833181,95.402248 L36.9030781,95.3543102 L37.1472253,95.3066389 L37.3683554,95.2826708 L37.6125027,95.2589676 L38.1254587,95.2589676 L38.3956374,95.2826708 L38.664446,95.3066389 L38.9088673,95.3303412 L39.397162,95.4259504 L39.618292,95.4736216 L39.837778,95.5452618 L40.057538,95.6169012 L40.2540067,95.6885414 L40.4491054,95.7841506 L40.645574,95.8794923 L40.86506,95.9990704 L41.0604326,96.1181152 L41.2569014,96.2376925 L41.452,96.357004 L41.6470986,96.5002836 L41.8435674,96.6198608 L42.038666,96.7868436 L42.2351347,96.9301231 L42.3811846,96.7391723 L42.552992,96.5719238 L42.699316,96.3809721 L42.8711234,96.1900212 L43.0168993,95.9990704 L43.1643193,95.831821 L43.3350306,95.6408702 L43.4821767,95.4499193 L43.652888,95.2589676 L43.800308,95.0914533 L43.946084,94.9005016 L44.1181653,94.7095508 L44.2642153,94.542568 L44.4116354,94.3513506 L44.5820726,94.1603997 L44.7294926,93.9694488 L44.89993,93.8024661 L45.04735,93.6112486 L44.8522513,93.4679691 L44.6557826,93.3009863 L44.460684,93.1577067 L44.2642153,93.0144263 L44.0691166,92.8948491 L43.874018,92.7518353 L43.652888,92.632258 L43.4577894,92.5129465 L43.2383034,92.3936359 L43.0415606,92.2743244 L42.8220746,92.1787161 L42.6023147,92.0594046 L42.3811846,91.9637963 L42.1616987,91.8681871 L41.9419387,91.7728446 L41.7208086,91.7012052 L41.52571,91.629565 L41.306224,91.5818937 L41.085094,91.5102535 L40.86506,91.4623165 L40.645574,91.4146452 L40.424718,91.3669739 L40.1802966,91.3193027 L39.9361494,91.2713648 L39.7150193,91.2476625 L39.4462106,91.1997254 L39.2020634,91.1760223 L38.957916,91.1760223 L38.4186546,91.1280852 Z M115.514675,91.1760223 L114.462732,91.1760223 L114.218584,91.1997254 L113.974437,91.2236935 L113.728646,91.2476625 L113.484498,91.2713648 L113.264738,91.3193027 L113.020591,91.3669739 L112.799735,91.4146452 L112.579701,91.4623165 L112.384602,91.5102535 L112.163472,91.5818937 L111.919325,91.6772363 L111.675178,91.7491423 L111.454048,91.8444848 L111.234562,91.9637963 L111.014802,92.0594046 L110.793672,92.1787161 L110.598847,92.2980267 L110.403474,92.4413071 L110.207006,92.5845867 L110.036569,92.7038982 L109.8401,92.8711467 L109.669388,93.0623642 L109.497581,93.2293469 L109.327144,93.4202978 L109.17945,93.6112486 L109.0334,93.8024661 L108.910915,94.0171201 L108.789252,94.2323057 L108.691155,94.4469597 L108.592784,94.6618795 L108.496056,94.8767993 L108.447008,95.0914533 L108.373298,95.3066389 L108.323975,95.5215587 L108.274926,95.7362127 L108.250265,95.9751014 L108.225878,96.1900212 L108.201216,96.4286434 L108.201216,96.978061 L108.225878,97.2403855 L108.250265,97.4792742 L108.274926,97.7178963 L108.323975,97.9328161 L108.373298,98.1717049 L108.447008,98.3626565 L108.592784,98.7687938 L108.691155,98.9344443 L108.813914,99.1490983 L108.935302,99.3403158 L109.058336,99.5072977 L109.204111,99.6742804 L109.351532,99.841529 L109.69405,100.17576 L109.864488,100.319306 L110.060956,100.438617 L110.256055,100.581897 L110.475815,100.701208 L110.672283,100.82052 L110.916705,100.939831 L111.13619,101.059142 L111.381708,101.154751 L111.626129,101.250093 L111.870276,101.345702 L112.139085,101.44131 L112.360215,101.51295 L112.579701,101.58459 L112.799735,101.656231 L113.043608,101.704168 L113.264738,101.775541 L113.50916,101.847182 L113.753034,101.895119 L113.998824,101.966759 L114.242972,102.01443 L114.51178,102.08607 L114.756202,102.133742 L115.024736,102.205381 L115.270528,102.253052 L115.514675,102.324692 L115.734435,102.372364 L115.955565,102.44427 L116.15039,102.491941 L116.321101,102.539879 L116.614297,102.658924 L116.860089,102.754532 L117.079575,102.850141 L117.274673,102.945484 L117.471416,103.088763 L117.641853,103.232043 L117.764886,103.399026 L117.863257,103.637914 L117.887371,103.924474 L117.887371,103.972146 L117.863257,104.211034 L117.789274,104.425688 L117.690902,104.616905 L117.545126,104.784154 L117.348657,104.927434 L117.177946,105.022776 L116.981477,105.094416 L116.761717,105.142087 L116.542231,105.190025 L116.29644,105.237696 L116.027631,105.261399 L115.490014,105.261399 L115.221479,105.237696 L114.977058,105.237696 L114.73154,105.190025 L114.462732,105.166056 L114.218584,105.118385 L113.974437,105.070714 L113.728646,105.022776 L113.50916,104.951136 L113.264738,104.879496 L113.020591,104.807856 L112.799735,104.712514 L112.579701,104.640874 L112.360215,104.545265 L112.139085,104.449922 L111.919325,104.354314 L111.724501,104.234737 L111.503097,104.139394 L111.308272,104.019817 L111.088512,103.876803 L110.892043,103.757492 L110.672283,103.614212 L110.475815,103.470932 L110.256055,103.327652 L110.060956,103.184372 L109.913536,103.375323 L109.743099,103.542305 L109.595679,103.733523 L109.425241,103.924474 L109.277821,104.091456 L109.131772,104.282674 L108.959964,104.473625 L108.813914,104.640874 L108.641833,104.831825 L108.496056,104.998807 L108.323975,105.190025 L108.178199,105.380976 L108.030779,105.547959 L107.860068,105.738909 L107.712648,105.930127 L107.54221,106.097375 L107.394791,106.288326 L107.589889,106.455309 L107.761697,106.598589 L107.957069,106.741869 L108.153538,106.885149 L108.348637,107.028429 L108.543735,107.171709 L108.740204,107.29102 L108.935302,107.410331 L109.156433,107.529909 L109.351532,107.648954 L109.571292,107.768531 L109.792147,107.864139 L110.011907,107.981853 L110.231667,108.077462 L110.452523,108.17307 L110.696945,108.268679 L110.916705,108.340053 L111.160852,108.411692 L111.381708,108.507301 L111.626129,108.578942 L111.870276,108.650581 L112.090036,108.698519 L112.335554,108.769892 L112.823848,108.865501 L113.06827,108.913172 L113.314061,108.960843 L113.558209,108.984812 L113.802356,109.032484 L114.071165,109.056452 L114.561103,109.10439 L114.829638,109.10439 L115.074059,109.128092 L116.101341,109.128092 L116.345762,109.10439 L116.614297,109.080421 L116.860089,109.056452 L117.079575,109.032484 L117.323996,109.008781 L117.569787,108.960843 L117.789274,108.913172 L118.009034,108.865501 L118.253181,108.817564 L118.474311,108.74619 L118.718458,108.674283 L118.962605,108.60291 L119.206753,108.507301 L119.452544,108.411692 L119.67203,108.292382 L119.89179,108.196772 L120.11292,108.077462 L120.308018,107.934181 L120.503117,107.816468 L120.699586,107.673188 L120.870297,107.529909 L121.066492,107.362659 L121.212542,107.21938 L121.384623,107.052131 L121.530399,106.885149 L121.653432,106.694198 L121.799482,106.503247 L121.92224,106.312029 L122.044999,106.121078 L122.141727,105.906425 L122.240098,105.715207 L122.338195,105.500287 L122.412179,105.261399 L122.459858,105.046479 L122.533294,104.807856 L122.582617,104.568967 L122.607004,104.306643 L122.631666,104.067754 L122.656326,103.805163 L122.656326,103.232043 L122.631666,102.969452 L122.607004,102.73083 L122.557955,102.491941 L122.508907,102.253052 L122.459858,102.038132 L122.387518,101.823213 L122.313808,101.608559 L122.215711,101.417608 L122.092678,101.202422 L121.971289,101.01147 L121.823869,100.796817 L121.677819,100.6056 L121.506012,100.438617 L121.335575,100.2474 L120.944007,99.9131692 L120.748635,99.7938577 L120.552166,99.6505773 L120.357341,99.5312666 L120.137581,99.4119552 L119.916451,99.2923779 L119.67203,99.1730664 L119.427883,99.0777239 L119.183735,98.9581466 L118.913557,98.8641363 L118.694071,98.7924961 L118.474311,98.7208559 L118.228519,98.6492157 L118.009034,98.5775763 L117.520465,98.4342959 L117.274673,98.3866247 L117.005864,98.3149853 L116.761717,98.2433451 L116.493183,98.1956738 L116.224374,98.1237678 L115.955565,98.0523942 L115.685113,97.980754 L115.440965,97.9328161 L115.221479,97.8611767 L115.000349,97.8135055 L114.805251,97.7418653 L114.610152,97.694194 L114.316682,97.5988515 L114.046503,97.5032431 L113.802356,97.407634 L113.607257,97.2883233 L113.386127,97.1690119 L113.21569,97.0017634 L113.117319,96.8584829 L112.996204,96.5958919 L112.971269,96.2856296 L112.971269,96.2376925 L112.996204,95.9990704 L113.092657,95.7841506 L113.240078,95.56923 L113.459838,95.3780125 L113.631919,95.2826708 L113.827017,95.1870616 L114.046503,95.1393904 L114.292295,95.0914533 L114.561103,95.043782 L115.098721,95.043782 L115.318207,95.0677502 L115.563998,95.0914533 L115.808145,95.1154214 L116.29644,95.2110306 L116.542231,95.2589676 L116.786379,95.3303412 L117.030526,95.402248 L117.299608,95.4736216 L117.496078,95.56923 L117.715563,95.6408702 L117.910662,95.7362127 L118.131792,95.831821 L118.32689,95.9271636 L118.546377,96.0227727 L118.74312,96.14235 L118.962605,96.2376925 L119.159074,96.3809721 L119.354447,96.5002836 L119.573932,96.6198608 L119.770402,96.7628746 L119.916451,96.5719238 L120.03921,96.3809721 L120.184986,96.1900212 L120.33268,95.9990704 L120.478456,95.7841506 L120.601489,95.5931989 L120.894958,95.2110306 L121.017443,95.0200797 L121.310913,94.6379106 L121.433946,94.4469597 L121.579722,94.2323057 L121.727142,94.0410882 L121.873191,93.8501374 L121.99595,93.6591865 L122.141727,93.4679691 L121.946902,93.3249553 L121.751803,93.1816757 L121.555335,93.0381295 L121.359962,92.9190846 L121.139105,92.7758042 L120.944007,92.6562269 L120.724247,92.5369155 L120.503117,92.4176048 L120.308018,92.3219957 L120.088258,92.2026842 L119.842741,92.1070759 L119.622981,92.0114675 L119.403495,91.916125 L119.183735,91.8444848 L118.938218,91.7491423 L118.718458,91.7012052 L118.498698,91.629565 L118.253181,91.5579248 L118.033421,91.5102535 L117.789274,91.4623165 L117.545126,91.4146452 L117.323996,91.3669739 L117.079575,91.3193027 L116.810766,91.2953337 L116.566619,91.2476625 L116.29644,91.2236935 L116.052293,91.2236935 L115.783484,91.1997254 L115.514675,91.1760223 Z M105.601636,91.4623165 L91.4660282,91.4623165 L91.4660282,108.841798 L105.724395,108.841798 L105.724395,104.903198 L96.136339,104.903198 L96.136339,101.94279 L104.647791,101.94279 L104.647791,98.2433451 L96.136339,98.2433451 L96.136339,95.402248 L105.601636,95.402248 L105.601636,91.4623165 Z M74.1597929,91.4623165 L69.1453196,91.4623165 L69.1453196,108.841798 L73.7926129,108.841798 L73.7926129,98.6127299 L73.9383889,98.8036816 L74.0616956,99.0201994 L74.2074715,99.2108837 L74.3302303,99.4258043 L74.4776503,99.6170217 L74.5990389,99.8316749 L74.7464589,100.024224 L74.8678475,100.239144 L75.0152676,100.430095 L75.1380263,100.645015 L75.2840762,100.835966 L75.4068349,101.052484 L75.5528849,101.243435 L75.6756435,101.458355 L75.8216935,101.649306 L75.9444523,101.865557 L76.0918723,102.056509 L76.2376482,102.271429 L76.3606809,102.46238 L76.5064569,102.678631 L76.6294895,102.869583 L76.7769096,103.084502 L76.8980242,103.275453 L77.0454442,103.491971 L77.1668329,103.682922 L77.3142529,103.897576 L77.4372856,104.088793 L77.5830615,104.303713 L77.7058202,104.496262 L77.8518702,104.710916 L77.9746289,104.901867 L78.1206789,105.116787 L78.2437115,105.309336 L78.3908576,105.524255 L78.4878589,105.524255 L78.6106175,105.333305 L78.7566675,105.116787 L78.8794262,104.925836 L79.0268463,104.734884 L79.1482349,104.519964 L79.2953809,104.328747 L79.4167695,104.136465 L79.5398022,103.921811 L79.6872223,103.730593 L79.8086109,103.539642 L79.9560309,103.347359 L80.0774195,103.132439 L80.2245656,102.941489 L80.3475982,102.750271 L80.4689869,102.53402 L80.6164069,102.343068 L80.7375215,102.151851 L80.8849416,101.937198 L81.0063302,101.74598 L81.1537502,101.553697 L81.2767829,101.338777 L81.3981715,101.147826 L81.5455916,100.956875 L81.6669802,100.740623 L81.8141262,100.549406 L81.9371589,100.358455 L82.0829348,100.167504 L82.2059676,99.9512522 L82.3270822,99.7603013 L82.4747762,99.5690839 L82.5975349,99.3544307 L82.7433108,99.1632132 L82.8663436,98.9722615 L83.0123935,98.7557437 L83.1348782,98.5647928 L83.1348782,108.841798 L87.8545115,108.841798 L87.8545115,91.4623165 L82.8416822,91.4623165 L82.7189235,91.6535339 L82.5975349,91.8681871 L82.4501148,92.0578066 L82.3270822,92.2727264 L82.2059676,92.463678 L82.0829348,92.6788636 L81.9371589,92.8682173 L81.8141262,93.0834037 L81.6916415,93.2743545 L81.5699789,93.4653054 L81.4228329,93.678628 L81.3011702,93.8698454 L81.1784116,94.0844986 L81.0556528,94.2757161 L80.9098769,94.4890378 L80.7865702,94.6799895 L80.6654556,94.8709404 L80.5424228,95.0847954 L80.4196642,95.2754796 L80.2736142,95.4903994 L80.1511295,95.6816169 L80.0280968,95.8949394 L79.9067082,96.0861569 L79.7592882,96.3008101 L79.6381736,96.4904295 L79.5151409,96.6813804 L79.3923822,96.896301 L79.2463322,97.0875185 L79.1235735,97.3024383 L79.0019109,97.4920577 L78.8794262,97.7069775 L78.7333762,97.8979284 L78.6106175,98.1112509 L78.4878589,98.3024684 L78.3664703,98.1112509 L78.2437115,97.8979284 L78.0960175,97.7069775 L77.9746289,97.4920577 L77.8518702,97.3024383 L77.7304816,97.0875185 L77.6077229,96.896301 L77.4603029,96.6813804 L77.3389143,96.4904295 L77.2158815,96.3008101 L77.0947669,96.0861569 L76.9720083,95.8949394 L76.8245882,95.6816169 L76.7029256,95.4903994 L76.5801669,95.2754796 L76.4590523,95.0847954 L76.3360195,94.8709404 L76.1885995,94.6799895 L76.0672109,94.4890378 L75.9444523,94.2757161 L75.8216935,94.0844986 L75.6756435,93.8698454 L75.5528849,93.678628 L75.4314963,93.4653054 L75.3084635,93.2743545 L75.1859789,93.0834037 L75.0396549,92.8682173 L74.9168962,92.6788636 L74.7955076,92.463678 L74.6727489,92.2727264 L74.5497162,92.0578066 L74.4039403,91.8681871 L74.2811816,91.6535339 L74.1597929,91.4623165 Z M59.5761699,91.343005 L55.0516354,91.343005 L54.954908,91.5579248 L54.8565367,91.7728446 L54.7584394,91.9877644 L54.6844553,92.2266531 L54.587728,92.4413071 L54.3912594,92.8711467 L54.294532,93.0860665 L54.1961607,93.3009863 L54.0977894,93.5396084 L53.999418,93.7547949 L53.927352,93.9694488 L53.8289807,94.1843686 L53.7306093,94.3992884 L53.6338821,94.6142082 L53.5355107,94.8528304 L53.4374134,95.0677502 L53.3404121,95.2826708 L53.2423147,95.4975906 L53.1686047,95.7125104 L53.0705074,95.9271636 L52.973506,96.1660523 L52.8754087,96.3809721 L52.7770374,96.5958919 L52.6800361,96.8108125 L52.5819387,97.0257323 L52.4835674,97.2403855 L52.4098574,97.4792742 L52.31313,97.694194 L52.2147587,97.908848 L52.1166614,98.1237678 L52.0196601,98.3389534 L51.9215627,98.5536074 L51.8234654,98.7924961 L51.726464,99.0058179 L51.652754,99.2210043 L51.4562854,99.6505773 L51.3595581,99.8654979 L51.2611867,100.080418 L51.1628154,100.319306 L50.9677168,100.748879 L50.8940067,100.963799 L50.7959093,101.178719 L50.698908,101.39364 L50.6008107,101.632262 L50.5027133,101.847182 L50.4057121,102.062101 L50.2092434,102.491941 L50.1355333,102.706595 L50.0388061,102.945484 L49.9404347,103.160403 L49.7453361,103.590243 L49.6469647,103.805163 L49.5485934,104.019817 L49.451866,104.258706 L49.378156,104.473625 L49.2800587,104.688545 L49.1816873,104.903198 L49.084686,105.118385 L48.9865887,105.333305 L48.8882174,105.571927 L48.7914901,105.786846 L48.6931187,106.001767 L48.6196827,106.216687 L48.4245841,106.64626 L48.3262127,106.885149 L48.2278414,107.100068 L48.1311141,107.314988 L47.9346454,107.744562 L47.8609353,107.95815 L47.763934,108.196772 L47.5674654,108.626612 L47.4707381,108.841798 L52.4098574,108.841798 L52.5082287,108.626612 L52.5819387,108.411692 L52.6800361,108.196772 L52.7770374,107.95815 L52.8507474,107.744562 L52.9491187,107.529909 L53.045846,107.314988 L53.119556,107.100068 L53.2179274,106.885149 L53.3160247,106.670229 L53.3883646,106.455309 L53.486462,106.216687 L53.5848334,106.001767 L53.6585434,105.786846 L53.7552707,105.571927 L60.7738893,105.571927 L60.8722606,105.786846 L60.9459707,106.001767 L61.044342,106.216687 L61.1413433,106.455309 L61.2147793,106.670229 L61.3131507,106.885149 L61.411248,107.100068 L61.4835879,107.314988 L61.6800566,107.744562 L61.7523966,107.95815 L61.8507679,108.196772 L61.9488653,108.411692 L62.0225753,108.626612 L62.1195766,108.841798 L67.1581633,108.841798 L66.9616946,108.411692 L66.8652413,108.196772 L66.7912573,107.95815 L66.6928859,107.744562 L66.4977873,107.314988 L66.3015926,106.885149 L66.2048653,106.64626 L66.106494,106.43134 L66.0325099,106.216687 L65.8376853,105.786846 L65.739314,105.571927 L65.6412166,105.333305 L65.5444893,105.118385 L65.4461179,104.903198 L65.3477466,104.688545 L65.2756807,104.473625 L65.1773093,104.258706 L65.0789379,104.019817 L64.9805666,103.805163 L64.8838393,103.590243 L64.785468,103.375323 L64.6873706,103.160403 L64.5903693,102.945484 L64.5169333,102.706595 L64.4185619,102.491941 L64.3215606,102.277021 L64.2234633,102.062101 L64.125092,101.847182 L64.0269946,101.632262 L63.9299933,101.39364 L63.831896,101.178719 L63.7581859,100.963799 L63.6614587,100.748879 L63.5630873,100.534226 L63.464716,100.319306 L63.3666186,100.080418 L63.2696173,99.8654979 L63.171246,99.6505773 L63.0731486,99.4356575 L63.0008086,99.2210043 L62.9027113,99.0058179 L62.8043399,98.7924961 L62.7076127,98.5536074 L62.6092413,98.3389534 L62.4127726,97.908848 L62.3160453,97.694194 L62.2420613,97.4792742 L62.1439639,97.2403855 L61.9488653,96.8108125 L61.8507679,96.5958919 L61.7523966,96.3809721 L61.6553953,96.1660523 L61.5572979,95.9271636 L61.4835879,95.7125104 L61.3868607,95.4975906 L61.1903919,95.0677502 L61.0936647,94.8528304 L60.9952933,94.6142082 L60.7985506,94.1843686 L60.7264847,93.9694488 L60.6281133,93.7547949 L60.5297419,93.5396084 L60.4330147,93.3009863 L60.3346433,93.0860665 L60.2365459,92.8711467 L60.1381746,92.6562269 L60.0414473,92.4413071 L59.9677373,92.2266531 L59.86964,91.9877644 L59.7726387,91.7728446 L59.6742673,91.5579248 L59.5761699,91.343005 Z M57.2714474,96.8296262 L57.375282,97.0369177 L57.448992,97.253169 L57.5457193,97.4920577 L57.6440907,97.7083089 L57.7178007,97.9229629 L57.8158981,98.1381485 L57.9128993,98.3781029 L57.9863353,98.5930227 L58.0847067,98.8079425 L58.1830781,99.0241937 L58.2551439,99.2391143 L58.3535153,99.4780022 L58.4274994,99.6942543 L58.5239527,99.9089075 L58.6223239,100.123827 L58.696308,100.340079 L58.7944053,100.578968 L58.8911327,100.793888 L58.9648427,101.010139 L59.063214,101.225059 L59.1599413,101.463948 L59.2336513,101.680199 L59.3317487,101.895119 L55.1990554,101.895119 L55.2957826,101.680199 L55.3694926,101.463948 L55.467864,101.225059 L55.5662354,101.010139 L55.6383013,100.793888 L55.7363987,100.578968 L55.83477,100.340079 L55.9317713,100.123827 L56.0052073,99.9089075 L56.2016761,99.4780022 L56.274016,99.2391143 L56.3723873,99.0241937 L56.4704847,98.8079425 L56.5444687,98.5930227 L56.641196,98.3781029 L56.7395674,98.1381485 L56.8376647,97.9229629 L56.9100046,97.7083089 L57.008376,97.4920577 L57.1067474,97.253169 L57.1801833,97.0369177 L57.2714474,96.8296262 Z M106.983111,19.4403698 L105.654345,19.4817863 C99.2270728,19.896053 96.0466264,23.419617 96.0466264,30.1213825 L96.0466264,67.2575159 L96.0890517,68.5555573 C96.5134065,74.834059 100.122632,77.938529 106.983111,77.938529 L111.44243,77.938529 L112.771463,77.8971149 C119.199879,77.4828768 122.37864,73.9595311 122.37864,67.2575159 L122.37864,53.8659027 L113.54522,53.8659027 L113.54522,66.8473838 L113.504584,67.5688442 C113.287559,69.3721426 112.198833,70.2155274 110.180865,70.2155274 L108.497317,70.2155274 L107.758739,70.1757661 C105.912524,69.9630992 105.048017,68.8924813 105.048017,66.8473838 L105.048017,30.5315146 L105.08877,29.8101334 C105.306728,28.0070221 106.403843,27.1636373 108.497317,27.1636373 L110.011798,27.1636373 L110.725497,27.2033982 C112.513016,27.4160623 113.377523,28.4866538 113.377523,30.5315146 L113.377523,41.7885765 L122.209847,41.7885765 L122.209847,30.0385571 L122.173116,28.8156027 C121.781056,22.4972835 118.245979,19.4403698 111.358855,19.4403698 L106.983111,19.4403698 Z M48.6441522,19.9335671 L28.6213328,19.9335671 L28.6213328,77.4455443 L48.8118494,77.4455443 L48.8118494,69.4764639 L37.6224495,69.4764639 L37.6224495,52.1395926 L48.2221692,52.1395926 L48.2221692,44.1707784 L37.6224495,44.1707784 L37.6224495,27.9023812 L48.6441522,27.9023812 L48.6441522,19.9335671 Z M91.2894807,19.9334073 L82.2869937,19.9334073 L82.2869937,77.4456509 L91.2894807,77.4456509 L91.2894807,19.9334073 Z M53.1572056,19.9333806 L53.1572056,77.4456243 L62.1585964,77.4456243 L62.1585964,56.5762902 L67.2900741,56.5762902 L68.619062,56.534877 C75.0472828,56.1206444 78.2262842,52.5973926 78.2262842,45.8968755 L78.2262842,30.6143932 L78.1838767,29.3163958 C77.7596978,23.0380842 74.1518363,19.9333806 67.2900741,19.9333806 L53.1572056,19.9333806 Z M65.8608121,27.6566482 C68.132396,27.6566482 69.2248935,28.7243233 69.2248935,31.0245254 L69.2248935,45.4851454 L69.1843119,46.2066515 C68.9675597,48.0101837 67.8799978,48.8546206 65.8608121,48.8546206 L62.1585964,48.8546206 L62.1585964,27.6566482 L65.8608121,27.6566482 Z"/></g><g id="platform-pc" stroke-width="0" viewBox="0 0 150 150"><path d="M59,106 L8,106 C3.581722,106 5.41083001e-16,102.418278 0,98 L0,8 C-5.41083001e-16,3.581722 3.581722,8.11624501e-16 8,0 L142,0 C146.418278,-8.11624501e-16 150,3.581722 150,8 L150,98 C150,102.418278 146.418278,106 142,106 L91,106 L91,138 L119,138 L119,150 L31,150 L31,138 L59,138 L59,106 Z M134,16 L16,16 L16,90 L134,90 L134,16 Z"/></g><g id="platform-stadia" stroke-width="0" viewBox="0 0 150 150"><path d="M40.7834185,62.7458377 C72.2143805,48.4075872 108.47782,49.0091964 139.411307,64.3820709 C141.055105,65.6092458 143.520802,64.3820709 143.931752,62.7458377 L149.685045,45.1563308 C150.506945,43.5200976 149.685045,41.0657478 147.630298,40.2476312 C100.264633,17.0886846 43.8317441,22.4686509 1.74321254,54.1556134 C0.0307836801,55.3563938 -0.500280509,57.6470813 0.510363936,59.4733713 L14.0716986,89.3346272 C14.8935977,91.3799187 17.3592949,92.6070936 19.4140426,91.788977 C34.6191754,86.0621608 58.043299,80.3353446 81.878372,83.607811 C65.4403906,86.4712191 52.700955,92.1980353 42.4272166,98.3339098 C40.7147877,99.5346902 40.1837235,101.825378 41.194368,103.651668 L49.4133587,122.468349 C50.2352578,124.104583 52.2900055,124.513641 53.5228541,123.286466 C56.8104504,120.014 60.0980466,117.55965 62.9746934,115.923417 C76.1250785,108.560367 94.2068581,102.833551 118.452881,104.060726 C120.316948,104.145671 122.004523,102.969805 122.562376,101.197318 L128.726619,82.7896944 C129.548518,81.1534612 128.726619,78.6991114 127.082821,77.8809948 C100.968562,62.5659623 70.1636432,57.1890116 40.3724689,62.7458377 L40.7834185,62.7458377 Z"/></g><g id="platform-steam" stroke-width="0" viewBox="0 0 150 150"><path d="M74.8700762,1 C116.364172,1 150,34.352503 150,75.4991579 C150,116.644129 116.364172,150 74.8700762,150 C40.4767836,150 11.5046252,127.073943 2.58828591,95.8013405 L31.3855142,107.608773 C33.3352204,117.255468 41.9424599,124.542697 52.2361613,124.542697 C63.9632703,124.542697 73.5029042,115.082941 73.5029042,103.452341 C73.5029042,103.118884 73.4910157,102.78711 73.4774289,102.455337 L99.0189196,84.3846258 C99.2312134,84.3896782 99.4435072,84.3947306 99.660896,84.3947306 C115.284021,84.3947306 127.992776,71.7890204 127.992776,56.296712 C127.992776,40.8044036 115.284021,28.2003775 99.660896,28.2003775 C84.036073,28.2003775 71.3273174,40.8044036 71.3273174,56.296712 C71.3273174,56.4196535 71.3290157,56.5392267 71.3290157,56.660484 L53.4216098,82.399037 C53.0292909,82.3771433 52.6335753,82.3670385 52.2361613,82.3670385 C47.8017685,82.3670385 43.6798723,83.7210787 40.2678865,86.0333887 L0,69.523866 C3.07401411,31.1728663 35.4055094,1 74.8700762,1 Z M46.5857497,88.6235801 C50.2626782,87.2476462 54.4457151,87.1887016 58.3502225,88.7987296 C62.2853002,90.4272829 65.3457275,93.4755575 66.9676521,97.3844224 C68.5929734,101.291603 68.5827833,105.59287 66.9438752,109.493314 C63.559063,117.551875 54.1960576,121.373165 46.0762446,118.018378 C42.3194937,116.463927 39.490042,113.637957 37.8528323,110.259593 L37.8528323,110.259593 L47.081668,114.042148 C53.0717496,116.517819 59.9534652,113.707007 62.4466435,107.768766 C64.9432185,101.82884 62.1120685,95.0081155 56.1219868,92.5307608 L56.1219868,92.5307608 Z M99.660896,37.574243 C110.070085,37.574243 118.539758,45.9746815 118.539758,56.296712 C118.539758,66.6187424 110.070085,75.0174969 99.660896,75.0174969 C89.2517068,75.0174969 80.7803354,66.6187424 80.7803354,56.296712 C80.7803354,45.9746815 89.2517068,37.574243 99.660896,37.574243 Z M99.6914664,42.2022312 C91.860373,42.2022312 85.5085427,48.4975077 85.5085427,56.2647135 C85.5085427,64.0319193 91.860373,70.3271959 99.6914664,70.3271959 C107.525956,70.3271959 113.87439,64.0319193 113.87439,56.2647135 C113.87439,48.4975077 107.525956,42.2022312 99.6914664,42.2022312 Z"/></g><g id="facebook" transform="translate(11.0, 3.0)"><path d="M3.623 6.972v4.9565H0v6.061h3.623V36h7.442V17.99h4.994s.4678-2.9062.6945-6.0838h-5.6603v-4.144c0-.6194.8114-1.4525 1.6134-1.4525h4.0548V0h-5.513C3.4388-.0004 3.6228 6.0664 3.6228 6.972z"/></g><g id="tiktok" viewBox="0 0 151 151"><path d="M140.303 37.0368C137.104 37.3883 130.663 36.3776 124.09 33.0815C123.082 32.5541 122.074 31.9828 121.11 31.3676C118.306 29.5218 115.765 27.3684 113.486 24.9073C107.833 18.4471 105.686 11.8989 104.941 7.28446C104.284 3.46105 104.591 1 104.591 1H78.7817V100.76C78.7817 104.188 78.7817 107.572 77.5986 110.868C75.7144 116.274 71.6831 121.108 66.3372 123.261C59.2824 126.118 53.5422 126.162 47.1885 122.778C46.3121 122.294 45.4357 121.767 44.5593 121.152C36.8911 115.746 35.4889 107.66 35.5327 101.947C36.4091 94.1682 39.4764 89.8174 45.2166 85.3788C53.4107 79.358 63.7081 82.7419 63.7081 82.7419V56.6812C58.9318 55.978 54.0242 56.0659 49.2479 56.9009C46.0492 57.4722 42.938 58.3951 39.9584 59.6257C35.1822 61.4714 30.7127 64.1083 26.8128 67.4483C22.3871 71.3156 18.6187 75.8861 15.7267 81.028C14.6312 82.9177 10.5123 90.4327 10.0303 102.65C9.72353 109.594 11.8268 116.757 12.7908 119.746V119.746C13.4481 121.547 15.8581 127.524 19.8018 132.534C23.0006 136.577 26.769 140.137 30.9756 143.038C43.4639 151.563 57.3544 150.992 57.3544 150.992C57.5735 150.992 57.7926 150.992 58.0555 150.992C61.079 150.904 68.5281 150.64 76.8975 146.685C87.0196 141.895 92.8036 134.775 92.8036 134.775C92.8913 134.688 92.9789 134.556 93.1104 134.424C94.4687 132.798 98.6753 127.788 101.48 120.405C103.846 114.296 104.591 106.957 104.591 104.012V51.1878C104.941 51.3636 109.104 54.1322 109.104 54.1322C109.104 54.1322 115.151 57.9557 124.528 60.4607C131.233 62.2625 140.303 62.6141 140.303 62.6141V37.0368V37.0368Z"/></g><g id="gplus" transform="translate(2.0, 10.0)"><path d="M12.6307 13.8988c-.4262 0-.7718-.3456-.7718-.772v-2.8293c0-.4264.3454-.772.7717-.772h10.3995s-.006 2.5684-.0148 2.6444c-.3362 6.0616-5.3548 10.8737-11.498 10.8737-6.3883 0-11.5617-5.203-11.517-11.604C.0443 5.0863 5.3967-.1218 11.7463.0022c2.977.058 5.6768 1.247 7.6893 3.1543.322.3053.321.819-.002 1.1233l-2.066 1.945c-.2956.2784-.753.2767-1.0537.0037-1.269-1.152-2.9522-1.855-4.7967-1.855-4.034 0-7.2982 3.3615-7.1402 7.4317.1476 3.797 3.2883 6.837 7.0866 6.865 3.1304.023 5.8043-1.979 6.7916-4.7714h-5.6245zm19.9298-4.1165h2.7632c.3735 0 .6763.303.6763.6766v2.3266c0 .3737-.3028.6766-.6763.6766h-2.7632v2.7643c0 .3737-.3028.6766-.6764.6766h-2.3256c-.3735 0-.6763-.3028-.6763-.6765v-2.7643h-2.763c-.3737 0-.6764-.303-.6764-.6766V10.459c0-.3738.3027-.6767.6763-.6767h2.763V7.018c0-.3737.303-.6766.6764-.6766h2.3257c.3737 0 .6765.303.6765.6766v2.7643z"/></g><g id="instagram" transform="translate(2.0, 2.0)"><path fill-rule="evenodd" d="M18 0c-4.8885 0-5.5015.0207-7.4214.1083C8.6626.1957 7.3542.5 6.2093.945c-1.1836.46-2.1875 1.0754-3.1882 2.076C2.0205 4.022 1.405 5.0258.945 6.2094.5 7.3543.1957 8.6627.1083 10.5786.0207 12.4986 0 13.1116 0 18c0 4.8885.0207 5.5015.1083 7.4214.0874 1.916.3917 3.2244.8367 4.3693.46 1.1836 1.0754 2.1875 2.076 3.1882 1.0008 1.0006 2.0047 1.616 3.1883 2.076 1.145.445 2.4534.7493 4.3693.8367 1.92.0876 2.533.1083 7.4214.1083 4.8885 0 5.5015-.0207 7.4214-.1083 1.916-.0874 3.2244-.3917 4.3693-.8366 1.1836-.46 2.1875-1.0754 3.1882-2.076 1.0006-1.0008 1.616-2.0047 2.076-3.1883.445-1.145.7493-2.4534.8367-4.3693.0876-1.92.1083-2.533.1083-7.4214 0-4.8885-.0207-5.5015-.1083-7.4214-.0874-1.916-.3917-3.2244-.8366-4.3693-.46-1.1836-1.0754-2.1875-2.076-3.1882-1.0008-1.0006-2.0047-1.616-3.1883-2.076C28.6457.5 27.3373.1957 25.4214.1083 23.5014.0207 22.8884 0 18 0zm0 3.2432c4.8062 0 5.3755.0184 7.2735.105 1.755.08 2.708.3733 3.3424.6198.84.3265 1.4397.7165 2.0695 1.3465.63.6298 1.02 1.2294 1.3465 2.0696.2465.6344.5398 1.5875.6198 3.3425.0866 1.898.105 2.4673.105 7.2735 0 4.8062-.0184 5.3755-.105 7.2735-.08 1.755-.3733 2.708-.6198 3.3424-.3265.84-.7165 1.4397-1.3465 2.0695-.6298.63-1.2294 1.02-2.0696 1.3465-.6344.2465-1.5875.5398-3.3425.6198-1.8977.0866-2.467.105-7.2735.105-4.8066 0-5.3757-.0184-7.2735-.105-1.755-.08-2.708-.3733-3.3424-.6198-.84-.3265-1.4397-.7165-2.0695-1.3465-.63-.6298-1.02-1.2294-1.3465-2.0696-.2465-.6344-.5398-1.5875-.6198-3.3425-.0866-1.898-.105-2.4673-.105-7.2735 0-4.8062.0184-5.3755.105-7.2735.08-1.755.3733-2.708.6198-3.3424.3265-.84.7165-1.4397 1.3465-2.0695.6298-.63 1.2294-1.02 2.0696-1.3465.6344-.2465 1.5875-.5398 3.3425-.6198 1.898-.0866 2.4673-.105 7.2735-.105zm-.1297 5.4098c-5.0843 0-9.206 4.1216-9.206 9.206 0 5.0843 4.1217 9.206 9.206 9.206s9.206-4.1217 9.206-9.206c0-5.0844-4.1217-9.206-9.206-9.206zm0 15.1817c-3.3003 0-5.9758-2.6754-5.9758-5.9757 0-3.3004 2.6755-5.9758 5.9758-5.9758 3.3003 0 5.9758 2.6754 5.9758 5.9758 0 3.3003-2.6754 5.9757-5.9757 5.9757zM29.7838 8.3823c0-1.1963-.9698-2.166-2.166-2.166-1.1963 0-2.1662.9697-2.1662 2.166s.97 2.166 2.166 2.166c1.1964 0 2.1662-.9697 2.1662-2.166z"/></g><g id="twitch" transform="translate(3.0, 2.0)"><path d="M2.428 0L0 6.179V31.433h8.6327V36h4.8558l4.586-4.5672h7.014l9.442-9.403V0H2.428zm28.429 20.164L25.5 25.547h-8.5714l-4.5536 4.5754V25.547H5.143V2.9388h25.714V20.164zM25.7144 9.551v9.551h-2.9388V9.551h2.9388zm-8.8163 0v9.551h-2.9388V9.551h2.9388z"/></g><g id="twitter" transform="translate(1.0, 5.0)"><path fill-rule="evenodd" d="M11.3217 29.6c13.5855 0 21.0148-11.387 21.0148-21.2607 0-.3236-.0065-.6457-.0212-.966C33.7573 6.3187 35.011 5.0027 36 3.5043c-1.3235.5947-2.7477.9956-4.2417 1.1763 1.525-.9248 2.6957-2.3887 3.2478-4.1334-1.4272.856-3.0073 1.4784-4.6897 1.8136C28.9686.9085 27.049 0 24.925 0c-4.079 0-7.387 3.3465-7.387 7.472 0 .5864.065 1.1565.1916 1.7037C11.5913 8.8635 6.148 5.89 2.5056 1.3687c-.635 1.104-1.0002 2.387-1.0002 3.7555 0 2.5926 1.304 4.8812 3.2866 6.22-1.2113-.0377-2.3496-.3746-3.345-.935-.0018.0313-.0018.0626-.0018.0954 0 3.6194 2.5463 6.6406 5.9256 7.3258-.6202.1707-1.273.2628-1.947.2628-.4758 0-.9386-.0476-1.3885-.1347.9403 2.9687 3.6668 5.129 6.9 5.19-2.5284 2.0042-5.713 3.1985-9.1733 3.1985-.596 0-1.1838-.0344-1.762-.1034C3.269 28.3628 7.15 29.6 11.3217 29.6"/></g><g id="linkedin"><path d="M33.8,4H6.5C5.2,4,4.1,5,4.1,6.3c0,0,0,0,0,0l0,0v27.4C4.1,35,5.2,36,6.5,36h27.3c1.3,0,2.3-1,2.4-2.3V6.3C36.1,5,35,4,33.8,4z M13.6,31.3H8.9V16h4.7V31.3z M11.2,13.9c-1.5,0-2.8-1.2-2.8-2.8s1.2-2.8,2.8-2.8S14,9.6,14,11.2l0,0C14,12.7,12.8,13.9,11.2,13.9L11.2,13.9L11.2,13.9z M31.4,31.3h-4.8v-7.4c0-1.8,0-4.1-2.5-4.1c-2.5,0-2.8,1.9-2.8,3.9v7.6h-4.7V16h4.6v2.1h0.1c0.9-1.6,2.7-2.5,4.5-2.5c4.8,0,5.7,3.2,5.7,7.3L31.4,31.3z"/></g><g id="discord" viewBox="0 0 71 55"><path d="M60.1045 4.8978C55.5792 2.8214 50.7265 1.2916 45.6527 0.41542C45.5603 0.39851 45.468 0.440769 45.4204 0.525289C44.7963 1.6353 44.105 3.0834 43.6209 4.2216C38.1637 3.4046 32.7345 3.4046 27.3892 4.2216C26.905 3.0581 26.1886 1.6353 25.5617 0.525289C25.5141 0.443589 25.4218 0.40133 25.3294 0.41542C20.2584 1.2888 15.4057 2.8186 10.8776 4.8978C10.8384 4.9147 10.8048 4.9429 10.7825 4.9795C1.57795 18.7309 -0.943561 32.1443 0.293408 45.3914C0.299005 45.4562 0.335386 45.5182 0.385761 45.5576C6.45866 50.0174 12.3413 52.7249 18.1147 54.5195C18.2071 54.5477 18.305 54.5139 18.3638 54.4378C19.7295 52.5728 20.9469 50.6063 21.9907 48.5383C22.0523 48.4172 21.9935 48.2735 21.8676 48.2256C19.9366 47.4931 18.0979 46.6 16.3292 45.5858C16.1893 45.5041 16.1781 45.304 16.3068 45.2082C16.679 44.9293 17.0513 44.6391 17.4067 44.3461C17.471 44.2926 17.5606 44.2813 17.6362 44.3151C29.2558 49.6202 41.8354 49.6202 53.3179 44.3151C53.3935 44.2785 53.4831 44.2898 53.5502 44.3433C53.9057 44.6363 54.2779 44.9293 54.6529 45.2082C54.7816 45.304 54.7732 45.5041 54.6333 45.5858C52.8646 46.6197 51.0259 47.4931 49.0921 48.2228C48.9662 48.2707 48.9102 48.4172 48.9718 48.5383C50.038 50.6034 51.2554 52.5699 52.5959 54.435C52.6519 54.5139 52.7526 54.5477 52.845 54.5195C58.6464 52.7249 64.529 50.0174 70.6019 45.5576C70.6551 45.5182 70.6887 45.459 70.6943 45.3942C72.1747 30.0791 68.2147 16.7757 60.1968 4.9823C60.1772 4.9429 60.1437 4.9147 60.1045 4.8978Z M23.7259 37.3253C20.2276 37.3253 17.3451 34.1136 17.3451 30.1693C17.3451 26.225 20.1717 23.0133 23.7259 23.0133C27.308 23.0133 30.1626 26.2532 30.1066 30.1693C30.1066 34.1136 27.28 37.3253 23.7259 37.3253Z M47.3178 37.3253C43.8196 37.3253 40.9371 34.1136 40.9371 30.1693C40.9371 26.225 43.7636 23.0133 47.3178 23.0133C50.9 23.0133 53.7545 26.2532 53.6986 30.1693C53.6986 34.1136 50.9 37.3253 47.3178 37.3253Z"/></g><g id="reddit-circle" viewBox="0 0 150 150"><path d="M74.8214286,7.10542736e-14 C116.144163,7.10542736e-14 149.642857,33.4986946 149.642857,74.8214286 C149.642857,116.144163 116.144163,149.642857 74.8214286,149.642857 C33.4986946,149.642857 1.42108547e-14,116.144163 1.42108547e-14,74.8214286 C1.42108547e-14,33.4986946 33.4986946,7.10542736e-14 74.8214286,7.10542736e-14 Z M106.071429,29.6428571 C103.035714,29.6428571 100.357143,31.4285714 99.1071429,34.0178571 L80.9821429,30.1785714 C80.4464286,30.0892857 79.9107143,30.1785714 79.5535714,30.4464286 C79.1071429,30.7142857 78.8392857,31.1607143 78.75,31.6964286 L73.2142857,57.7678571 C61.6071429,58.125 51.1607143,61.6071429 43.5714286,67.0535714 C41.6071429,65.1785714 38.9285714,64.0178571 35.9821429,64.0178571 C29.9107143,64.0178571 25.0892857,68.9285714 25.0892857,74.9107143 C25.0892857,79.375 27.7678571,83.125 31.5178571,84.8214286 C31.3392857,85.8928571 31.25,86.9642857 31.25,88.125 C31.25,104.910714 50.8035714,118.571429 74.9107143,118.571429 C99.0178571,118.571429 118.571429,105 118.571429,88.125 C118.571429,87.0535714 118.482143,85.8928571 118.303571,84.8214286 C122.053571,83.125 124.732143,79.2857143 124.732143,74.8214286 C124.732143,68.75 119.821429,63.9285714 113.839286,63.9285714 C110.892857,63.9285714 108.214286,65.0892857 106.25,66.9642857 C98.75,61.6071429 88.4821429,58.125 77.0535714,57.6785714 L82.0535714,34.2857143 L98.3035714,37.7678571 C98.4821429,41.875 101.875,45.1785714 106.071429,45.1785714 C110.357143,45.1785714 113.839286,41.6964286 113.839286,37.4107143 C113.839286,33.125 110.357143,29.6428571 106.071429,29.6428571 Z M59.2857143,100.357143 C62.6785714,103.75 69.8214286,104.910714 74.9107143,104.910714 C80,104.910714 87.2321429,103.75 90.5357143,100.357143 C91.3392857,99.5535714 92.5892857,99.5535714 93.3928571,100.357143 C94.1071429,101.160714 94.1071429,102.410714 93.3928571,103.214286 C88.1265133,108.48063 78.2007941,108.915029 75.0667068,108.928241 L74.9107143,108.928571 C71.875,108.928571 61.6964286,108.482143 56.4285714,103.214286 C55.625,102.410714 55.625,101.160714 56.4285714,100.357143 C57.2321429,99.5535714 58.4821429,99.5535714 59.2857143,100.357143 Z M91.9642857,74.9107143 C96.25,74.9107143 99.7321429,78.3928571 99.7321429,82.6785714 C99.7321429,86.875 96.25,90.4464286 91.9642857,90.4464286 C87.6785714,90.4464286 84.1964286,86.9642857 84.1964286,82.6785714 C84.1964286,78.3928571 87.6785714,74.9107143 91.9642857,74.9107143 Z M57.6785714,74.8214286 C61.9642857,74.8214286 65.4464286,78.3035714 65.4464286,82.5892857 C65.4464286,86.875 61.9642857,90.3571429 57.6785714,90.3571429 C53.3928571,90.4464286 49.9107143,86.875 49.9107143,82.5892857 C49.9107143,78.3035714 53.3928571,74.8214286 57.6785714,74.8214286 Z"/></g><g id="vk" transform="translate(2.0, 8.0)"><path fill-rule="evenodd" d="M29.9057 10.2764s4.7435-6.653 5.2148-8.8396C35.2775.656 34.932.2185 34.115.2185H30c-.9424 0-1.288.406-1.5707.9996 0 0-2.2248 4.714-4.932 7.6842-.869.9603-1.3108 1.2493-1.7905 1.2493-.387 0-.5654-.3207-.5654-1.187V1.3744C21.1414.3123 21.0157 0 20.1362 0h-6.5968c-.5027 0-.817.2906-.817.687 0 1.0002 1.5394 1.226 1.5394 3.9358v5.591c0 1.1247-.0628 1.562-.597 1.562-1.4134 0-4.7747-4.8415-6.6594-10.339C6.6284.3124 6.22 0 5.1518 0h-4.115C.4398 0 0 .406 0 .9993 0 2.0926 1.288 7.1528 6.3456 13.931c3.3927 4.5603 7.8534 7.028 11.8743 7.028 2.4502 0 3.047-.406 3.047-1.437v-3.4983c0-.8746.3456-1.2494.8482-1.2494.5654 0 1.5634.1807 3.8953 2.4676 2.7644 2.6238 2.953 3.717 4.461 3.717h4.6175c.4713 0 .911-.2187.911-.9995 0-1.031-1.3508-2.8737-3.424-5.0603-.8482-1.1244-2.2304-2.3425-2.6703-2.9047-.628-.656-.4397-1.031 0-1.718"/></g><g id="snapchat" transform="translate(3.0, 2.0)"><path fill-rule="evenodd" d="M18.2272 33.907c-.0928 0-.184-.0027-.275-.007h-.0003c-.0582.0044-.119.007-.1798.007-2.1327 0-3.5015-.971-4.8252-1.9102-.914-.648-1.7765-1.2598-2.7928-1.4296-.496-.0824-.9894-.1242-1.4664-.1242-.8593 0-1.5373.133-2.0322.2303-.3008.059-.5602.1097-.7574.1097-.206 0-.4292-.0447-.5262-.3773-.0844-.288-.1453-.5673-.204-.8373-.1512-.6948-.2585-1.1222-.5487-1.167-3.3826-.524-4.3507-1.239-4.5666-1.7463-.0305-.0724-.048-.145-.052-.217-.011-.195.1265-.367.3184-.3984 5.2-.8592 7.5318-6.192 7.6286-6.4186.0026-.0062.0054-.0123.0082-.0185.3183-.6472.3806-1.209.186-1.6695-.357-.8438-1.5207-1.2147-2.291-1.46-.1886-.0598-.3673-.1163-.5082-.1722-1.5373-.61-1.6653-1.2358-1.6048-1.555.103-.5435.827-.9223 1.4125-.9223.1605 0 .3018.0286.4207.0842.6915.3252 1.315.4898 1.8526.4898.743 0 1.0673-.3133 1.107-.3544-.019-.353-.0423-.7218-.0662-1.1024-.155-2.4668-.3468-5.532.431-7.2817C11.2263.414 16.1695.0067 17.629.0067c.0375 0 .64-.0065.64-.0065L18.3552 0c1.463 0 6.417.408 8.7492 5.6557.778 1.7506.5856 4.8184.4304 7.2834l-.0065.1073c-.0214.3433-.0423.677-.0596.9963.037.038.3353.3263 1.009.352h.0007c.512-.0196 1.1003-.1833 1.746-.487.1892-.0885.3994-.107.5425-.107.2185 0 .44.0423.624.1192l.011.0046c.5224.1857.8644.553.8718.937.0067.3613-.2682.9047-1.617 1.4394-.1398.055-.3185.112-.5078.1723-.771.2457-1.9347.6162-2.2913 1.46-.195.46-.1325 1.0216.1856 1.669.003.0063.006.0124.0086.019.0967.2263 2.4265 5.5576 7.6285 6.418.192.0316.3293.2035.3187.3986-.0044.073-.022.1467-.0532.2182-.2145.5037-1.182 1.2177-4.5656 1.7423-.2765.0428-.3836.4042-.5486 1.162-.06.276-.1207.547-.2043.832-.072.247-.2256.3628-.484.3628h-.042c-.1794 0-.4342-.0322-.7572-.0958-.573-.1124-1.2152-.216-2.0324-.216-.477 0-.971.0418-1.467.1242-1.0152.1698-1.8772.7804-2.7895 1.4276-1.3263.9412-2.695 1.9122-4.8283 1.9122"/></g><g id="ea-access-logo" stroke="none" stroke-width="1" fill-rule="evenodd"><path d="M32.6160524,24.7934049 L29.4850145,24.7934049 L27.8287342,22.1396011 L22.9824442,22.1396011 L24.6403371, 19.4860278 L26.1703807,19.4860278 L24.3240543,16.5313936 L19.1607905,24.7934049 L5.38371726,24.7934049 L8.70088506, 19.4860278 L6.26599176,19.4860278 L7.9231935,16.8326847 L18.5685378,16.8326847 L16.9101843,19.4860278 L11.8323836, 19.4860278 L10.1735694,22.1396011 L17.6887973,22.1396011 L24.3240543,11.5225435 L32.6160524,24.7934049 Z M20.5010184, 14.1772686 L9.58085597,14.1772686 L11.2405917,11.5225435 L22.1605238,11.5225435 L20.5010184,14.1772686 Z M26.5202958, 11.6568346 L26.2565349,11.6568346 L26.2565349,11.5225435 L26.9432347,11.5225435 L26.9432347,11.6568346 L26.6794738, 11.6568346 L26.6794738,12.3285203 L26.5202958,12.3285203 L26.5202958,11.6568346 Z M27.2291101,12.3285203 L27.0800679, 12.3285203 L27.0800679,11.5225435 L27.3088143,11.5225435 L27.5122211,12.0977147 L27.7147066,11.5225435 L27.9471387, 11.5225435 L27.9471387,12.3285203 L27.8001697,12.3285203 L27.8001697,11.6766442 L27.5790252,12.3285203 L27.4502546, 12.3285203 L27.2291101,11.6766442 L27.2291101,12.3285203 Z M18.9433317,36.209529 C9.42951018,36.209529 1.71755577, 28.4980421 1.71755577,18.9852579 C1.71755577,9.47270413 9.42951018,1.75914409 18.9433317,1.75914409 C28.4553104, 1.75914409 36.166113,9.47270413 36.166113,18.9852579 C36.166113,28.4980421 28.4553104,36.209529 18.9433317, 36.209529 L18.9433317,36.209529 Z M18.9993089,0 C8.50623181,0 0,8.50640723 0,19.0002303 C0,29.4940535 8.50623181, 38 18.9993089,38 C29.4928468,38 38,29.4940535 38,19.0002303 C38,8.50640723 29.4928468,0 18.9993089,0 L18.9993089, 0 Z"/></g><g id="trophy" fill-rule="evenodd"><path d="M5.36846407 14.1923166C4.0178077 13.0997297 3.22722855 11.4765637 3.19942932 9.74320463L3.11255674 6.22444015 6.62954515 6.22444015 6.58321311 3.17138996 6.58282701 3.13787645.984989169 3.13787645C.433328938 3.13787645-.0108409463 3.59100386.000201524709 4.14258687L.113251718 9.78861004C.15564554 12.4356371 1.36908183 14.9274517 3.42699689 16.5919305L9.32506639 21.3634363C8.43695828 19.595251 7.76143705 17.7211969 7.32583859 15.7757915L5.36846407 14.1923166zM39.7929737 9.14043243L39.6815452 4.10105019C39.6697305 3.56576062 39.2322787 3.13788417 38.6968347 3.13788417L33.037298 3.13788417 33.0857923 6.22444788 36.6221629 6.22444788 36.7067961 9.18938996C36.7345953 10.9337915 35.9907343 12.585529 34.6665645 13.7208958L32.7577614 15.3578069C32.3878 17.300973 31.7801552 19.1815907 30.9595374 20.9652201L36.675522 16.064139C38.6928193 14.3347954 39.8352903 11.797112 39.7929737 9.14043243M25.7083405 31.9641699L22.0325876 28.6610811 23.3532054 27.5155212C28.2944409 23.2286486 31.0878772 16.9769112 30.9837845 10.4359073L30.8552903 1.47876448C30.8424718.658378378 30.1736687 0 29.3531282 0L10.3132054 0C9.47459535 0 8.79837913.686563707 8.8108682 1.52501931L8.93922855 10.7864865C9.04332122 17.327027 12.0338231 23.4874903 17.1085722 27.6146718L18.4654062 28.7179151 14.8963714 32.136139C12.9515065 33.99861 11.7904255 36.4049421 11.6272594 39.0516602 11.5999235 39.4944402 11.9500394 39.8694208 12.3935915 39.8694208L28.4335143 39.8694208C28.8863328 39.8694208 29.2403869 39.479305 29.197993 39.0284942 28.94641 36.3516602 27.7068733 33.7603089 25.7083405 31.9641699"/></g><g id="ea-play-circle" fill="none" fill-rule="evenodd" viewBox="0 0 600 600"><defs><polygon id="eaplay_logo_white-a" points="0 0 600 0 600 600 0 600"/></defs><mask id="eaplay_logo_white-b" fill="#fff"><use xmlns:xlink="http://www.w3.org/1999/xlink" xlink:href="#eaplay_logo_white-a"/></mask><path fill="#FF4747" d="M468.5908,391.4932 L442.3788,349.6502 L365.8448,349.6502 L392.0978,307.7292 L416.2778,307.7292 L387.0508,261.0652 L305.5258,391.4932 L88.0198,391.4932 L140.3908,307.7292 L101.9368,307.7292 L128.0748,265.8102 L296.2048,265.8102 L270.0488,307.7292 L189.8618,307.7292 L163.6488,349.6502 L282.2698,349.6502 L387.0508,181.9522 L518.0078,391.4932 L468.5908,391.4932 Z M180.4658,181.9522 L352.9258,181.9522 L326.7138,223.8912 L154.2708,223.8912 L180.4658,181.9522 Z M299.9908,0.0002 C134.3168,0.0002 -0.0002,134.3272 -0.0002,300.0082 C-0.0002,465.7292 134.3168,600.0002 299.9908,600.0002 C465.6598,600.0002 599.9998,465.7292 599.9998,300.0082 C599.9998,134.3272 465.6598,0.0002 299.9908,0.0002 L299.9908,0.0002 Z" mask="url(#eaplay_logo_white-b)"/></g></defs></svg>