<svg xmlns="http://www.w3.org/2000/svg"><g id="error"><path fill="#CC3F29" d="M13,0 C5.81854839,0 0,5.81854839 0,13 C0,20.1814516 5.81854839,26 13,26 C20.1814516,26 26,20.1814516 26,13 C26,5.81854839 20.1814516,0 13,0 Z"/><path fill="#F3F3F3" d="M19.3741935,16.4125 C19.6205645,16.658871 19.6205645,17.0572581 19.3741935,17.303629 L17.2983871,19.3741935 C17.0520161,19.6205645 16.653629,19.6205645 16.4072581,19.3741935 L13,15.9354839 L9.5875,19.3741935 C9.34112903,19.6205645 8.94274194,19.6205645 8.69637097,19.3741935 L6.62580645,17.2983871 C6.37943548,17.0520161 6.37943548,16.653629 6.62580645,16.4072581 L10.0645161,13 L6.62580645,9.5875 C6.37943548,9.34112903 6.37943548,8.94274194 6.62580645,8.69637097 L8.7016129,6.62056452 C8.94798387,6.37419355 9.34637097,6.37419355 9.59274194,6.62056452 L13,10.0645161 L16.4125,6.62580645 C16.658871,6.37943548 17.0572581,6.37943548 17.303629,6.62580645 L19.3794355,8.7016129 C19.6258065,8.94798387 19.6258065,9.34637097 19.3794355,9.59274194 L15.9354839,13 L19.3741935,16.4125 Z"/></g><g id="reload" fill-rule="evenodd"><circle cx="13" cy="13" r="13"/><path fill="#F3F3F3" fill-rule="nonzero" d="M13.0128427,6 C14.8833387,6.00337025 16.581629,6.74045836 17.8354758,7.93869932 L18.8435605,6.93061546 C19.2703347,6.50386984 20,6.80611153 20,7.40963523 L20,11.1935555 C20,11.5676883 19.6967137,11.8709744 19.3225806,11.8709744 L15.5386573,11.8709744 C14.9351331,11.8709744 14.6328911,11.1413096 15.0596371,10.7145358 L16.2380645,9.53610931 C15.3669032,8.7204124 14.2396492,8.26857405 13.0420565,8.25824342 C10.4340484,8.23571924 8.23568145,10.3463022 8.25823387,13.0408766 C8.27962903,15.5970318 10.3519677,17.7419373 13,17.7419373 C14.1608427,17.7419373 15.2579798,17.3276393 16.1225927,16.5689867 C16.2564677,16.4515392 16.4586492,16.4586803 16.5845927,16.5845955 L17.7040847,17.7040865 C17.8416008,17.8416026 17.8347984,18.0658 17.6904798,18.1961466 C16.44925,19.317303 14.8043629,20 13,20 C9.13402419,20 6,16.8660066 6,13.0000621 C6,9.13852093 9.15129839,5.99309606 13.0128427,6 Z"/></g></svg>