<svg xmlns="http://www.w3.org/2000/svg"><defs><g id="chevron" viewBox="0 0 8 5"><path d="M7 0.458703L4 3.7063L1 0.458703"/></g><g id="shape" viewBox="0 0 42 42"><path fill-rule="evenodd" clip-rule="evenodd" d="M23.3596 15.1584C23.6579 15.0528 23.9737 15.0176 24.2895 15V15.0176C24.6052 15 24.9561 15 25.2719 15.0704C25.9035 15.2112 26.4824 15.5104 26.9737 16.0032C28.3421 17.3584 28.3421 19.576 26.9737 20.9488L24.3421 23.5887C23.2719 24.6799 22.0439 25.0143 21.1667 24.9615C20.2895 24.9087 19.693 24.5215 19.693 24.5215C19.4172 24.3643 19.246 24.0715 19.2438 23.7533C19.2416 23.4351 19.4088 23.1399 19.6824 22.9789C19.956 22.8179 20.2944 22.8155 20.5702 22.9727C20.5702 22.9727 20.8333 23.1839 21.2895 23.2015C21.7456 23.2191 22.3772 23.1487 23.1491 22.3743L25.7807 19.7344C26.4649 19.0304 26.4649 17.8864 25.7807 17.2C25.2895 16.6896 24.5351 16.6016 23.921 16.8128C23.6754 16.9008 23.4474 17.0064 23.2544 17.2C23.0617 17.5049 22.7028 17.6609 22.3493 17.5933C21.9957 17.5257 21.7192 17.2483 21.6518 16.8936C21.5844 16.5389 21.7399 16.1789 22.0439 15.9856C22.4298 15.5984 22.886 15.3344 23.3596 15.1584ZM17.6579 20.3856C18.693 19.3296 19.9035 19.0304 20.7807 19.0656V19.0304C21.6579 19.0656 22.2544 19.4176 22.2544 19.4176C22.5916 19.5163 22.8376 19.8072 22.8797 20.1571C22.9217 20.507 22.7516 20.8483 22.4474 21.0245C22.1431 21.2007 21.7635 21.1778 21.4825 20.9664C21.4825 20.9664 21.1491 20.8256 20.6579 20.808C20.1667 20.7904 19.5526 20.8784 18.8509 21.5824L16.2193 24.2223C15.5351 24.9263 15.5351 26.0703 16.2193 26.7567C16.7105 27.2671 17.4649 27.3551 18.0789 27.1439C18.3246 27.0559 18.5526 26.9503 18.7456 26.7567C18.9383 26.4518 19.2972 26.2958 19.6507 26.3634C20.0043 26.431 20.2808 26.7084 20.3482 27.0631C20.4156 27.4178 20.2601 27.7778 19.9561 27.9711C19.5702 28.3583 19.114 28.6223 18.6404 28.7983C17.4123 29.2383 16.0088 28.9567 15.0263 27.9711C13.6579 26.6159 13.6579 24.3983 15.0263 23.0255L17.6579 20.3856Z"/></g><g id="plus" viewBox="0 0 32 32"><path fill-rule="evenodd" clip-rule="evenodd" d="M16 31C24.2843 31 31 24.2843 31 16C31 7.71573 24.2843 1 16 1C7.71573 1 1 7.71573 1 16C1 24.2843 7.71573 31 16 31Z"/><path d="M16.375 10.9641V21.9467" stroke-width="2" stroke-linecap="round"/><path d="M10.9641 16.375H21.9467" stroke-width="2" stroke-linecap="round"/></g><g id="download" viewBox="0 0 16 20"><path d="M6.71513 15.1908L7.42475 15.4847L8.13438 15.1908L13.9397 9.38553C14.3314 8.9938 14.3314 8.358 13.9397 7.96628C13.5479 7.57455 12.9121 7.57455 12.5204 7.96628L8.42875 12.0579V1.00353C8.42875 0.449399 7.97935 0 7.42522 0C6.87108 0 6.42168 0.449399 6.42168 1.00353V12.0584L2.32956 7.96628C1.93784 7.57455 1.30203 7.57455 0.91031 7.96628C0.518585 8.358 0.518585 8.9938 0.91031 9.38553L6.71513 15.1908Z"/><path d="M14.3225 17.9929H1.00353C0.449399 17.9929 0 18.4423 0 18.9965C0 19.5506 0.449399 20 1.00353 20H14.3225C14.8767 20 15.3261 19.5506 15.3261 18.9965C15.3261 18.4423 14.8771 17.9929 14.3225 17.9929Z"/></g><g id="compare" stroke-width="0" viewBox="0 0 17 17"><path d="M15.106 0H5.6872C5.18503 0.000464726 4.70355 0.199128 4.34846 0.552385C3.99337 0.905642 3.79368 1.38463 3.79321 1.88421V2.98384H5.20466V1.88421C5.20466 1.75689 5.2555 1.63479 5.34599 1.54476C5.43649 1.45474 5.55922 1.40416 5.6872 1.40416H15.106C15.1693 1.40416 15.2321 1.41658 15.2906 1.4407C15.3492 1.46483 15.4024 1.50019 15.4472 1.54476C15.492 1.58934 15.5275 1.64226 15.5518 1.7005C15.576 1.75874 15.5885 1.82117 15.5885 1.88421V11.2543C15.5885 11.3174 15.576 11.3798 15.5518 11.4381C15.5275 11.4963 15.492 11.5492 15.4472 11.5938C15.4024 11.6384 15.3492 11.6737 15.2906 11.6979C15.2321 11.722 15.1693 11.7344 15.106 11.7344H14.0888V13.1386H15.106C15.6081 13.1381 16.0896 12.9394 16.4447 12.5862C16.7998 12.2329 16.9995 11.7539 16.9999 11.2543V1.88421C16.9995 1.38463 16.7998 0.905642 16.4447 0.552385C16.0896 0.199128 15.6081 0.000464726 15.106 0V0Z"/><path d="M11.3127 3.86145H1.89399C1.39181 3.86191 0.910341 4.06058 0.555251 4.41384C0.200161 4.76709 0.000467138 5.24608 0 5.74566L0 15.1158C0.000467138 15.6154 0.200161 16.0944 0.555251 16.4476C0.910341 16.8009 1.39181 16.9995 1.89399 17H11.3127C11.8149 16.9995 12.2964 16.8009 12.6515 16.4476C13.0066 16.0944 13.2063 15.6154 13.2067 15.1158V5.74566C13.2063 5.24608 13.0066 4.76709 12.6515 4.41384C12.2964 4.06058 11.8149 3.86191 11.3127 3.86145ZM11.7953 15.1158C11.7953 15.1788 11.7828 15.2413 11.7586 15.2995C11.7343 15.3577 11.6988 15.4107 11.654 15.4552C11.6091 15.4998 11.556 15.5352 11.4974 15.5593C11.4389 15.5834 11.3761 15.5958 11.3127 15.5958H1.89399C1.83062 15.5958 1.76787 15.5834 1.70933 15.5593C1.65078 15.5352 1.59759 15.4998 1.55278 15.4552C1.50797 15.4107 1.47243 15.3577 1.44818 15.2995C1.42393 15.2413 1.41145 15.1788 1.41145 15.1158V5.74566C1.41145 5.61834 1.46229 5.49624 1.55278 5.40621C1.64327 5.31619 1.76601 5.26561 1.89399 5.26561H11.3127C11.4407 5.26561 11.5635 5.31619 11.654 5.40621C11.7444 5.49624 11.7953 5.61834 11.7953 5.74566V15.1158Z"/><path d="M7.12155 7.2569H6.02415V9.8897H3.37769V10.9823H6.02415V13.6151H7.12155V10.9823H9.76801V9.8897H7.12155V7.2569Z"/></g><g id="code" viewBox="0 0 16 13"><path d="M5.10491 10.0472C5.22098 9.93116 5.22098 9.75259 5.10491 9.63652L1.59598 6.12759L5.10491 2.61866C5.22098 2.50259 5.22098 2.32402 5.10491 2.20795L4.65848 1.76152C4.54241 1.64544 4.36384 1.64544 4.24777 1.76152L0.0870536 5.92223C-0.0290179 6.0383 -0.0290179 6.21687 0.0870536 6.33295L4.24777 10.4937C4.36384 10.6097 4.54241 10.6097 4.65848 10.4937L5.10491 10.0472ZM10.3817 0.520446C10.4263 0.368661 10.3371 0.207945 10.1853 0.163302L9.6317 0.0115153C9.48884 -0.0331272 9.32813 0.0561606 9.28348 0.207946L5.95312 11.7347C5.90848 11.8865 5.99777 12.0472 6.14955 12.0919L6.70313 12.2437C6.84598 12.2883 7.0067 12.199 7.05134 12.0472L10.3817 0.520446ZM16.2478 6.33295C16.3638 6.21687 16.3638 6.0383 16.2478 5.92223L12.0871 1.76152C11.971 1.64544 11.7924 1.64544 11.6763 1.76152L11.2299 2.20795C11.1138 2.32402 11.1138 2.50259 11.2299 2.61866L14.7388 6.12759L11.2299 9.63652C11.1138 9.75259 11.1138 9.93116 11.2299 10.0472L11.6763 10.4937C11.7924 10.6097 11.971 10.6097 12.0871 10.4937L16.2478 6.33295Z"/></g><g id="minus" viewBox="0 0 42 42"><path fill-rule="evenodd" clip-rule="evenodd" d="M21 41C32.0457 41 41 32.0457 41 21C41 9.9543 32.0457 1 21 1C9.9543 1 1 9.9543 1 21C1 32.0457 9.9543 41 21 41Z"/><path d="M13.3333 20H19.6667H22.3333H28.6667C29.403 20 30 20.5969 30 21.3333C30 22.0697 29.403 22.6667 28.6667 22.6667H22.3333H19.6667H13.3333C12.597 22.6667 12 22.0697 12 21.3333C12 20.5969 12.597 20 13.3333 20Z" fill="black"/></g><g id="portrait" viewBox="0 0 570 570"><path d="M570,570H0q1.53-7.66,3.08-15.33c.2-1,.53-1.92.77-2.88,3.93-16.46,7.73-32.95,11.8-49.37,5.75-23.2,14-45.43,26.79-65.74,2.87-4.56,6.12-9.45,10.4-12.45a401.11,401.11,0,0,1,35.31-22.32c11-6.13,22.61-11.27,34.18-16.33,14-6.11,28.2-11.57,42.22-17.54,7.45-3.17,16.06-1.2,23.16-5.58,3-1.84,6.18-3.47,8.76-5.78,4.35-3.9,6.9-10,13.61-11,.51-.08,1.3-.85,1.3-1.3,0-6,2.6-12.09-1.46-17.81A76.12,76.12,0,0,1,196.78,295c-.23-1.35-1.7-2.8-3-3.61-3.69-2.35-5.74-5.37-5.47-9.87a13.11,13.11,0,0,0-.36-5.32c-1.79-4.77-4.72-9.24-5.79-14.14a125.49,125.49,0,0,1-2.49-21.29c-.43-9.92,2-11.86,11.62-10.74.26,0,.56-.31,1-.6a10.9,10.9,0,0,0,.25-1.78c-.2-16.27-.63-32.55-.59-48.83,0-14.25.17-28.59,6.45-41.89a41.3,41.3,0,0,1,4.58-7,35.76,35.76,0,0,1,3.78-3.81c1.26-1.27,2-3.07,3.33-4.31,2.39-2.26,5.1-4.18,7.67-6.26,1-.81,2.25-2.54,2.92-2.34,5.63,1.73,5.32-3.1,6.77-5.71,1.43.08,3.15.73,4,.14,3.49-2.45,6.68-5.3,10-7.94a9.86,9.86,0,0,1,2.64-1.41c3.17-1.19,6.38-2.27,9.55-3.45,1.51-.57,2.93-1.6,4.48-1.85,3.89-.63,8-.34,11.72-1.48,13.11-4,25.95-1.32,38.78,1.07,3.23.6,6.17,2.63,9.33,3.74,1.19.41,2.65.06,4,.06,7.8,1.8,11.5,11.28,19.8,11.41,1.73,2.11,3.72,5.79,4.74,5.54,3.85-.94,4.95,1.67,6.82,3.63,1.29,1.33,2.86,2.38,4.25,3.63,2,1.78,3.9,3.63,5.84,5.45.37,1.11,2.28.83,2.62,1.44,3.13,5.5,7.49,10.88,8.59,16.83a230.89,230.89,0,0,1,3.19,34.88c.5,16.76.13,33.54.13,50.33,10.68-.14,12.44,1.65,12.39,11.34,0,.33,0,.67,0,1-1.09,9.82-.38,19.91-6.74,28.72-2,2.72-1.87,7.24-1.93,10.95a10.8,10.8,0,0,1-5.54,9.84c-1.19.74-2.71,1.95-2.9,3.13-2,12.27-7.64,22.81-13.67,33.49-2.46,4.37-.7,11.13-.78,16.81,0,.29.67.8,1.08.87,6.89,1.08,9.59,7.2,13.9,11.41,1.83,1.79,3.81,4.16,6.08,4.66,6.13,1.34,11.6,5.74,18.45,4.07,1.11-.27,2.56.6,3.78,1.1q10.5,4.37,21,8.82c16.68,7.09,33.67,13.54,49.91,21.52,12.3,6,23.34,14.59,35.46,21,11,5.89,17.68,15.25,23.51,25.58,15,26.56,22.07,55.69,28,85.26C562.74,542.9,566.63,556.4,570,570Z"/></g><g id="team-logo" viewBox="0 0 150 150"><path d="M74.751 0C58.4236 0 43.9806 2.08714 31.8155 6.22565C21.8807 9.54123 16.0844 13.4651 13.5202 15.5045C11.7547 16.885 10.5887 18.8924 10.2642 21.11C9.4183 27.0156 8.99581 32.9742 9.00003 38.9401C9.00003 84.6784 32.5192 126.779 70.374 148.819C71.7033 149.585 73.2107 149.989 74.745 149.989C76.2794 149.989 77.7868 149.585 79.1161 148.819C116.983 126.922 140.502 84.8692 140.502 39.0952C140.515 33.1091 140.093 27.1301 139.238 21.2054C138.924 19.0055 137.775 17.011 136.03 15.6357C131.39 11.9862 113.25 0 74.751 0Z" fill="white"/><path opacity="0.5" d="M74.751 5.2596C111.723 5.2596 128.575 16.4705 132.762 19.7861C133.453 20.3315 133.91 21.121 134.038 21.9925C134.841 27.6578 135.24 33.3732 135.23 39.0952C135.242 84.3444 111.568 124.036 76.4804 144.311C75.9538 144.612 75.3577 144.771 74.751 144.771C74.1444 144.771 73.5482 144.612 73.0217 144.311C37.9577 123.857 14.2596 84.3444 14.2596 38.9401C14.2541 33.2262 14.6527 27.519 15.4523 21.8613C15.5902 20.9777 16.054 20.1778 16.7523 19.6191C20.9862 16.3155 37.8861 5.30731 74.751 5.30731V5.2596ZM74.751 0.0477061C58.4236 0.0477061 43.9806 2.13485 31.8155 6.27336C21.8807 9.54123 16.0844 13.4651 13.5202 15.5045C11.7547 16.885 10.5887 18.8924 10.2642 21.11C9.4183 27.0156 8.99581 32.9742 9.00003 38.9401C9.00003 84.6784 32.5192 126.779 70.374 148.819C71.7033 149.585 73.2107 149.989 74.745 149.989C76.2794 149.989 77.7868 149.585 79.1161 148.819C116.983 126.922 140.502 84.8692 140.502 39.0952C140.515 33.1091 140.093 27.1301 139.238 21.2054C138.924 19.0055 137.775 17.011 136.03 15.6357C131.39 11.9862 113.25 0 74.751 0V0.0477061Z" fill="#5D6768"/><path opacity="0.6" d="M23.6697 25.5824C23.0096 30.0004 22.6788 34.4613 22.6798 38.9282C22.627 54.056 26.2491 68.9702 33.2348 82.3885C29.1752 69.7021 27.1269 56.4583 27.1642 43.1383C27.163 37.9067 27.4937 32.6804 28.1541 27.4907C28.1541 27.4907 38.1008 15.8027 65.0548 14.5981V14.4908C34.6899 14.4908 23.6697 25.5824 23.6697 25.5824Z" fill="#5D6768"/><g opacity="0.3"><path d="M134.086 21.9926C133.968 21.1204 133.514 20.3287 132.821 19.7862C128.635 16.4706 111.735 5.25964 74.8107 5.25964V144.8C75.4162 144.798 76.0112 144.642 76.54 144.347C111.568 124.036 135.302 84.3445 135.302 39.0952C135.309 33.3725 134.903 27.6567 134.086 21.9926Z" fill="#5D6768"/></g><path d="M134.085 21.9926C133.968 21.1204 133.514 20.3287 132.821 19.7862C128.635 16.4706 111.735 5.25964 74.8106 5.25964V5.52203C109.183 6.30918 125.105 16.9357 129.172 20.1559C129.859 20.7156 130.313 21.5104 130.448 22.3861C131.257 28.1189 131.655 33.902 131.641 39.6915C131.641 84.4518 108.813 123.809 74.7867 144.645C75.3923 144.643 75.9873 144.487 76.5161 144.192C111.568 124.036 135.302 84.3445 135.302 39.0952C135.309 33.3725 134.903 27.6567 134.085 21.9926Z" fill="#5D6768"/></g><g id="tooltip" viewBox="0 0 12 12"><path fill-rule="evenodd" clip-rule="evenodd" d="M0 6.00002C0 2.76916 2.50147 0.150024 5.5872 0.150024C7.06901 0.150024 8.49014 0.766362 9.53794 1.86345C10.5857 2.96054 11.1744 4.44851 11.1744 6.00002C11.1744 9.23089 8.67292 11.85 5.5872 11.85C2.50147 11.85 0 9.23089 0 6.00002ZM0.859574 5.99993C0.859574 8.73374 2.97621 10.9499 5.5872 10.9499C6.84105 10.9499 8.04354 10.4284 8.93014 9.5001C9.81674 8.5718 10.3148 7.31275 10.3148 5.99993C10.3148 3.26612 8.1982 1.04993 5.5872 1.04993C2.97621 1.04993 0.859574 3.26612 0.859574 5.99993Z"/><path d="M5.58726 4.65002C5.34989 4.65002 5.15747 4.81792 5.15747 5.02502V8.77502C5.15747 8.98213 5.34989 9.15002 5.58726 9.15002C5.82462 9.15002 6.01704 8.98213 6.01704 8.77502V5.02502C6.01704 4.81792 5.82462 4.65002 5.58726 4.65002Z"/><path d="M5.58726 2.84998C5.34989 2.84998 5.15747 3.05145 5.15747 3.29998C5.15747 3.5485 5.34989 3.74998 5.58726 3.74998C5.82462 3.74998 6.01704 3.5485 6.01704 3.29998C6.01704 3.05145 5.82462 2.84998 5.58726 2.84998Z"/></g></defs></svg>