<svg xmlns="http://www.w3.org/2000/svg"><defs><g id="loading"><path d="M15,0.393V2.727a9.75,9.75,0,1,1-6,0V0.393A12,12,0,1,0,15,.393Z"/></g><g id="slide-right-toggle" viewBox="0 0 26.742 27.121"><path d="M0 20h7.143v-2.859H0zm0-8.571h15.714V8.571H0zm0-8.572h20V0H0z" fill-rule="evenodd" data-name="Layer 1"/><path d="M19.172 25.487l1.635 1.634 5.6-5.6a1.154 1.154 0 0 0 0-1.634l-5.6-5.6-1.635 1.634 4.781 4.78zm6.2-4.78"/></g><g id="slide-left-toggle" viewBox="0 0 26.742 27.121"><path d="M26.742 15.927l-1.634-1.634-5.6 5.6a1.154 1.154 0 0 0 0 1.634l5.6 5.6 1.634-1.634-4.78-4.78zm-6.194 4.78"/><path d="M0 20h7.143v-2.859H0zm0-8.571h15.714V8.571H0zm0-8.572h20V0H0z" fill-rule="evenodd"/></g></defs></svg>