<svg xmlns="http://www.w3.org/2000/svg"><defs><g id="xbox"><path d="M16 9.38a9.83 9.83 0 0 0-5.23-1.61 9.62 9.62 0 0 0-.89.6A10.05 10.05 0 0 1 16 6.29a9.93 9.93 0 0 1 10 9.85A9.74 9.74 0 0 1 23.22 23a9.45 9.45 0 0 0 .63-.71c.39-3.56-3.85-8.7-5.18-10.29l.12-.19a7.58 7.58 0 0 1 4-2.84 10 10 0 0 0-1.6-1.2A9.83 9.83 0 0 0 16 9.38zm0 4.92c-.38.31-.74.61-1.09.91-2.58 2.25-5.91 5.25-5.83 8.05a10.11 10.11 0 0 0 13.84 0c0-2.8-3.25-5.8-5.83-8.06-.35-.3-.71-.6-1.09-.91zM9.15 9a9.75 9.75 0 0 0-1 13.27C7.76 18.72 12 13.59 13.32 12l-.12-.19A7.58 7.58 0 0 0 9.15 9z"/></g><g id="ps"><path d="M12.71 5.89a1.13 1.13 0 0 1 .36.07h.26c.2.07.41.1.61.17h.27l.26.09a4.3 4.3 0 0 0 .53.18 5.92 5.92 0 0 1 .75.2 4.83 4.83 0 0 1 .69.21h.23v.05h.19l.24.14.47.14c.18.06.36.12.54.17l.39.13.28.1.19.07.28.1.26.11.21.08.33.15.34.19h.06a4.14 4.14 0 0 0 .47.28l.24.16a6.3 6.3 0 0 1 .87.72v.06a7.83 7.83 0 0 1 .53.71l.13.24.08.23.12.26a6.25 6.25 0 0 1 .23.86v.47a11.28 11.28 0 0 1 0 2.18v.83a3.92 3.92 0 0 0-.13.4l-.1.28c0 .09-.09.18-.15.27v.05l-.1.16-.17.25-.08.09-.07.1-.24.23-.28.19-.13.09h-.07a3.44 3.44 0 0 1-1.88.18c-.24-.08-.49-.14-.73-.24l-.25-.09v-.1h-.12V17h-.06v-7a1 1 0 0 0-1.13-.87l-.14.09a1.11 1.11 0 0 0-.3.89v15.81h-.17l.11-.09a1 1 0 0 1-.58-.11c-.18-.06-.36-.12-.54-.17l-.26-.1h-.15a3.76 3.76 0 0 1-.47-.13 2.82 2.82 0 0 0-.41-.11h-.17l-.26-.1-.2-.11-.27-.09-.6-.19-.3-.09c-.01-6.25-.01-12.49-.01-18.74zm-1 11.36h.21v2.46a2.57 2.57 0 0 0-.44.15h-.15l-.22.11L11 20c-.28.11-.58.19-.86.32h-.17l-.3.1-.24.07-.23.06-.32.1h-.17a2.12 2.12 0 0 1-.36.13 7.79 7.79 0 0 0-.92.31l-.26.13-.21.15a2.33 2.33 0 0 0-.09.31h.06L7 22l.24.1.31.07a12.37 12.37 0 0 0 1.5 0 2.13 2.13 0 0 0 .79-.17h.15l.24-.11.3-.09.26-.1.28-.09c.15-.05.3-.11.44-.17h.13v-.14h.28v2.17a3.8 3.8 0 0 1-.54.08h-.68a6.3 6.3 0 0 0-.8 0 8.14 8.14 0 0 1-1.34 0H7.19c0-.08-.07-.18-.12-.06h-.2a1.53 1.53 0 0 1-.35-.07 1.94 1.94 0 0 1-.34-.07h-.26l-.27-.09h-.24a5.37 5.37 0 0 1-.64-.19l-.34-.11-.2-.11h-.09L4 22.61l-.34-.19-.34-.29-.21-.27a1.25 1.25 0 0 1 0-1 2.23 2.23 0 0 1 .53-.5l.36-.2v-.05h.1v-.01l.42-.2.33-.15.22-.09a5.12 5.12 0 0 1 .56-.21h.19l.18-.16h.12l.21-.07L7 19l.21-.07.33-.13h.15c.21-.09.43-.16.65-.24a5.17 5.17 0 0 0 .54-.2h.15l.34-.14.26-.22a4.64 4.64 0 0 0 .52-.17l.32-.12.48-.16.25-.09.27-.09.25-.07zM22 18.31h1.05s.62 0 .93.07a2.55 2.55 0 0 0 .39 0h.56c.24.08.5.08.74.17h.3a4.76 4.76 0 0 1 .68.17 7.5 7.5 0 0 1 .83.27l.23.1.26.12H28v.09h.1c.13.1.28.2.41.32h.08v.08h.05l.12.16.11.13v.07l.12.18a1.23 1.23 0 0 1-.11.69l-.1.16-.07.09-.07.09a5.05 5.05 0 0 1-1.06.69 4.37 4.37 0 0 1-.55.23l-.2.07c-.46.18-.93.34-1.4.5l-.34.11-.2.08h-.15l-.32.12-.21.07-.65.24-.28.09-.26.1-.21.07-.33.13h-.15l-.33.13-.24.07c-.4.1-.77.27-1.15.4l-.21.08-.48.17-.54.19-.21.07-.45.17a7.06 7.06 0 0 1-1 .32v-2.38c.06-.12.23-.12.34-.18l.48-.17.42-.15.36-.12h.27l.5-.17.34-.12.2-.07.21-.07.33-.12.86-.31.21-.07h.09l.23-.11h.15c.32-.13.64-.23 1-.35l.21-.06.24-.06a4.57 4.57 0 0 1 .51-.17.91.91 0 0 0 .32-.15H25l.07-.11.1-.05A.32.32 0 0 0 25 20l-.22-.09a1.24 1.24 0 0 0-.44-.06 3.81 3.81 0 0 0-1 0h-.4l-.54.15-.54.19-.26.11h-.13l-.34.13a2.65 2.65 0 0 1-.56.16.19.19 0 0 1 0 .06l-.31.07-.19.07-.37.21-.26.09-.54.19h-.13l-.34.13-.2.06a2 2 0 0 1-.48.15v-2.28a.71.71 0 0 1 0-.29 1.63 1.63 0 0 0 .44-.13h.19a4.79 4.79 0 0 1 .75-.21 1.42 1.42 0 0 1 .34-.07l.33-.09h.98a11.61 11.61 0 0 1 1.22-.24z"/></g><g id="origin"><path d="M15.52 4a.26.26 0 0 1 .37.13c0 .13 0 .24-.1.34a5.93 5.93 0 0 0-1 2.34.18.18 0 0 0-.09.23h.14a9.59 9.59 0 0 1 2.85.13 8.92 8.92 0 0 1 6.93 6.93 9 9 0 0 1-.6 5.49 18.55 18.55 0 0 1-7.7 8.41.27.27 0 0 1-.34-.06.31.31 0 0 1 0-.38A5.88 5.88 0 0 0 17 25.42a1.66 1.66 0 0 0 .06-.48c-.06-.07-.15-.05-.22 0a9 9 0 0 1-8.72-13.3A18.49 18.49 0 0 1 15.52 4zm-.09 8.51A3.5 3.5 0 0 0 13 14.06a3.48 3.48 0 0 0 4.77 4.88 3.49 3.49 0 0 0-2.36-6.39z"/></g><g id="steam"><path d="M27 16C27 22.0766 22.0677 27 15.9823 27C10.9347 27 6.68548 23.6157 5.38145 18.9984L9.60403 20.7415C9.8879 22.1653 11.152 23.2431 12.6601 23.2431C14.3988 23.2431 15.8492 21.806 15.7738 19.9831L19.5218 17.3129C21.8327 17.3706 23.771 15.4988 23.771 13.1657C23.771 10.877 21.9081 9.01855 19.6149 9.01855C17.3218 9.01855 15.4589 10.8815 15.4589 13.1657V13.219L12.8331 17.0202C12.1456 16.9802 11.4714 17.171 10.9036 17.5569L5 15.1173C5.45242 9.45323 10.194 5 15.9823 5C22.0677 5 27 9.92339 27 16ZM11.906 21.6907L10.5532 21.1319C10.8018 21.6481 11.2311 22.0552 11.7597 22.2762C12.9528 22.773 14.3234 22.2052 14.8202 21.0165C15.0597 20.4399 15.0641 19.8056 14.8246 19.229C14.5851 18.6524 14.1371 18.2 13.5605 17.9605C12.9883 17.721 12.3762 17.7298 11.8351 17.9339L13.2323 18.5105C14.1105 18.8742 14.5274 19.881 14.1593 20.7593C13.7911 21.6419 12.7843 22.0544 11.906 21.6907V21.6907ZM19.6149 15.929C18.0891 15.929 16.8472 14.6871 16.8472 13.1657C16.8472 11.6444 18.0891 10.4024 19.6149 10.4024C21.1407 10.4024 22.3827 11.6444 22.3827 13.1657C22.3827 14.6871 21.1452 15.929 19.6149 15.929V15.929ZM19.6194 15.2371C20.7681 15.2371 21.6996 14.3056 21.6996 13.1613C21.6996 12.0125 20.7681 11.0855 19.6194 11.0855C18.4706 11.0855 17.5391 12.0169 17.5391 13.1613C17.5435 14.3056 18.475 15.2371 19.6194 15.2371Z"/></g><g id="epic"><path fill-rule="evenodd" clip-rule="evenodd" d="M24.1841 4.5H7.81624C6.48952 4.5 6 4.98675 6 6.30656V22.2316C6 22.3809 6.00618 22.5195 6.01947 22.6482C6.04976 22.9362 6.05532 23.2155 6.3248 23.5332C6.35107 23.5643 6.62612 23.768 6.62612 23.768C6.77415 23.8402 6.87521 23.8934 7.04209 23.9601L15.1016 27.3175C15.5201 27.5083 15.695 27.5827 15.9988 27.5766C15.9988 27.5766 15.9997 27.5766 16 27.5766H16.0012C16.305 27.5824 16.4799 27.508 16.8984 27.3175L24.9579 23.9601C25.1248 23.8934 25.2258 23.8402 25.3739 23.768C25.3739 23.768 25.6489 23.5646 25.6752 23.5332C25.9447 23.2155 25.9502 22.9362 25.9805 22.6482C25.9938 22.5198 26 22.3809 26 22.2316V6.30656C26 4.98675 25.5105 4.5 24.1838 4.5H24.1841ZM23.0876 20.5104L23.0839 20.5473L23.0802 20.5876L23.0727 20.6244L23.0616 20.661L23.0545 20.6942L23.0434 20.7311L23.0286 20.7643L23.0137 20.7938L22.9992 20.8266L22.9807 20.8561L22.9621 20.8856L22.9402 20.9151L22.9216 20.9446L22.8997 20.9704L22.8737 20.9963L22.8518 21.0184L22.8224 21.0442L22.7968 21.0663L22.7671 21.0884L22.7377 21.1066L22.7084 21.1287L22.675 21.1471L22.6419 21.1619L22.6089 21.1803L22.5718 21.1951L22.535 21.2098L22.4982 21.2209L22.4615 21.2319L22.4281 21.243L22.3913 21.2504L22.3582 21.2578L22.3252 21.2651L22.2881 21.2725L22.2513 21.2762L22.2182 21.2799L22.1812 21.2836L22.1407 21.2873L22.1039 21.2909H21.9494L21.9126 21.2873H21.8721L21.8353 21.2836L21.7986 21.2799L21.7581 21.2762L21.7213 21.2688L21.6845 21.2651L21.6474 21.2578L21.6107 21.2504L21.5739 21.243L21.5371 21.2356L21.5003 21.2246L21.4673 21.2172L21.4305 21.2061L21.3937 21.1951L21.3607 21.1803L21.3239 21.1693L21.2908 21.1582L21.254 21.1434L21.221 21.1287L21.1879 21.1139L21.1548 21.0958L21.1218 21.0811L21.0887 21.0626L21.0593 21.0442L21.026 21.0258L20.9966 21.0073L20.9669 20.9889L20.9376 20.9668L20.9082 20.9446L20.8785 20.9225L20.8492 20.9004L20.8232 20.8783L20.7939 20.8524L20.8161 20.8229L20.8418 20.7971L20.864 20.7676L20.8897 20.7381L20.9119 20.7123L20.9339 20.6828L20.9598 20.6533L20.9818 20.6275L21.0077 20.598L21.0297 20.5722L21.0556 20.5427L21.0776 20.5132L21.0998 20.4874L21.1255 20.4579L21.1477 20.4284L21.1734 20.4026L21.1956 20.3731L21.225 20.3952L21.2581 20.4173L21.2877 20.4394L21.3208 20.4616L21.3505 20.48L21.3835 20.5021L21.4129 20.5206L21.4463 20.5353L21.4756 20.5538L21.5087 20.5685L21.5421 20.5833L21.5751 20.598L21.6082 20.6091L21.6413 20.6238L21.678 20.6349L21.7148 20.6459L21.7479 20.657L21.785 20.6644L21.8217 20.6718L21.8585 20.6791L21.899 20.6828L21.9358 20.6902H21.9726L22.013 20.6939H22.094L22.1345 20.6902L22.1716 20.6828L22.2046 20.6754L22.2377 20.6681L22.2674 20.657L22.293 20.6423L22.3227 20.6201L22.3446 20.5943L22.3595 20.5648L22.3706 20.5319L22.3743 20.4951V20.4877L22.3706 20.4437L22.3558 20.4069L22.3372 20.3811L22.3116 20.3589L22.2819 20.3368L22.2526 20.3221L22.2195 20.3073L22.1824 20.2926L22.1382 20.2741L22.1126 20.2668L22.0832 20.2594L22.0498 20.2483L22.0168 20.2409L21.98 20.2299L21.9429 20.2225L21.9024 20.2114L21.8656 20.2041L21.8251 20.193L21.7884 20.1856L21.7513 20.1746L21.7145 20.1672L21.6777 20.1561L21.6444 20.1451L21.6076 20.1377L21.5745 20.1266L21.5414 20.1156L21.5081 20.1045L21.4676 20.0898L21.4308 20.075L21.394 20.0603L21.3573 20.0455L21.3242 20.0271L21.2874 20.0086L21.2577 19.9902L21.2247 19.9718L21.1953 19.9496L21.1656 19.9312L21.14 19.9091L21.114 19.8833L21.0884 19.8574L21.0661 19.8316L21.0442 19.8058L21.0257 19.78L21.0074 19.7505L20.9889 19.7176L20.974 19.6921L20.9629 19.6626L20.9521 19.6294L20.941 19.5999L20.9336 19.5631L20.9261 19.5299L20.9224 19.4933L20.9187 19.4564L20.915 19.4162V19.3317L20.9187 19.2951L20.9224 19.2619L20.9261 19.225L20.9336 19.1922L20.941 19.159L20.9521 19.1258L20.9595 19.0929L20.974 19.0597L20.9889 19.0265L21.0037 18.9936L21.0219 18.9605L21.0405 18.9276L21.0624 18.8981L21.0847 18.8686L21.1103 18.8391L21.1363 18.8133L21.1619 18.7838L21.1916 18.758L21.2173 18.7395L21.2469 18.7174L21.2763 18.6953L21.3056 18.6768L21.339 18.6584L21.3721 18.6436L21.4052 18.6252L21.4385 18.6105L21.4753 18.5994L21.5121 18.5846L21.5455 18.5736L21.5748 18.5662L21.6079 18.5588L21.641 18.5515L21.6777 18.5441L21.7108 18.5367L21.7476 18.533L21.7847 18.5293L21.8214 18.5256L21.8582 18.522H22.0164L22.0569 18.5256L22.0974 18.5293H22.1342L22.1747 18.533L22.2114 18.5404L22.2519 18.5441L22.2887 18.5515L22.3221 18.5588L22.3589 18.5662L22.3956 18.5736L22.4287 18.581L22.4655 18.592L22.4985 18.6031L22.5316 18.6105L22.5684 18.6252L22.6015 18.6363L22.6345 18.651L22.6676 18.6658L22.7044 18.6805L22.7374 18.699L22.7668 18.7137L22.8002 18.7321L22.8332 18.7506L22.8626 18.769L22.8957 18.7911L22.925 18.8096L22.9547 18.8317L22.9841 18.8538L23.0134 18.876L22.9915 18.9055L22.9729 18.935L22.951 18.9645L22.9287 18.994L22.9068 19.0268L22.8882 19.0563L22.866 19.0858L22.8441 19.1153L22.8255 19.1448L22.8036 19.1743L22.7813 19.2038L22.7628 19.2333L22.7408 19.2665L22.7186 19.296L22.6966 19.3255L22.6781 19.355L22.6562 19.3845L22.6265 19.3624L22.5934 19.344L22.5641 19.3255L22.5344 19.3034L22.5013 19.2886L22.4717 19.2702L22.4386 19.2555L22.4092 19.2407L22.3759 19.226L22.3465 19.2112L22.3134 19.2001L22.2838 19.1854L22.2433 19.1743L22.2065 19.1633L22.1697 19.1522L22.1326 19.1448L22.0959 19.1375L22.0591 19.1301L22.0223 19.1264L21.9852 19.1227L21.9522 19.119H21.8712L21.8307 19.1264L21.7936 19.1338L21.7606 19.1411L21.7312 19.1559L21.7052 19.1706L21.6722 19.2001L21.6499 19.2333L21.6354 19.2665L21.6317 19.3031V19.3105L21.6354 19.3581L21.6536 19.3983L21.6685 19.4205L21.6941 19.4463L21.7275 19.4647L21.7568 19.4832L21.7936 19.4979L21.8341 19.5127L21.8783 19.5274L21.9077 19.5348L21.937 19.5458L21.9704 19.5532L22.0035 19.5643L22.0402 19.5717L22.081 19.5827L22.1215 19.5938L22.162 19.6048L22.2025 19.6122L22.2393 19.6233L22.2797 19.6343L22.3168 19.6417L22.3536 19.6528L22.3904 19.6638L22.4235 19.6749L22.4605 19.686L22.4936 19.697L22.5267 19.7081L22.5672 19.7225L22.6039 19.741L22.6407 19.7557L22.6775 19.7742L22.7109 19.7926L22.7439 19.811L22.7733 19.8295L22.803 19.8516L22.8323 19.87L22.8617 19.8959L22.8913 19.9217L22.917 19.9512L22.943 19.977L22.9649 20.0065L22.9871 20.0394L23.0054 20.0689L23.0239 20.102L23.0388 20.1315L23.0499 20.1644L23.0607 20.1976L23.0681 20.2308L23.0755 20.2677L23.0829 20.3045L23.0867 20.3411L23.0904 20.3814V20.4696L23.0867 20.5098L23.0876 20.5104ZM20.5083 21.2449H18.401V18.5711H20.5265V19.1774H19.1031V19.6144H20.3832V20.1835H19.1031V20.6389H20.5448V21.2449H20.508H20.5083ZM17.8212 21.2449H17.1481V19.6638L17.1296 19.6933L17.1076 19.7265L17.0891 19.756L17.0671 19.7855L17.0486 19.8184L17.0263 19.8479L17.0081 19.8774L16.9896 19.9106L16.9676 19.9401L16.9491 19.9696L16.9268 19.9991L16.9086 20.0323L16.8863 20.0618L16.8681 20.0913L16.8496 20.1245L16.8273 20.154L16.8091 20.1835L16.7868 20.2164L16.7686 20.2459L16.7463 20.2754L16.7281 20.3085L16.7096 20.338L16.6873 20.3675L16.6691 20.4007L16.6468 20.4302L16.6286 20.4597L16.6063 20.4892L16.5878 20.5221L16.5696 20.5516L16.5473 20.5811L16.5291 20.6143L16.5068 20.6438L16.4883 20.6733L16.4663 20.7065L16.4478 20.736H16.4333L16.411 20.7028L16.3925 20.6733L16.3705 20.6401L16.352 20.6106L16.3301 20.5777L16.3115 20.5482L16.2896 20.515L16.271 20.4855L16.2488 20.4527L16.2305 20.4232L16.2083 20.39L16.1901 20.3605L16.1678 20.3273L16.1493 20.2978L16.1273 20.2646L16.1088 20.2351L16.0868 20.2019L16.0646 20.1724L16.046 20.1392L16.0241 20.1097L16.0056 20.0765L15.9836 20.047L15.9651 20.0138L15.9431 19.9844L15.9246 19.9512L15.9023 19.9217L15.8841 19.8885L15.8619 19.859L15.8436 19.8261L15.8214 19.7966L15.8028 19.7634L15.7809 19.7342L15.7623 19.701L15.7404 19.6715V21.2452H15.0417V18.5714H15.7957L15.814 18.6009L15.8325 18.6338L15.8544 18.663L15.873 18.6962L15.8915 18.7257L15.9098 18.7589L15.9283 18.7881L15.9502 18.8213L15.9688 18.8508L15.9873 18.8803L16.0056 18.9131L16.0241 18.9426L16.046 18.9755L16.0646 19.005L16.0831 19.0379L16.1014 19.0674L16.1236 19.0969L16.1422 19.1298L16.1604 19.159L16.1789 19.1922L16.1972 19.2217L16.2194 19.2545L16.238 19.284L16.2562 19.3169L16.2747 19.3461L16.293 19.3756L16.3152 19.4088L16.3338 19.4383L16.352 19.4715L16.3705 19.5007L16.3888 19.5339L16.411 19.5634L16.4296 19.5962L16.4478 19.6257L16.4663 19.5962L16.4849 19.5634L16.5068 19.5339L16.5254 19.5007L16.5436 19.4715L16.5621 19.4383L16.5841 19.4088L16.6026 19.3756L16.6212 19.3461L16.6394 19.3169L16.6617 19.284L16.6799 19.2545L16.6984 19.2217L16.717 19.1922L16.7389 19.159L16.7575 19.1298L16.776 19.0969L16.7942 19.0674L16.8128 19.0379L16.8347 19.005L16.8533 18.9755L16.8718 18.9426L16.89 18.9131L16.9123 18.8803L16.9305 18.8508L16.9491 18.8213L16.9676 18.7881L16.9896 18.7589L17.0081 18.7257L17.0263 18.6962L17.0449 18.663L17.0671 18.6338L17.0854 18.6009L17.1039 18.5714H17.8577V21.2452H17.8209L17.8212 21.2449ZM13.5539 20.1432L13.5428 20.11L13.5283 20.0732L13.5134 20.04L13.5023 20.0068L13.4878 19.9736L13.473 19.9367L13.4618 19.9035L13.447 19.8703L13.4325 19.8375L13.4213 19.8043L13.4065 19.7674L13.3957 19.7342L13.3809 19.701L13.366 19.6678L13.3549 19.6347L13.3404 19.5978L13.3255 19.5646L13.3144 19.5317L13.2996 19.4985L13.2851 19.4617L13.2739 19.4285L13.2591 19.3953L13.2446 19.4285L13.2335 19.4617L13.2186 19.4985L13.2038 19.5317L13.193 19.5646L13.1781 19.5978L13.1633 19.6347L13.1488 19.6678L13.1376 19.701L13.1228 19.7342L13.108 19.7674L13.0972 19.8043L13.0823 19.8375L13.0675 19.8703L13.0564 19.9035L13.0418 19.9367L13.027 19.9736L13.0122 20.0068L13.0014 20.04L12.9865 20.0732L12.9717 20.11L12.9606 20.1432L12.946 20.1764H13.5675L13.5527 20.1432H13.5539ZM14.7088 21.2449H13.9878L13.9733 21.2117L13.9622 21.1785L13.9473 21.1453L13.9325 21.1087L13.9217 21.0758L13.9069 21.043L13.892 21.0098L13.8812 20.9766L13.8664 20.9434L13.8515 20.9102L13.8404 20.877L13.8259 20.8405L13.8111 20.8073L13.7999 20.7741L13.7851 20.7409H12.7297L12.7152 20.7741L12.7041 20.8073L12.6892 20.8405L12.6744 20.877L12.6636 20.9102L12.6487 20.9434L12.6339 20.9766L12.6228 21.0098L12.6083 21.043L12.5934 21.0758L12.5823 21.1087L12.5678 21.1453L12.5529 21.1785L12.5418 21.2117L12.527 21.2449H11.7844L11.7989 21.2117L11.8137 21.1785L11.8285 21.1453L11.8431 21.1087L11.8542 21.0758L11.869 21.043L11.8839 21.0098L11.8984 20.9766L11.9132 20.9434L11.9281 20.9065L11.9426 20.8733L11.9574 20.8405L11.9685 20.8073L11.9834 20.7741L11.9979 20.7409L12.0127 20.7043L12.0276 20.6711L12.0421 20.638L12.0569 20.6051L12.0718 20.5719L12.0829 20.5387L12.0974 20.5018L12.1122 20.4689L12.1271 20.4358L12.1416 20.4026L12.1564 20.3694L12.1713 20.3362L12.1858 20.2993L12.1969 20.2664L12.2118 20.2333L12.2266 20.2001L12.2411 20.1669L12.2559 20.1337L12.2708 20.0971L12.2853 20.0639L12.3001 20.0308L12.3113 19.9976L12.3261 19.9647L12.3406 19.9315L12.3555 19.8946L12.3703 19.8614L12.3848 19.8282L12.3997 19.7951L12.4145 19.7622L12.4256 19.729L12.4401 19.6961L12.455 19.6592L12.4698 19.6264L12.4843 19.5932L12.4992 19.56L12.514 19.5271L12.5285 19.4939L12.5397 19.457L12.5545 19.4242L12.5693 19.391L12.5838 19.3578L12.5987 19.3246L12.6135 19.2914L12.628 19.2545L12.6429 19.2217L12.654 19.1885L12.6688 19.1553L12.6834 19.1221L12.6982 19.0889L12.713 19.0523L12.7275 19.0192L12.7424 18.986L12.7572 18.9528L12.768 18.9199L12.7829 18.8867L12.7977 18.8501L12.8125 18.817L12.8271 18.7838L12.8419 18.7506L12.8567 18.7174L12.8713 18.6845L12.8824 18.6476L12.8972 18.6145L12.912 18.5813L12.9266 18.5481H13.6071L13.6219 18.5813L13.6368 18.6145L13.6513 18.6476L13.6661 18.6845L13.6772 18.7174L13.6918 18.7506L13.7066 18.7838L13.7214 18.817L13.7363 18.8501L13.7508 18.8867L13.7656 18.9199L13.7805 18.9528L13.7913 18.986L13.8061 19.0192L13.8209 19.0523L13.8358 19.0889L13.8503 19.1221L13.8651 19.1553L13.88 19.1885L13.8945 19.2217L13.9056 19.2545L13.9205 19.2914L13.935 19.3246L13.9498 19.3578L13.9646 19.391L13.9795 19.4242L13.994 19.457L14.0088 19.4939L14.02 19.5271L14.0345 19.56L14.0493 19.5932L14.0642 19.6264L14.079 19.6592L14.0935 19.6961L14.1084 19.729L14.1232 19.7622L14.134 19.7951L14.1488 19.8282L14.1637 19.8614L14.1782 19.8946L14.193 19.9315L14.2079 19.9647L14.2227 19.9976L14.2372 20.0308L14.2483 20.0639L14.2632 20.0971L14.2777 20.1337L14.2925 20.1669L14.3074 20.2001L14.3222 20.2333L14.3367 20.2664L14.3516 20.2993L14.3627 20.3362L14.3772 20.3694L14.3921 20.4026L14.4069 20.4358L14.4214 20.4689L14.4362 20.5018L14.4511 20.5387L14.4659 20.5719L14.4767 20.6051L14.4916 20.638L14.5064 20.6711L14.5209 20.7043L14.5358 20.7409L14.5506 20.7741L14.5654 20.8073L14.5799 20.8405L14.5911 20.8733L14.6059 20.9065L14.6204 20.9434L14.6353 20.9766L14.6501 21.0098L14.6646 21.043L14.6795 21.0758L14.6943 21.1087L14.7054 21.1453L14.7199 21.1785L14.7348 21.2117L14.7496 21.2449H14.7128H14.7088ZM11.4867 20.9035L11.4571 20.9256L11.4314 20.944L11.4018 20.9661L11.3724 20.9846L11.343 21.0067L11.3134 21.0251L11.284 21.0436L11.2506 21.062L11.2176 21.0805L11.1845 21.0989L11.1514 21.1133L11.1184 21.1318L11.0816 21.1465L11.0485 21.1613L11.0114 21.176L10.9784 21.1908L10.9453 21.2018L10.9122 21.2129L10.8792 21.224L10.8424 21.235L10.8093 21.2461L10.7722 21.2535L10.7392 21.2608L10.7024 21.2682L10.6656 21.2756L10.6288 21.2793L10.5884 21.283L10.5516 21.2866L10.5111 21.2903L10.474 21.294L10.4335 21.2977H10.2753L10.2385 21.294L10.198 21.2903L10.1613 21.2866L10.1245 21.283L10.0874 21.2793L10.0506 21.2719L10.0138 21.2645L9.98078 21.2571L9.944 21.2498L9.91093 21.2387L9.87416 21.2313L9.84078 21.2203L9.80771 21.2055L9.77465 21.1945L9.73787 21.1797L9.70449 21.165L9.67143 21.1502L9.63836 21.1355L9.60498 21.117L9.57562 21.0989L9.54256 21.0805L9.51289 21.062L9.48353 21.0436L9.45386 21.0215L9.4245 20.9993L9.39514 20.9772L9.36918 20.9551L9.34353 20.933L9.31757 20.9071L9.29192 20.885L9.26596 20.8592L9.24031 20.8334L9.21806 20.8076L9.19612 20.7781L9.17387 20.7523L9.15532 20.7228L9.13338 20.6933L9.11484 20.6641L9.09661 20.6346L9.07806 20.6014L9.05952 20.5719L9.045 20.5387L9.03016 20.5055L9.01533 20.4723L9.0008 20.4394L8.98968 20.4099L8.97484 20.3768L8.96743 20.3436L8.95661 20.3107L8.94919 20.2741L8.93807 20.2409L8.93065 20.2044L8.92694 20.1712L8.91953 20.1343L8.91582 20.1014L8.91211 20.0646L8.90871 20.0277L8.905 19.9911V19.8697L8.90871 19.8295V19.7929L8.91211 19.756L8.91582 19.7158L8.92323 19.6792L8.92694 19.6423L8.93436 19.6091L8.94548 19.5726L8.9529 19.5357L8.96372 19.5025L8.97484 19.466L8.98597 19.4328L9.0008 19.3959L9.01533 19.363L9.03016 19.3298L9.045 19.2966L9.05952 19.2634L9.07806 19.2303L9.09661 19.2008L9.11484 19.1713L9.13338 19.1418L9.15193 19.1123L9.17387 19.0828L9.19612 19.0533L9.21806 19.0238L9.24031 18.9979L9.26596 18.9721L9.28821 18.9463L9.31386 18.9208L9.33982 18.895L9.36547 18.8729L9.39514 18.8471L9.42079 18.8249L9.45015 18.8028L9.47982 18.7844L9.50918 18.7623L9.53885 18.7438L9.56821 18.7254L9.60127 18.7069L9.63465 18.6885L9.66772 18.6701L9.70079 18.6553L9.73385 18.6406L9.77063 18.6221L9.79999 18.6111L9.83676 18.6L9.87014 18.5853L9.90321 18.5779L9.93628 18.5668L9.97305 18.5594L10.0061 18.5484L10.0429 18.541L10.0797 18.5373L10.1164 18.5299L10.1532 18.5263L10.19 18.5226L10.2268 18.5189L10.2639 18.5152H10.4218L10.4626 18.5189L10.5031 18.5226H10.5398L10.5766 18.5263L10.6171 18.5336L10.6505 18.5373L10.6872 18.5447L10.724 18.5521L10.7571 18.5594L10.7902 18.5668L10.8232 18.5742L10.8566 18.5853L10.8897 18.5926L10.919 18.6037L10.9524 18.6148L10.9855 18.6295L11.0185 18.6443L11.0519 18.659L11.085 18.6774L11.1181 18.6922L11.1477 18.7106L11.1808 18.7291L11.2101 18.7475L11.2435 18.7659L11.2729 18.7881L11.3022 18.8065L11.3319 18.8286L11.3613 18.8508L11.3909 18.8766L11.4203 18.8987L11.398 18.9282L11.3724 18.954L11.3501 18.9835L11.3245 19.013L11.3022 19.0425L11.2803 19.0683L11.2543 19.0978L11.2324 19.1273L11.2101 19.1531L11.1845 19.1826L11.1622 19.2121L11.1366 19.2416L11.1143 19.2674L11.0924 19.2969L11.0664 19.3264L11.0445 19.3559L11.0185 19.3818L10.9966 19.4113L10.9669 19.3891L10.9376 19.3633L10.9079 19.3449L10.8785 19.3228L10.8492 19.3043L10.8195 19.2859L10.7902 19.2674L10.7571 19.249L10.7274 19.2343L10.6981 19.2195L10.6684 19.2084L10.6353 19.1974L10.6023 19.1863L10.5689 19.1789L10.5321 19.1716L10.4953 19.1642L10.4586 19.1605L10.4181 19.1568L10.3776 19.1531H10.3003L10.2636 19.1568L10.2302 19.1605L10.1934 19.1679L10.1603 19.1753L10.127 19.1863L10.0939 19.1974L10.0608 19.2121L10.0278 19.2269L9.99808 19.2453L9.96872 19.2638L9.93906 19.2822L9.91341 19.3043L9.88745 19.3264L9.8618 19.3486L9.83955 19.3744L9.81389 19.4002L9.79164 19.4297L9.77341 19.4555L9.75487 19.485L9.73663 19.5182L9.71809 19.5477L9.70326 19.5809L9.69213 19.6141L9.67761 19.6473L9.66648 19.6838L9.65906 19.7204L9.65165 19.7533L9.64423 19.7938L9.64052 19.8304L9.63712 19.867V19.9515L9.64052 19.988L9.64423 20.0212L9.64794 20.0581L9.65536 20.091L9.66277 20.1242L9.67019 20.157L9.68132 20.1902L9.69213 20.2197L9.70697 20.2563L9.7218 20.2895L9.74003 20.3227L9.75858 20.3522L9.77712 20.3817L9.79906 20.4112L9.82131 20.437L9.84696 20.4628L9.86921 20.4886L9.89486 20.5107L9.92453 20.5329L9.95389 20.555L9.98325 20.5734L10.0129 20.5919L10.046 20.6066L10.0791 20.6214L10.1121 20.6361L10.1489 20.6472L10.1857 20.6582L10.2228 20.6656L10.2595 20.673L10.2963 20.6767L10.3368 20.6804H10.4212L10.462 20.6767L10.5024 20.673L10.5392 20.6693L10.576 20.6619L10.6131 20.6546L10.6499 20.6435L10.6829 20.6361L10.716 20.6214L10.7457 20.6066L10.7787 20.5919L10.8047 20.5771L10.834 20.5587V20.2243H10.2969V19.6881H11.5105V20.8816L11.4849 20.9038L11.4867 20.9035ZM10.304 12.5215H11.8981V11.2954H10.304V8.79254H11.9614V7.56645H8.95074V16.4146H11.9871V15.1885H10.3043V12.5212L10.304 12.5215ZM21.721 12.787V14.7841C21.721 15.1381 21.5566 15.3022 21.2151 15.3022H20.962C20.6078 15.3022 20.4434 15.1381 20.4434 14.7841V9.19724C20.4434 8.84324 20.6078 8.67915 20.962 8.67915H21.1898C21.5312 8.67915 21.696 8.84324 21.696 9.19724V10.9291H23.0242V9.12134C23.0242 8.02185 22.493 7.49086 21.3925 7.49086H20.7345C19.634 7.49086 19.0898 8.03445 19.0898 9.13394V14.8471C19.0898 15.9469 19.634 16.4902 20.7345 16.4902H21.4052C22.506 16.4902 23.0496 15.9469 23.0496 14.8471V12.7867H21.7213L21.721 12.787ZM17.0205 16.4146H18.3744V7.56676H17.0205V16.4146V16.4146ZM15.0562 11.4976C15.0562 11.8516 14.8918 12.016 14.5503 12.016H13.9937V8.75474H14.5503C14.8918 8.75474 15.0562 8.91914 15.0562 9.27283V11.4976V11.4976ZM14.7654 7.56645H12.6401V16.4146H13.9937V13.204H14.7654C15.8659 13.204 16.4098 12.6607 16.4098 11.5609V9.20984C16.4098 8.11004 15.8659 7.56676 14.7654 7.56676V7.56645ZM12.1438 24.4152H19.8927L15.9376 25.7122L12.1438 24.4152Z"/></g></defs></svg>