<svg xmlns="http://www.w3.org/2000/svg"><g id="chevron" viewBox="0 0 18 10"><path fill-rule="evenodd" clip-rule="evenodd" d="M8.04291 9.70712L0.0429077 1.70712L1.45712 0.292908L8.75001 7.5858L16.0429 0.292908L17.4571 1.70712L9.45712 9.70712C9.0666 10.0976 8.43343 10.0976 8.04291 9.70712Z"/></g><g id="pause" viewBox="0 0 65 65"><circle cx="32.7345" cy="32.2744" r="32"/><path fill-rule="evenodd" clip-rule="evenodd" d="M23.4012 22.9412C22.6648 22.9412 22.0679 23.5381 22.0679 24.2745V40.2745C22.0679 41.0109 22.6648 41.6078 23.4012 41.6078H30.0679C30.8042 41.6078 31.4012 41.0109 31.4012 40.2745V24.2745C31.4012 23.5381 30.8042 22.9412 30.0679 22.9412H23.4012ZM24.7345 38.9412V25.6078H28.7345V38.9412H24.7345Z" fill="#696969"/><path fill-rule="evenodd" clip-rule="evenodd" d="M35.4012 22.9412C34.6648 22.9412 34.0679 23.5381 34.0679 24.2745V40.2745C34.0679 41.0109 34.6648 41.6078 35.4012 41.6078H42.0679C42.8042 41.6078 43.4012 41.0109 43.4012 40.2745V24.2745C43.4012 23.5381 42.8042 22.9412 42.0679 22.9412H35.4012ZM36.7345 38.9412V25.6078H40.7345V38.9412H36.7345Z" fill="#696969"/></g><g id="play" viewBox="0 0 65 65"><circle cx="32.5494" cy="32.9961" r="32"/><path fill-rule="evenodd" clip-rule="evenodd" d="M24.8484 22.5285C25.2415 22.2855 25.7324 22.2635 26.1457 22.4701L44.8123 31.8034C45.2641 32.0293 45.5494 32.491 45.5494 32.996C45.5494 33.501 45.2641 33.9627 44.8123 34.1886L26.1457 43.5219C25.7324 43.7286 25.2415 43.7065 24.8484 43.4635C24.4553 43.2206 24.2161 42.7915 24.2161 42.3293V23.6627C24.2161 23.2006 24.4553 22.7714 24.8484 22.5285ZM26.8827 25.8201V40.172L41.2346 32.996L26.8827 25.8201Z" fill="#696969"/></g><g id="expand" viewBox="0 0 27 27"><rect x="0.302002" y="0.836426" width="26" height="26" rx="3"/><path d="M15.302 6.83643H18.8878L14.5949 11.1293L16.0091 12.5435L20.302 8.25065V11.8364H22.302V5.83643C22.302 5.28414 21.8543 4.83643 21.302 4.83643H15.302V6.83643Z" fill="#696969"/><path d="M7.71623 20.8364L12.0091 16.5435L10.5949 15.1293L6.302 19.4222V15.8364H4.302V21.8364C4.302 22.3887 4.74972 22.8364 5.302 22.8364H11.302V20.8364H7.71623Z" fill="#696969"/></g><g id="minimize" viewBox="0 0 27 27"><rect x="0.302002" y="0.836426" width="26" height="26" rx="3"/><path d="M17.7162 10.8365L22.0091 6.54361L20.5949 5.12939L16.302 9.4223V5.8365H14.302V11.8365C14.302 12.3888 14.7497 12.8365 15.302 12.8365H21.302V10.8365H17.7162Z" fill="#696969"/><path d="M5.302 16.8365H8.8878L4.59491 21.1294L6.00912 22.5436L10.302 18.2507V21.8365H12.302V15.8365C12.302 15.2842 11.8543 14.8365 11.302 14.8365H5.302V16.8365Z" fill="#696969"/></g><g id="unmute" viewBox="0 0 27 27"><path fill-rule="evenodd" clip-rule="evenodd" d="M17.1915 19.4592L20.4844 22.7521L21.8986 21.3379L17.1915 16.6308V7.045C17.1915 6.64054 16.9478 6.2759 16.5742 6.12112C16.2005 5.96634 15.7704 6.05189 15.4844 6.33789L11.7773 10.045H10.6057L5.89859 5.33789L4.48438 6.7521L7.84057 10.1083C7.46137 10.2504 7.19147 10.6162 7.19147 11.045V17.045C7.19147 17.5973 7.63918 18.045 8.19147 18.045H11.7773L15.4844 21.7521C15.7704 22.0381 16.2005 22.1237 16.5742 21.9689C16.9478 21.8141 17.1915 21.4495 17.1915 21.045V19.4592ZM15.1915 14.6308V9.45921L12.6057 12.045L15.1915 14.6308ZM9.77727 12.045L15.1915 17.4592V18.6308L12.6057 16.045H9.19147V12.045H9.77727Z" fill="#696969"/></g><g id="mute" viewBox="0 0 27 27"><path fill-rule="evenodd" clip-rule="evenodd" d="M14.1914 7.04495C14.1914 6.64049 13.9478 6.27585 13.5741 6.12107C13.2004 5.96629 12.7703 6.05185 12.4843 6.33784L8.77719 10.045H5.19141C4.63912 10.045 4.19141 10.4927 4.19141 11.045V17.045C4.19141 17.5972 4.63912 18.045 5.19141 18.045H8.77719L12.4843 21.7521C12.7703 22.0381 13.2004 22.1236 13.5741 21.9688C13.9478 21.814 14.1914 21.4494 14.1914 21.045V7.04495ZM9.60562 12.045L12.1914 9.45916V18.6307L9.60562 16.045H6.19141V12.045H9.60562Z" fill="#696969"/><path d="M20.1914 14.0449C20.1914 12.1117 19.409 10.363 18.1412 9.0952L19.5554 7.68098C21.183 9.30857 22.1914 11.5599 22.1914 14.0449C22.1914 16.53 21.183 18.7813 19.5554 20.4089L18.1412 18.9947C19.409 17.7268 20.1914 15.9782 20.1914 14.0449Z" fill="#696969"/><path d="M16.1913 14.045C16.1913 13.2163 15.8567 12.4677 15.3127 11.9237L16.7269 10.5095C17.6306 11.4132 18.1913 12.6646 18.1913 14.045C18.1913 15.4254 17.6306 16.6768 16.7269 17.5805L15.3127 16.1663C15.8567 15.6223 16.1913 14.8737 16.1913 14.045Z" fill="#696969"/></g><g id="external" viewBox="0 0 18 18"><path d="M10 2H14.5858L8.29291 8.29289L9.70712 9.70711L16 3.41423V8H18V1C18 0.447715 17.5523 0 17 0H10V2Z" fill="#696969"/><path d="M1 2C0.447715 2 0 2.44772 0 3V17C0 17.5523 0.447715 18 1 18H15C15.5523 18 16 17.5523 16 17V10H14V16H2V4H8V2H1Z" fill="#696969"/></g><g id="close" viewBox="0 0 19 20"><path d="M9.75002 11.4142L17.0429 18.7071L18.4571 17.2929L11.1642 10L18.4571 2.70712L17.0429 1.29291L9.75002 8.5858L2.45712 1.29291L1.04291 2.70712L8.3358 10L1.04291 17.2929L2.45712 18.7071L9.75002 11.4142Z" fill="#696969" stroke="#696969" stroke-linejoin="round"/></g><g id="square-play" viewBox="0 0 32 32"><rect width="32" height="32" rx="3.67399"/><path fill-rule="evenodd" clip-rule="evenodd" d="M9.47427 8.14935C9.76909 7.96714 10.1372 7.95058 10.4472 8.10557L24.4472 15.1056C24.786 15.275 25 15.6212 25 16C25 16.3788 24.786 16.725 24.4472 16.8944L10.4472 23.8944C10.1372 24.0494 9.76909 24.0329 9.47427 23.8507C9.17945 23.6684 9 23.3466 9 23V9C9 8.65342 9.17945 8.33156 9.47427 8.14935ZM11 10.618V21.382L21.7639 16L11 10.618Z" fill="#696969"/></g><g id="square-pause" viewBox="0 0 32 32"><rect width="32" height="32" rx="3.67399"/><path fill-rule="evenodd" clip-rule="evenodd" d="M9 9C8.44772 9 8 9.44772 8 10V22C8 22.5523 8.44772 23 9 23H14C14.5523 23 15 22.5523 15 22V10C15 9.44772 14.5523 9 14 9H9ZM10 21V11H13V21H10Z" fill="#696969"/><path fill-rule="evenodd" clip-rule="evenodd" d="M18 9C17.4477 9 17 9.44772 17 10V22C17 22.5523 17.4477 23 18 23H23C23.5523 23 24 22.5523 24 22V10C24 9.44772 23.5523 9 23 9H18ZM19 21V11H22V21H19Z" fill="#696969"/></g><g id="widget-play" viewBox="0 0 100 100"><path d="M50 98C76.5097 98 98 76.5097 98 50C98 23.4903 76.5097 2 50 2C23.4903 2 2 23.4903 2 50C2 76.5097 23.4903 98 50 98Z" stroke="white" stroke-width="4"/><path fill-rule="evenodd" clip-rule="evenodd" d="M36.4047 33.6446C37.0189 33.265 37.7858 33.2305 38.4317 33.5534L67.5983 48.1368C68.3041 48.4897 68.75 49.2111 68.75 50.0002C68.75 50.7893 68.3041 51.5107 67.5983 51.8636L38.4317 66.4469C37.7858 66.7698 37.0189 66.7353 36.4047 66.3557C35.7905 65.9761 35.4166 65.3055 35.4166 64.5835V35.4168C35.4166 34.6948 35.7905 34.0242 36.4047 33.6446ZM39.5833 38.7877V61.2126L62.0082 50.0002L39.5833 38.7877Z" fill="white"/></g></svg>