<svg xmlns="http://www.w3.org/2000/svg"><g id="portrait" viewBox="0 0 74 74"><path d="M17.5563 48.1006L7.82151 52.4158C7.65064 52.5177 7.50653 52.6196 7.35061 52.7175C9.73156 57.1505 11.9044 61.2582 12.2106 70.446H10.4253C8.72792 64.4808 6.43367 58.997 3.56231 56.6933C3.31404 57.185 3.08138 57.7126 2.84807 58.3061L-0.732478 70.1554C-1.48289 73.7081 0.0952876 75.0448 1.53367 75.5429C7.67613 77.0566 26.5125 76.3715 38.4301 76.3715V77.7006L38.4338 76.3715C50.3481 76.3715 66.3136 77.0552 72.46 75.5429C73.9035 75.045 75.4817 73.7091 74.7307 70.1554L71.1495 58.3061C70.9218 57.7126 70.6891 57.1864 70.4352 56.6933C67.5627 58.9983 65.2753 64.4822 63.5791 70.446H61.7938C62.0989 61.2592 64.2778 57.1506 66.6575 52.7175C66.4984 52.6189 66.3524 52.5171 66.1766 52.4158L56.4418 48.1006H56.1891C55.7581 48.6218 55.3295 49.1459 54.8736 49.6321C50.1228 54.7408 43.7889 57.6661 36.9932 57.6661C30.1927 57.6661 23.8706 54.7405 19.1144 49.6321C18.6585 49.1473 18.2293 48.6218 17.8007 48.1006H17.5563Z" fill="currentColor"/><path fill-rule="evenodd" clip-rule="evenodd" d="M22.0986 24.2406C22.5791 24.185 23.1742 24.3612 23.8191 24.6648C26.7302 26.0268 32.7475 26.805 36.9969 26.8378C41.2524 26.8062 47.269 26.0268 50.1798 24.6648C51.9043 23.8587 53.2514 23.9643 53.0825 26.8245C52.4999 36.7252 44.7214 39.6598 36.9969 39.7376C29.2775 39.6598 21.5007 36.7252 20.9163 26.8245C20.8092 25.0395 21.2982 24.324 22.0986 24.2406ZM36.9975 5C24.2536 5 14.7223 15.3354 19.0643 32.7224C22.1415 45.0397 28.3811 52 36.9975 52C45.6145 52 51.8583 45.0401 54.9358 32.7224C59.2779 15.3347 49.7458 5 36.9975 5Z" fill="currentColor"/></g></svg>