<svg xmlns="http://www.w3.org/2000/svg"><defs><g id="arrow"><path d="M13.5 9.2h-11c-.6 0-1-.5-1-1 0-.6.5-1 1-1h11c.6 0 1 .5 1 1 0 .6-.5 1-1 1z"/><path d="M12.8 8.9L8 4.1c-.4-.4-.4-1 0-1.4.4-.4 1-.4 1.4 0l4.8 4.8c.4.4.4 1 0 1.4-.4.4-1 .4-1.4 0z"/><path d="M14.2 9.1l-4.8 4.8c-.4.4-1 .4-1.4 0-.4-.4-.4-1 0-1.4l4.8-4.8c.4-.4 1-.4 1.4 0 .4.3.4 1 0 1.4z"/></g><g id="back"><path d="M-11.8,29l4.7-4.7c0.6-0.6,0.6-1.5,0-2.1c-0.6-0.6-1.5-0.6-2.1,0l-5.7,5.7c-0.6,0.6-0.6,1.5,0,2.1l5.8,5.8 c0.6,0.6,1.5,0.6,2.1,0c0.6-0.6,0.6-1.5,0-2.1L-11.8,29z"/></g><g id="chevron"><path d="M7.4,9.7l5.8-4.8c0.4-0.4,1-0.4,1.4,0l0,0c0.4,0.4,0.4,1,0,1.4l-5.8,4.8 c-0.4,0.4-1,0.4-1.4,0l0,0C7,10.7,7,10.1,7.4,9.7z"/><path d="M7.2,11.1L1.4,6.3C1,5.9,1,5.3,1.4,4.9l0,0c0.4-0.4,1-0.4,1.4,0l5.8,4.8c0.4,0.4,0.4,1,0,1.4 l0,0C8.3,11.5,7.6,11.5,7.2,11.1z"/></g><g id="close"><path d="M15 7H9V1c0-.6-.4-1-1-1S7 .4 7 1v6H1c-.6 0-1 .4-1 1s.4 1 1 1h6v6c0 .6.4 1 1 1s1-.4 1-1V9h6c.6 0 1-.4 1-1s-.4-1-1-1z" transform="rotate(45,8,8)"/></g><g id="bg-close"><defs><linearGradient id="bgGradient" x1="0" x2="0" y1="0" y2="1"><stop offset="0%" stop-color="var(--gradient-start-color)"/><stop offset="100%" stop-color="var(--gradient-end-color)"/></linearGradient></defs><circle fill="url(#bgGradient)" stroke-width="0" cx="8" cy="8" r="8"/><path d="M11.5 4.5L4.5 11.5"/><path d="M11.5 11.5L4.5 4.5"/></g><g id="ellipsis"><circle cx="14.143" cy="8" r="1.857"/><circle cx="7.996" cy="8" r="1.857"/><circle cx="1.857" cy="8" r="1.857"/></g><g id="gear"><path d="M14.9 10.1l-1.3-.7c.1-.4.2-.9.2-1.3 0-.5-.1-.9-.2-1.3l1.3-.7c.5-.3.6-.9.4-1.4l-.6-1.1c-.3-.5-.9-.6-1.4-.4l-1.3.7c-.6-.6-1.4-1.1-2.3-1.3V1c0-.5-.5-1-1-1H7.3c-.5 0-1 .5-1 1v1.5c-.8.3-1.6.7-2.3 1.3l-1.3-.7c-.4-.3-1-.1-1.3.3L.7 4.6c-.2.4-.1 1 .4 1.3l1.3.8c-.1.4-.2.8-.2 1.3s.1.9.2 1.3l-1.3.8c-.5.3-.6.9-.4 1.4l.6 1.1c.3.5.9.6 1.4.4l1.3-.8c.6.6 1.4 1.1 2.3 1.3V15c0 .5.5 1 1 1h1.3c.5 0 1-.5 1-1v-1.5c.9-.3 1.7-.7 2.3-1.3l1.3.7c.5.3 1.1.1 1.4-.4l.6-1.1c.3-.4.1-1-.3-1.3zM8 11.6C6 11.6 4.4 10 4.4 8S6 4.4 8 4.4 11.6 6 11.6 8 10 11.6 8 11.6z"/></g><g id="magnifying-glass"><path d="M15.7 14.4l-4.5-4.5c2-2.8 1.4-6.7-1.3-8.7 -2.8-2-6.7-1.4-8.7 1.3 -2 2.8-1.4 6.7 1.3 8.7 2.2 1.6 5.2 1.6 7.4 0l4.5 4.5c0.4 0.4 1 0.4 1.3 0C16.1 15.4 16.1 14.8 15.7 14.4zM1.9 6.3c0-2.4 2-4.4 4.4-4.4 2.4 0 4.4 2 4.4 4.4 0 2.4-2 4.4-4.4 4.4C3.8 10.6 1.9 8.7 1.9 6.3L1.9 6.3z"/></g><g id="plus"><path d="M15 7H9V1c0-.6-.4-1-1-1S7 .4 7 1v6H1c-.6 0-1 .4-1 1s.4 1 1 1h6v6c0 .6.4 1 1 1s1-.4 1-1V9h6c.6 0 1-.4 1-1s-.4-1-1-1z"/></g><g id="play"><path d="M3 13.6L13 8 3 2.4v11.2z" clip-rule="evenodd" fill="none" stroke="currentColor" stroke-width="2" stroke-linecap="round" stroke-linejoin="round" stroke-miterlimit="10"/></g><g id="profile"><circle cx="8" cy="4.6" r="2.9" clip-rule="evenodd" fill="none" stroke="currentColor" stroke-width="2" stroke-miterlimit="10"/><path d="M13 15s0-2.5-1.1-3.7c-1-1.1-3.8-1-3.9-1-.1 0-2.9-.1-3.9 1C3.1 12.5 3 15 3 15h10z" clip-rule="evenodd" fill="none" stroke="currentColor" stroke-width="2" stroke-miterlimit="10"/></g><g id="lock"><path d="M8,16a8,8,0,1,1,8-8A8,8,0,0,1,8,16ZM8,0.48A7.52,7.52,0,1,0,15.52,8,7.52,7.52,0,0,0,8,.48Z"/><path d="M9.74,7.28V4.67H6.21V7.28H5.38v4.36h5.23V7.28H9.74ZM7.51,9.79V8.94H8.38V9.79H7.51ZM7.13,7.23V5.52H8.81V7.23H7.13Z"/></g><g id="direct-link"><path d="M14.4,1.7c-1.4-1.4-3.4-1.5-4.8-0.2L8.7,2.5c-0.4,0.4-0.4,0.9,0,1.3s0.9,0.4,1.3,0l0.9-0.9 c0.7-0.7,1.6-0.4,2.2,0.2c0.3,0.3,0.5,0.7,0.5,1.2c0,0.4-0.2,0.8-0.5,1.2l-2.9,2.9C8.8,9.6,8.2,9,7.9,8.7C7.5,8.3,7,8.3,6.6,8.7 c-0.4,0.4-0.4,0.9,0,1.3c0.6,0.6,1.3,0.9,2.1,0.9c0.9,0,1.9-0.5,2.8-1.4l2.9-2.9c0.7-0.7,1-1.5,1-2.5C15.4,3.3,15,2.4,14.4,1.7z M6,12.3l-0.7,0.7c-0.6,0.6-1.7,0.6-2.4,0c-0.3-0.3-0.5-0.7-0.5-1.2c0-0.4,0.2-0.8,0.5-1.2L5.7,8c0.6-0.6,1.6-1.4,2.4-0.6 c0.4,0.4,0.9,0.4,1.3,0c0.4-0.4,0.4-0.9,0-1.3C8.1,4.8,6.1,5,4.4,6.7L1.6,9.5c-0.7,0.7-1,1.5-1,2.5s0.4,1.8,1,2.5 c0.7,0.7,1.6,1,2.5,1c0.9,0,1.8-0.3,2.5-1l0.7-0.7c0.4-0.4,0.4-0.9,0-1.3C7,12,6.4,12,6,12.3z"/></g><g id="naver" viewBox="0 0 40 40"><path d="M0.00298526 39.7342C0.00298526 40.0322 -0.0458086 39.999 0.266138 39.999C13.4242 39.9994 26.5822 39.9994 39.7403 39.9994C39.9128 39.9994 39.9991 39.911 39.9992 39.7342V20.0286C39.9992 13.4392 39.9992 6.84974 39.9988 0.2603C39.9988 -0.0380928 40.0345 0.00340384 39.7492 0.00340384C26.5843 0.00277828 13.4192 0.00277808 0.254253 0.00319512C-0.0428882 0.00319512 0.00298526 -0.0230793 0.00298526 0.2603C0.0023597 13.4183 0.00215118 26.5764 0.00298526 39.7344V39.7342ZM8.00203 9.6973C8.01495 9.29152 8.2754 9.02565 8.68222 9.00313C8.7306 9.00042 8.77939 9.00209 8.82797 9.00209C11.2789 9.00209 13.7299 9.00209 16.1808 9.00209C16.2085 9.00209 16.2363 9.00272 16.2642 9.00209C16.5509 8.99604 16.7645 9.11511 16.9313 9.35178C17.7262 10.4807 18.5277 11.6053 19.3268 12.7313C20.4993 14.3838 21.6714 16.0363 22.8439 17.6886C22.8829 17.7437 22.9233 17.7975 22.9629 17.8519C22.9754 17.8477 22.988 17.8436 23.0005 17.8394V17.6133C23.0005 15.0166 23.0005 12.4197 23.0005 9.82303C23.0005 9.71919 22.9967 9.61577 23.0257 9.51297C23.1028 9.2396 23.2765 9.07111 23.5564 9.02002C23.6377 9.00522 23.7219 9.00271 23.8049 9.00251C26.2699 9.00167 28.7346 9.00188 31.1995 9.00146C31.2969 9.00146 31.3938 9.00376 31.4893 9.02524C31.7681 9.088 31.9762 9.32738 31.9962 9.61284C32.0017 9.68895 31.9994 9.76548 31.9994 9.8418C31.9994 16.6183 31.9958 23.395 32.0064 30.1715C32.0073 30.7109 31.7151 31.0103 31.172 31.0068C28.721 30.991 26.2701 31.0001 23.8191 30.9991C23.7153 30.9991 23.6089 31.0005 23.5082 30.9795C23.3141 30.9388 23.1848 30.8062 23.073 30.6481C22.2475 29.4813 21.4193 28.3163 20.5923 27.1504C19.4479 25.5375 18.304 23.9244 17.159 22.3121C17.1196 22.2567 17.09 22.1922 17.0161 22.1426C16.9872 22.2198 17.0015 22.2942 17.0015 22.3651C17.0005 24.9689 16.992 27.5725 17.008 30.1763C17.0111 30.6982 16.7288 31.0106 16.1683 31.0068C13.7244 30.9903 11.2804 30.9997 8.83632 30.9997C8.23661 30.9997 8.00161 30.7668 8.00161 30.1723C8.00161 23.3958 8.00161 16.6191 8.00161 9.84263C8.00161 9.79405 8.00036 9.74546 8.00182 9.69688L8.00203 9.6973Z"/></g><g id="facebook" transform="translate(21.000000, 12.000000)"><path d="M-14.7,4.1v-7.9h-1.6v-2.6h1.6v-1.6c0-2.1,0.6-3.7,3-3.7h2.8v2.6h-2c-1,0-1.2,0.7-1.2,1.3v1.3h3l-0.4,2.6h-2.6v7.9H-14.7z"/></g><g id="facebook-square" transform="scale(.8)"><path d="M17 1h-14c-1.1 0-2 0.9-2 2v14c0 1.101 0.9 2 2 2h7v-7h-2v-2.475h2v-2.050c0-2.164 1.212-3.684 3.766-3.684l1.803 0.002v2.605h-1.197c-0.994 0-1.372 0.746-1.372 1.438v1.69h2.568l-0.568 2.474h-2v7h4c1.1 0 2-0.899 2-2v-14c0-1.1-0.9-2-2-2z"/></g><g id="gplus"><path d="M10.3,6.2c0.1,0.4,0.1,0.7,0.1,1.1c0,3.1-2,5.3-4.9,5.3c-2.8,0-5.1-2.4-5.1-5.4s2.3-5.4,5.1-5.4c1.4,0,2.6,0.5,3.4,1.4 L7.4,4.7v0c-0.5-0.5-1.2-0.8-2-0.8c-1.7,0-3.1,1.5-3.1,3.3c0,1.8,1.4,3.3,3.1,3.3C7,10.5,8,9.6,8.2,8.3H5.4V6.2H10.3z M14.1,6.5V4.9 h-1.3v1.7h-1.6v1.4h1.6v1.7h1.3V7.9h1.6V6.5H14.1z"/></g><g id="instagram"><path d="M 15.926 4.997 C 15.938 4.199 15.795 3.407 15.506 2.662 C 14.998 1.422 13.913 0.511 12.603 0.224 C 11.99 0.09 11.365 0.023 10.738 0.025 C 10.691 0.02 10.644 0.011 10.598 0 L 5.337 0 C 5.215 0.011 5.095 0.029 4.979 0.031 C 4.179 0.019 3.385 0.162 2.639 0.451 C 1.398 0.958 0.486 2.043 0.199 3.352 C 0.057 3.964 -0.01 4.591 -0.001 5.219 C -0.011 6.989 -0.024 8.757 -0.011 10.525 C -0.035 11.296 0.053 12.066 0.25 12.812 C 0.675 14.391 1.996 15.567 3.614 15.807 C 4.494 15.946 5.386 16 6.277 15.969 C 7.667 15.973 9.056 15.977 10.446 15.957 C 11.228 15.981 12.009 15.895 12.766 15.702 C 14.362 15.288 15.552 13.956 15.785 12.324 C 15.882 11.81 15.884 11.277 15.93 10.752 C 15.934 10.706 15.945 10.661 15.952 10.615 L 15.952 5.357 C 15.946 5.237 15.928 5.117 15.926 4.997 Z M 14.486 10.569 C 14.498 11.149 14.44 11.729 14.313 12.296 C 14.076 13.42 13.14 14.262 11.997 14.381 C 11.323 14.472 10.643 14.517 9.963 14.514 C 8.515 14.532 7.068 14.532 5.62 14.514 C 4.96 14.535 4.3 14.474 3.655 14.334 C 2.53 14.098 1.687 13.162 1.568 12.019 C 1.477 11.345 1.433 10.664 1.437 9.984 C 1.418 8.538 1.418 7.091 1.437 5.644 C 1.416 4.984 1.477 4.324 1.617 3.68 C 1.853 2.554 2.79 1.711 3.935 1.593 C 4.609 1.502 5.289 1.457 5.969 1.46 C 7.416 1.442 8.864 1.442 10.312 1.46 C 10.972 1.439 11.632 1.5 12.277 1.64 C 13.402 1.877 14.245 2.812 14.363 3.955 C 14.448 4.624 14.493 5.298 14.497 5.973 C 14.518 6.651 14.502 9.714 14.486 10.569 Z" bx:origin="0.5 0.501"/><path d="M 7.948 3.86 C 4.836 3.863 2.895 7.288 4.454 10.024 C 6.012 12.76 9.902 12.756 11.456 10.016 C 11.808 9.395 11.994 8.69 11.995 7.973 C 11.993 5.702 10.183 3.862 7.948 3.86 Z M 7.939 10.617 C 5.932 10.606 4.687 8.392 5.699 6.629 C 6.712 4.868 9.222 4.88 10.218 6.652 C 10.445 7.055 10.562 7.511 10.561 7.974 C 10.556 9.439 9.382 10.622 7.939 10.617 Z" bx:origin="0.501 0.501"/><path d="M 12.265 2.755 C 11.552 2.75 11.1 3.548 11.452 4.191 C 11.805 4.834 12.697 4.84 13.058 4.202 C 13.14 4.057 13.184 3.891 13.185 3.723 C 13.19 3.192 12.777 2.757 12.265 2.755 Z" bx:origin="0.554 0.462"/></g><g id="twitch"><path id="Dialog" d="M11.3,13.5h-3l-1.5,2h-2v-2H1.2V3l1-2.6h13.1v9.1L11.3,13.5z M13.8,9V1.9H3.2v9.6h3v2l2-2h3L13.8,9z"/><rect id="_x7C_" x="9.8" y="4.5" width="1.5" height="4"/><rect id="_x7C__1_" x="6.7" y="4.5" width="1.5" height="4"/></g><g id="twitter"><path d="M15.8,2.8c-0.6,0.3-1.2,0.4-1.8,0.5c0.7-0.4,1.2-1,1.4-1.7c-0.6,0.4-1.3,0.6-2,0.8c-0.6-0.6-1.4-1-2.3-1 c-1.7,0-3.2,1.4-3.2,3.2c0,0.2,0,0.5,0.1,0.7C5.4,5.1,3,3.8,1.5,1.9C1.2,2.4,1,2.9,1,3.5c0,1.1,0.6,2.1,1.4,2.6C1.9,6.1,1.4,6,1,5.8 c0,0,0,0,0,0c0,1.5,1.1,2.8,2.5,3.1C3.3,9,3,9,2.7,9C2.5,9,2.3,9,2.1,9c0.4,1.3,1.6,2.2,3,2.2C4,12,2.6,12.5,1.2,12.5 c-0.3,0-0.5,0-0.8,0c1.4,0.9,3.1,1.4,4.8,1.4c5.8,0,9-4.8,9-9c0-0.1,0-0.3,0-0.4C14.8,4,15.4,3.5,15.8,2.8z"/></g><g id="spotify"><path d="M8,0a8,8,0,1,0,8,8A8,8,0,0,0,8,0Zm3.669,11.539a.5.5,0,0,1-.686.166,9.2,9.2,0,0,0-7.028-.772.5.5,0,1,1-.222-.972,10.159,10.159,0,0,1,7.77.892A.5.5,0,0,1,11.669,11.539Zm.979-2.179a.624.624,0,0,1-.858.206,10.5,10.5,0,0,0-7.972-.932A.624.624,0,0,1,3.456,7.44,11.668,11.668,0,0,1,12.443,8.5.624.624,0,0,1,12.648,9.36Zm.084-2.268C10.153,5.561,5.9,5.42,3.438,6.167A.748.748,0,1,1,3,4.735c2.826-.858,7.523-.692,10.492,1.07a.748.748,0,0,1-.764,1.287Z"/></g><g id="linkedin"><path d="M14.816,0H1.179A1.166,1.166,0,0,0,0,1.154H0V14.846A1.167,1.167,0,0,0,1.178,16H14.816A1.172,1.172,0,0,0,16,14.846V1.154A1.17,1.17,0,0,0,14.816,0ZM4.745,13.634H2.371V6H4.745ZM3.558,4.955A1.377,1.377,0,1,1,4.934,3.577h0A1.376,1.376,0,0,1,3.561,4.955h0Zm10.08,8.679H11.262V9.92c0-.885-.016-2.025-1.234-2.025-1.234,0-1.423.964-1.423,1.962v3.777H6.234V6H8.51V7.04h.032a2.5,2.5,0,0,1,2.247-1.234c2.4,0,2.847,1.582,2.847,3.638Z"/></g><g id="vk"><path d="M7.829 12.525h.956s.289-.03.438-.188c.137-.146.131-.421.131-.421s-.021-1.285.578-1.475c.586-.188 1.34 1.24 2.139 1.789.604.416 1.063.324 1.063.324l2.139-.029s1.117-.067.588-.947c-.043-.069-.311-.647-1.59-1.838-1.34-1.242-1.16-1.041.455-3.193.979-1.309 1.375-2.109 1.252-2.451-.117-.326-.84-.24-.84-.24l-2.408.015s-.18-.024-.313.055c-.129.076-.212.258-.212.258s-.382 1.014-.89 1.876c-1.07 1.817-1.5 1.915-1.676 1.802-.406-.264-.301-1.058-.301-1.624 0-1.763.269-2.498-.521-2.688-.26-.063-.456-.105-1.125-.112-.857-.007-1.584.003-1.995.206-.274.134-.485.433-.356.45.158.02.52.096.711.356.246.336.238 1.09.238 1.09s.142 2.074-.332 2.332c-.324.177-.77-.184-1.725-1.834-.488-.846-.859-1.78-.859-1.78s-.069-.175-.197-.27c-.154-.113-.37-.148-.37-.148l-2.286.014s-.344.011-.469.159c-.112.133-.01.406-.01.406s1.791 4.188 3.815 6.3c1.861 1.933 3.972 1.806 3.972 1.806z"/></g><g id="snapchat"><path d="M8.14,15.37H7.94a3.43,3.43,0,0,1-2.1-.83,3.07,3.07,0,0,0-1.22-.62A3.94,3.94,0,0,0,4,13.86a4.37,4.37,0,0,0-.89.1,2,2,0,0,1-.33,0,0.21,0.21,0,0,1-.23-0.16c0-.13-0.06-0.25-0.09-0.36A0.58,0.58,0,0,0,2.2,13c-1.48-.23-1.9-0.54-2-0.76a0.28,0.28,0,0,1,0-.09,0.17,0.17,0,0,1,.14-0.17A4.89,4.89,0,0,0,3.65,9.16h0a0.86,0.86,0,0,0,.08-0.73,1.53,1.53,0,0,0-1-.63L2.52,7.72C1.85,7.45,1.79,7.18,1.82,7a0.63,0.63,0,0,1,.62-0.4,0.43,0.43,0,0,1,.18,0,2,2,0,0,0,.81.21,0.67,0.67,0,0,0,.48-0.15c0-.15,0-0.31,0-0.48a7.93,7.93,0,0,1,.19-3.16A4.1,4.1,0,0,1,7.87.64H8.19A4.11,4.11,0,0,1,12,3.09a7.93,7.93,0,0,1,.19,3.16v0c0,0.15,0,.29,0,0.43a0.64,0.64,0,0,0,.44.15h0a2,2,0,0,0,.76-0.21,0.57,0.57,0,0,1,.24,0,0.72,0.72,0,0,1,.27.05h0a0.5,0.5,0,0,1,.38.41,0.83,0.83,0,0,1-.71.63l-0.22.07a1.53,1.53,0,0,0-1,.63,0.86,0.86,0,0,0,.08.73h0a4.89,4.89,0,0,0,3.33,2.79,0.17,0.17,0,0,1,.14.17,0.28,0.28,0,0,1,0,.09c-0.09.22-.52,0.53-2,0.76a0.56,0.56,0,0,0-.24.51c0,0.12-.05.24-0.09,0.36a0.2,0.2,0,0,1-.21.16h0L13,14a4.41,4.41,0,0,0-.89-0.09,3.93,3.93,0,0,0-.64.05,3.06,3.06,0,0,0-1.22.62,3.44,3.44,0,0,1-2.11.83" transform="translate(-0.19 -0.63)"/></g><g id="discord" viewBox="0 0 71 55"><path d="M60.1045 4.8978C55.5792 2.8214 50.7265 1.2916 45.6527 0.41542C45.5603 0.39851 45.468 0.440769 45.4204 0.525289C44.7963 1.6353 44.105 3.0834 43.6209 4.2216C38.1637 3.4046 32.7345 3.4046 27.3892 4.2216C26.905 3.0581 26.1886 1.6353 25.5617 0.525289C25.5141 0.443589 25.4218 0.40133 25.3294 0.41542C20.2584 1.2888 15.4057 2.8186 10.8776 4.8978C10.8384 4.9147 10.8048 4.9429 10.7825 4.9795C1.57795 18.7309 -0.943561 32.1443 0.293408 45.3914C0.299005 45.4562 0.335386 45.5182 0.385761 45.5576C6.45866 50.0174 12.3413 52.7249 18.1147 54.5195C18.2071 54.5477 18.305 54.5139 18.3638 54.4378C19.7295 52.5728 20.9469 50.6063 21.9907 48.5383C22.0523 48.4172 21.9935 48.2735 21.8676 48.2256C19.9366 47.4931 18.0979 46.6 16.3292 45.5858C16.1893 45.5041 16.1781 45.304 16.3068 45.2082C16.679 44.9293 17.0513 44.6391 17.4067 44.3461C17.471 44.2926 17.5606 44.2813 17.6362 44.3151C29.2558 49.6202 41.8354 49.6202 53.3179 44.3151C53.3935 44.2785 53.4831 44.2898 53.5502 44.3433C53.9057 44.6363 54.2779 44.9293 54.6529 45.2082C54.7816 45.304 54.7732 45.5041 54.6333 45.5858C52.8646 46.6197 51.0259 47.4931 49.0921 48.2228C48.9662 48.2707 48.9102 48.4172 48.9718 48.5383C50.038 50.6034 51.2554 52.5699 52.5959 54.435C52.6519 54.5139 52.7526 54.5477 52.845 54.5195C58.6464 52.7249 64.529 50.0174 70.6019 45.5576C70.6551 45.5182 70.6887 45.459 70.6943 45.3942C72.1747 30.0791 68.2147 16.7757 60.1968 4.9823C60.1772 4.9429 60.1437 4.9147 60.1045 4.8978Z M23.7259 37.3253C20.2276 37.3253 17.3451 34.1136 17.3451 30.1693C17.3451 26.225 20.1717 23.0133 23.7259 23.0133C27.308 23.0133 30.1626 26.2532 30.1066 30.1693C30.1066 34.1136 27.28 37.3253 23.7259 37.3253Z M47.3178 37.3253C43.8196 37.3253 40.9371 34.1136 40.9371 30.1693C40.9371 26.225 43.7636 23.0133 47.3178 23.0133C50.9 23.0133 53.7545 26.2532 53.6986 30.1693C53.6986 34.1136 50.9 37.3253 47.3178 37.3253Z"/></g><g id="line" viewBox="0 0 120 120"><path d="M94.1328,76.538 C84.9658,87.089 64.4688,99.939 59.8048,101.904 C55.1428,103.869 55.8298,100.653 56.0208,99.549 C56.1318,98.892 56.6438,95.809 56.6438,95.809 C56.7908,94.693 56.9438,92.963 56.5028,91.858 C56.0128,90.642 54.0768,90.011 52.6538,89.704 C31.6578,86.929 16.1138,72.25 16.1138,54.724 C16.1138,35.173 35.7158,19.267 59.8048,19.267 C83.8968,19.267 103.4958,35.173 103.4958,54.724 C103.4958,62.548 100.4628,69.594 94.1308,76.538 L94.1328,76.538 Z M93.9998,0 L25.9998,0 C11.6408,0 -0.0002,11.641 -0.0002,26 L-0.0002,94 C-0.0002,108.359 11.6408,120 25.9998,120 L93.9998,120 C108.3598,120 119.9998,108.359 119.9998,94 L119.9998,26 C119.9998,11.641 108.3598,0 93.9998,0 L93.9998,0 Z"/><path d="M50.9282,45.2758 L47.8632,45.2758 C47.3932,45.2758 47.0122,45.6568 47.0122,46.1258 L47.0122,65.1628 C47.0122,65.6318 47.3932,66.0118 47.8632,66.0118 L50.9282,66.0118 C51.3972,66.0118 51.7792,65.6318 51.7792,65.1628 L51.7792,46.1258 C51.7792,45.6568 51.3972,45.2758 50.9282,45.2758 M72.022,45.2758 L68.958,45.2758 C68.487,45.2758 68.106,45.6568 68.106,46.1258 L68.106,57.4358 L59.382,45.6538 C59.362,45.6238 59.339,45.5948 59.316,45.5678 C59.314,45.5658 59.312,45.5638 59.311,45.5628 C59.294,45.5438 59.276,45.5258 59.259,45.5098 C59.254,45.5048 59.249,45.4998 59.244,45.4958 C59.229,45.4828 59.214,45.4688 59.198,45.4578 C59.191,45.4508 59.184,45.4458 59.176,45.4408 C59.162,45.4298 59.147,45.4198 59.132,45.4098 C59.124,45.4038 59.115,45.3998 59.106,45.3948 C59.091,45.3858 59.076,45.3768 59.061,45.3688 C59.052,45.3648 59.043,45.3598 59.034,45.3558 C59.018,45.3488 59.002,45.3418 58.985,45.3358 C58.975,45.3318 58.967,45.3288 58.957,45.3258 C58.941,45.3188 58.924,45.3138 58.907,45.3088 C58.897,45.3068 58.888,45.3038 58.877,45.3018 C58.861,45.2968 58.845,45.2938 58.828,45.2908 C58.816,45.2888 58.804,45.2868 58.793,45.2858 C58.778,45.2828 58.763,45.2818 58.748,45.2798 C58.733,45.2788 58.719,45.2778 58.704,45.2768 C58.693,45.2768 58.684,45.2758 58.674,45.2758 L55.609,45.2758 C55.14,45.2758 54.758,45.6568 54.758,46.1258 L54.758,65.1628 C54.758,65.6318 55.14,66.0118 55.609,66.0118 L58.674,66.0118 C59.144,66.0118 59.525,65.6318 59.525,65.1628 L59.525,53.8568 L68.26,65.6528 C68.32,65.7378 68.395,65.8078 68.476,65.8628 C68.479,65.8648 68.482,65.8668 68.485,65.8698 C68.502,65.8808 68.52,65.8918 68.538,65.9008 C68.546,65.9058 68.553,65.9108 68.562,65.9148 C68.575,65.9218 68.589,65.9288 68.603,65.9348 C68.616,65.9408 68.629,65.9458 68.644,65.9518 C68.653,65.9558 68.66,65.9588 68.669,65.9618 C68.689,65.9688 68.708,65.9748 68.727,65.9808 C68.731,65.9808 68.735,65.9828 68.74,65.9828 C68.809,66.0018 68.882,66.0118 68.958,66.0118 L72.022,66.0118 C72.492,66.0118 72.873,65.6318 72.873,65.1628 L72.873,46.1258 C72.873,45.6568 72.492,45.2758 72.022,45.2758 M43.5405,61.2451 L35.2135,61.2451 L35.2135,46.1261 C35.2135,45.6571 34.8325,45.2761 34.3635,45.2761 L31.2985,45.2761 C30.8285,45.2761 30.4475,45.6571 30.4475,46.1261 L30.4475,65.1611 L30.4475,65.1621 C30.4475,65.3911 30.5385,65.5981 30.6855,65.7501 C30.6885,65.7541 30.6915,65.7591 30.6965,65.7631 C30.7005,65.7671 30.7055,65.7711 30.7085,65.7751 C30.8625,65.9221 31.0685,66.0121 31.2965,66.0121 L31.2985,66.0121 L43.5405,66.0121 C44.0105,66.0121 44.3905,65.6311 44.3905,65.1611 L44.3905,62.0961 C44.3905,61.6261 44.0105,61.2451 43.5405,61.2451 M88.9458,50.0429 C89.4158,50.0429 89.7958,49.6619 89.7958,49.1919 L89.7958,46.1279 C89.7958,45.6569 89.4158,45.2759 88.9458,45.2759 L76.7028,45.2759 L76.7018,45.2759 C76.4718,45.2759 76.2658,45.3679 76.1118,45.5159 C76.1088,45.5199 76.1048,45.5219 76.1018,45.5249 C76.0968,45.5299 76.0918,45.5349 76.0888,45.5399 C75.9428,45.6919 75.8518,45.8989 75.8518,46.1259 L75.8518,46.1279 L75.8518,65.1619 L75.8518,65.1629 C75.8518,65.3909 75.9438,65.5979 76.0908,65.7509 C76.0938,65.7539 76.0978,65.7589 76.1018,65.7639 C76.1058,65.7669 76.1108,65.7709 76.1138,65.7739 C76.2668,65.9209 76.4738,66.0129 76.7018,66.0129 L76.7028,66.0129 L88.9458,66.0129 C89.4158,66.0129 89.7958,65.6309 89.7958,65.1619 L89.7958,62.0969 C89.7958,61.6269 89.4158,61.2459 88.9458,61.2459 L80.6188,61.2459 L80.6188,58.0269 L88.9458,58.0269 C89.4158,58.0269 89.7958,57.6469 89.7958,57.1759 L89.7958,54.1119 C89.7958,53.6419 89.4158,53.2599 88.9458,53.2599 L80.6188,53.2599 L80.6188,50.0429 L88.9458,50.0429 Z"/></g><g id="tiktok" viewBox="0 0 151 151"><path d="M140.303 37.0368C137.104 37.3883 130.663 36.3776 124.09 33.0815C123.082 32.5541 122.074 31.9828 121.11 31.3676C118.306 29.5218 115.765 27.3684 113.486 24.9073C107.833 18.4471 105.686 11.8989 104.941 7.28446C104.284 3.46105 104.591 1 104.591 1H78.7817V100.76C78.7817 104.188 78.7817 107.572 77.5986 110.868C75.7144 116.274 71.6831 121.108 66.3372 123.261C59.2824 126.118 53.5422 126.162 47.1885 122.778C46.3121 122.294 45.4357 121.767 44.5593 121.152C36.8911 115.746 35.4889 107.66 35.5327 101.947C36.4091 94.1682 39.4764 89.8174 45.2166 85.3788C53.4107 79.358 63.7081 82.7419 63.7081 82.7419V56.6812C58.9318 55.978 54.0242 56.0659 49.2479 56.9009C46.0492 57.4722 42.938 58.3951 39.9584 59.6257C35.1822 61.4714 30.7127 64.1083 26.8128 67.4483C22.3871 71.3156 18.6187 75.8861 15.7267 81.028C14.6312 82.9177 10.5123 90.4327 10.0303 102.65C9.72353 109.594 11.8268 116.757 12.7908 119.746V119.746C13.4481 121.547 15.8581 127.524 19.8018 132.534C23.0006 136.577 26.769 140.137 30.9756 143.038C43.4639 151.563 57.3544 150.992 57.3544 150.992C57.5735 150.992 57.7926 150.992 58.0555 150.992C61.079 150.904 68.5281 150.64 76.8975 146.685C87.0196 141.895 92.8036 134.775 92.8036 134.775C92.8913 134.688 92.9789 134.556 93.1104 134.424C94.4687 132.798 98.6753 127.788 101.48 120.405C103.846 114.296 104.591 106.957 104.591 104.012V51.1878C104.941 51.3636 109.104 54.1322 109.104 54.1322C109.104 54.1322 115.151 57.9557 124.528 60.4607C131.233 62.2625 140.303 62.6141 140.303 62.6141V37.0368V37.0368Z"/></g><g id="privacy" viewBox="0 0 30 14"><path style="fill: #0066ff;" d="M22.6,0H7.4c-3.9,0-7,3.1-7,7s3.1,7,7,7h15.2c3.9,0,7-3.1,7-7S26.4,0,22.6,0z M1.6,7c0-3.2,2.6-5.8,5.8-5.8 h9.9l-3.1,11.6H7.4C4.2,12.8,1.6,10.2,1.6,7z"/><path style="fill: #ffffff;" d="M7.4,12.8h6.8l3.1-11.6H7.4C4.2,1.2,1.6,3.8,1.6,7S4.2,12.8,7.4,12.8z"/><path style="fill: #0066ff;" d="M12.7,4.1c0.2,0.2,0.3,0.6,0.1,0.8l0,0L8.6,9.8C8.5,9.9,8.4,10,8.3,10c-0.2,0.1-0.5,0.1-0.7-0.1l0,0 L5.4,7.7c-0.2-0.2-0.2-0.6,0-0.8c0.2-0.2,0.6-0.2,0.8,0l0,0L8,8.6l3.8-4.5C12,3.9,12.4,3.9,12.7,4.1z"/><path style="fill: #ffffff;" d="M24.6,4c0.2,0.2,0.2,0.6,0,0.8l0,0L22.5,7l2.2,2.2c0.2,0.2,0.2,0.6,0,0.8c-0.2,0.2-0.6,0.2-0.8,0 l0,0l-2.2-2.2L19.5,10c-0.2,0.2-0.6,0.2-0.8,0c-0.2-0.2-0.2-0.6,0-0.8l0,0L20.8,7l-2.2-2.2c-0.2-0.2-0.2-0.6,0-0.8 c0.2-0.2,0.6-0.2,0.8,0l0,0l2.2,2.2L23.8,4C24,3.8,24.4,3.8,24.6,4z"/></g><g id="platform-xbox" stroke-width="0"><path d="M2.388,2.3l-.008.007h0a8,8,0,0,0-.744,10.537.036.036,0,0,0,.043.013.032.032,0,0,0,.009-.041C1.078,10.932,4.2,6.361,5.806,4.445a.042.042,0,0,0,.012-.024A.037.037,0,0,0,5.8,4.4C3.094,1.7,2.37,2.316,2.38,2.307"/><path d="M13.613,2.3l.008.007h0a8,8,0,0,1,.744,10.537.035.035,0,0,1-.043.013.034.034,0,0,1-.009-.041c.61-1.886-2.5-6.46-4.115-8.376a.037.037,0,0,1-.012-.023.034.034,0,0,1,.015-.027c2.71-2.7,3.428-2.076,3.419-2.084"/><path d="M8,0a7.886,7.886,0,0,1,4.167,1.171.03.03,0,0,1,.013.04.031.031,0,0,1-.039.013c-1.548-.335-3.9,1-4.125,1.137a.025.025,0,0,1-.034,0C7.392,2.022,5.216.881,3.846,1.232a.03.03,0,0,1-.025-.054A7.878,7.878,0,0,1,8,0"/><path d="M8,6.416a.045.045,0,0,1,.025.013c2.394,1.82,6.491,6.32,5.24,7.592l0,0v0h0a7.995,7.995,0,0,1-10.531,0l0,0,0,0C1.485,12.748,5.581,8.249,7.973,6.428A.053.053,0,0,1,8,6.416"/></g><g id="platform-nintendo" stroke-width="0"><path d="M3.47.05a4.15,4.15,0,0,0-3.28,3C0,3.63,0,4,0,8.3a32.14,32.14,0,0,0,.08,4.39,4.13,4.13,0,0,0,3.22,3.23,13.65,13.65,0,0,0,2.3.08,8.2,8.2,0,0,0,2.1,0V.07c0-.09-.07-.07-2-.07A16.75,16.75,0,0,0,3.47.05Zm3,8v6.71H5.13a6.86,6.86,0,0,1-1.63-.08,2.81,2.81,0,0,1-2.08-2.17c-.07-.33-.07-8.58,0-8.9a2.84,2.84,0,0,1,1.7-2.12A5,5,0,0,1,5.18,1.3H6.46Z"/><path d="M3.75,3.32a2.07,2.07,0,0,0-.7.34A1.53,1.53,0,0,0,2.56,4.9a1.11,1.11,0,0,0,.14.54,1.5,1.5,0,0,0,.71.72A1,1,0,0,0,4,6.29a1.19,1.19,0,0,0,.53-.06,1.51,1.51,0,0,0-.76-2.91Z"/><path d="M9.4,0V8c0,7.22,0,8,0,8h3a4.13,4.13,0,0,0,3.18-2.19,4.23,4.23,0,0,0,.25-.58c.21-.62.2-.45.2-5.21,0-3.81,0-4.37,0-4.61A4.13,4.13,0,0,0,12.61.05a12.63,12.63,0,0,0-1.74,0C10,0,9.41,0,9.4,0Zm3.54,7.24a1.65,1.65,0,0,1,1.12,1,1.74,1.74,0,0,1,0,1.06,1.61,1.61,0,0,1-3-.05,2.13,2.13,0,0,1,0-.94A1.62,1.62,0,0,1,12.94,7.24Z"/></g><g id="platform-ps" stroke-width="0"><path d="M15.858,11.304c-0.313,0.394-1.078,0.676-1.078,0.676l-5.696,2.046v-1.509l4.192-1.494 c0.476-0.17,0.549-0.411,0.162-0.538c-0.386-0.127-1.085-0.09-1.561,0.081L9.083,11.55V9.984l0.161-0.055 c0,0,0.807-0.286,1.942-0.411c1.135-0.125,2.525,0.017,3.616,0.431C16.031,10.337,16.17,10.91,15.858,11.304z M9.625,8.735V4.876 c0-0.453-0.084-0.87-0.509-0.988C8.791,3.783,8.589,4.086,8.589,4.539v9.663l-2.606-0.827V1.853c1.108,0.206,2.722,0.692,3.59,0.984 c2.207,0.758,2.955,1.701,2.955,3.826C12.528,8.734,11.25,9.519,9.625,8.735z M1.201,12.359c-1.262-0.355-1.472-1.096-0.897-1.523 c0.532-0.394,1.436-0.69,1.436-0.69l3.737-1.329v1.515l-2.689,0.962c-0.475,0.17-0.548,0.412-0.162,0.538 c0.386,0.126,1.086,0.09,1.561-0.08l1.29-0.468v1.355c-0.082,0.015-0.173,0.029-0.257,0.043C3.929,12.894,2.555,12.806,1.201,12.359 L1.201,12.359z M15.028,12.959c0.163,0,0.316,0.063,0.431,0.18c0.115,0.115,0.179,0.268,0.179,0.431 c0,0.164-0.064,0.316-0.179,0.431c-0.115,0.116-0.268,0.179-0.431,0.179s-0.316-0.063-0.431-0.179 c-0.115-0.115-0.178-0.267-0.178-0.431C14.418,13.234,14.691,12.959,15.028,12.959z M14.52,13.57c0,0.136,0.053,0.263,0.149,0.358 c0.096,0.097,0.224,0.149,0.359,0.149c0.28,0,0.507-0.227,0.507-0.507c0-0.136-0.052-0.263-0.149-0.359 c-0.096-0.097-0.224-0.149-0.359-0.149c-0.135,0-0.263,0.052-0.359,0.149C14.573,13.307,14.52,13.434,14.52,13.57z M15.212,13.241 c0.067,0.029,0.101,0.086,0.101,0.167c0,0.041-0.009,0.076-0.027,0.104c-0.013,0.02-0.031,0.036-0.051,0.049 c0.016,0.009,0.03,0.021,0.041,0.034c0.015,0.019,0.023,0.049,0.024,0.09l0.003,0.087c0.001,0.023,0.003,0.041,0.006,0.052 c0.004,0.016,0.011,0.026,0.019,0.029l0.009,0.004v0.01v0.015v0.015h-0.015h-0.108h-0.009l-0.004-0.008 c-0.004-0.007-0.006-0.016-0.009-0.027c-0.002-0.01-0.004-0.027-0.005-0.053l-0.005-0.108c-0.001-0.037-0.014-0.061-0.038-0.073 c-0.015-0.007-0.04-0.01-0.073-0.01h-0.185v0.263v0.015h-0.015h-0.088h-0.015v-0.015v-0.649v-0.015h0.015h0.301 C15.135,13.218,15.178,13.226,15.212,13.241L15.212,13.241z M14.886,13.515h0.188c0.038,0,0.068-0.007,0.089-0.021 c0.02-0.014,0.029-0.04,0.029-0.077c0-0.041-0.013-0.067-0.042-0.081c-0.016-0.008-0.037-0.012-0.065-0.012h-0.2L14.886,13.515 L14.886,13.515z"/></g><g id="platform-origin" stroke-width="0"><path d="M8.391,2.059a6.09,6.09,0,0,0-1.057.024.08.08,0,0,1-.088-.088,3.953,3.953,0,0,1,.7-1.724A.181.181,0,0,0,7.985.176.164.164,0,0,0,7.832,0a.2.2,0,0,0-.1.024,12.386,12.386,0,0,0-5,5.215,5.942,5.942,0,0,0,4.873,8.669,5.772,5.772,0,0,0,1.057-.024.082.082,0,0,1,.088.088,3.953,3.953,0,0,1-.7,1.724.181.181,0,0,0-.037.095.166.166,0,0,0,.152.176.2.2,0,0,0,.1-.024,12.358,12.358,0,0,0,5-5.211A5.939,5.939,0,0,0,8.391,2.059Zm1.93,6.078A2.326,2.326,0,1,1,8.154,5.662,2.325,2.325,0,0,1,10.321,8.138Z"/></g><g id="platform-epic" stroke-width="0" viewBox="0 0 150 150"><path d="M129.92197,0 C138.743881,0 142,3.16440908 142,11.7428288 L142,115.254854 C142,116.225588 141.959446,117.127346 141.871213,117.962791 C141.67036,119.835284 141.632546,121.64972 139.840762,123.71556 C139.665941,123.917963 137.836617,125.241038 137.836617,125.241038 C136.852356,125.710027 136.180745,126.055444 135.07071,126.489545 L81.4747587,148.313901 C78.692137,149.553619 77.5286696,150.036722 75.5078094,149.99784 L75.499863,149.998106 L74.6711076,149.981861 C73.1055988,149.883251 71.9101107,149.376516 69.5252413,148.313901 L15.9290157,126.489545 C14.8192552,126.055444 14.1473706,125.710027 13.163383,125.241038 C13.163383,125.241038 11.3340592,123.917963 11.1589637,123.71556 C9.36718002,121.64972 9.32936595,119.835284 9.128513,117.962791 C9.0402802,117.127346 9,116.225588 9,115.254854 L9,11.7428288 C9,3.16440908 12.2558455,0 21.0780304,0 L129.92197,0 Z M101.386246,129.448036 L49.856641,129.448036 L75.0846481,137.878115 L101.386246,129.448036 Z M38.4186546,91.1280852 L37.3683554,91.1280852 L37.122564,91.1520541 L36.8781426,91.1760223 L36.389848,91.2236935 L36.1443307,91.2713648 L35.8999093,91.2953337 L35.6557621,91.343005 L35.436002,91.4146452 L35.1904847,91.4623165 L34.9709987,91.5339559 L34.7515128,91.5818937 L34.5301087,91.6772363 L34.2859613,91.7491423 L34.0908627,91.8205159 L33.8464414,91.9400931 L33.6255854,92.0354357 L33.4058254,92.1310448 L33.1863394,92.2503555 L32.9652094,92.3696669 L32.7454494,92.4892442 L32.5506248,92.6085557 L32.3538821,92.7278671 L32.1587834,92.8711467 L31.9623147,92.9904582 L31.7672161,93.1337378 L31.5965047,93.2770174 L31.4000361,93.4442667 L31.2295988,93.5872797 L30.8870801,93.921511 L30.7396601,94.0887595 L30.5692228,94.2557422 L30.4218028,94.4232574 L30.2757527,94.6142082 L30.1283327,94.8051591 L29.9825568,94.9961108 L29.8595241,95.1870616 L29.7370394,95.3780125 L29.6153768,95.56923 L29.4926181,95.7601816 L29.3698594,95.9751014 L29.2731321,96.1900212 L29.1747608,96.404941 L29.0766634,96.6198608 L28.9796621,96.8345148 L28.8812908,97.0734036 L28.8075808,97.2883233 L28.7338707,97.5269455 L28.6618048,97.7418653 L28.6124821,97.980754 L28.5387721,98.2193761 L28.4897234,98.4342959 L28.4653361,98.6731847 L28.4162874,98.9104754 L28.391352,99.1730664 L28.3683348,99.4119552 L28.3683348,99.6505773 L28.3439474,99.9131692 L28.3439474,100.701208 L28.3683348,100.939831 L28.391352,101.178719 L28.4162874,101.417608 L28.4404007,101.632262 L28.4897234,101.87115 L28.5143848,102.08607 L28.5634334,102.324692 L28.6371434,102.539879 L28.6861921,102.778501 L28.758532,102.993155 L28.8075808,103.208075 L28.9059521,103.42326 L28.9796621,103.614212 L29.0766634,103.828865 L29.1747608,104.043785 L29.3698594,104.473625 L29.4926181,104.664576 L29.6153768,104.879496 L29.7370394,105.070714 L29.8595241,105.261399 L30.005574,105.452616 L30.1283327,105.643567 L30.2757527,105.810815 L30.4218028,106.001767 L30.5692228,106.168749 L30.7396601,106.335998 L30.9117414,106.503247 L31.0821787,106.64626 L31.2542601,106.813509 L31.4246974,106.956789 L31.5965047,107.100068 L31.7918774,107.243349 L31.986976,107.386363 L32.1834448,107.529909 L32.5750121,107.768531 L32.7947721,107.887842 L32.9895967,108.006088 L33.2110008,108.125399 L33.4304867,108.221008 L33.6502467,108.31635 L33.8713768,108.411692 L34.1152501,108.507301 L34.3350101,108.578942 L34.55477,108.674283 L34.7759001,108.74619 L35.0200473,108.793861 L35.2398074,108.865501 L35.4853247,108.913172 L35.7048107,108.960843 L35.9492321,109.008781 L36.1933793,109.056452 L36.4391707,109.080421 L36.6833181,109.10439 L36.9274654,109.128085 L37.196274,109.152061 L37.4404213,109.175763 L38.4926387,109.175763 L38.7611733,109.152061 L39.0069647,109.128085 L39.2757734,109.10439 L39.5199207,109.080421 L39.7887293,109.056452 L40.0331507,109.032484 L40.278668,108.984812 L40.5228154,108.937141 L40.7425753,108.88947 L40.9883667,108.841798 L41.2078527,108.769892 L41.452,108.698519 L41.892616,108.554973 L42.11265,108.483332 L42.332136,108.387724 L42.5779274,108.292382 L42.7974134,108.196772 L43.0415606,108.10143 L43.2613206,107.981853 L43.4821767,107.887842 L43.7019366,107.768531 L43.9216966,107.648954 L44.1428267,107.529909 L44.3379254,107.410331 L44.534394,107.29102 L44.7294926,107.14774 L44.9245913,107.028429 L45.2917713,106.765571 L45.48824,106.622292 L45.6586773,106.479278 L45.6586773,98.7208559 L37.5878414,98.7208559 L37.5878414,102.205381 L41.158804,102.205381 L41.158804,104.378016 L40.9634314,104.497594 L40.791624,104.592936 L40.572138,104.688545 L40.3756693,104.784154 L40.1556354,104.879496 L39.9361494,104.927434 L39.692002,104.998807 L39.4462106,105.046479 L39.2020634,105.094416 L38.957916,105.118385 L38.4186546,105.166056 L37.85665,105.166056 L37.5878414,105.142087 L37.3436941,105.118385 L37.0995467,105.070714 L36.8537553,105.022776 L36.3651867,104.879496 L36.1443307,104.784154 L35.9248447,104.688545 L35.7048107,104.592936 L35.508342,104.473625 L35.3135174,104.354314 L35.1184187,104.211034 L34.9216761,104.067754 L34.7515128,103.924474 L34.6038187,103.757492 L34.4333814,103.590243 L34.2859613,103.42326 L34.1399114,103.232043 L34.0171527,103.041092 L33.894394,102.850141 L33.7730054,102.635221 L33.674908,102.420035 L33.5765367,102.181413 L33.5041967,101.990461 L33.4304867,101.775541 L33.3814381,101.560888 L33.3321153,101.345702 L33.2830667,101.131049 L33.2584053,100.89216 L33.234018,100.67724 L33.2110008,100.438617 L33.2110008,99.8892002 L33.234018,99.6505773 L33.2584053,99.4119552 L33.307728,99.1490983 L33.3567767,98.9344443 L33.4058254,98.696887 L33.4795354,98.4582649 L33.5765367,98.2433451 L33.6502467,98.0284253 L33.7483441,97.8135055 L33.8713768,97.6225538 L33.9924913,97.407634 L34.1152501,97.2166831 L34.2369127,97.0494346 L34.3843327,96.8584829 L34.55477,96.6912344 L34.7021901,96.5242525 L35.0447087,96.2376925 L35.215146,96.0946787 L35.4118887,95.9751014 L35.6067133,95.8555242 L35.8031821,95.7362127 L36.0229421,95.6408702 L36.2427021,95.5452618 L36.462188,95.4736216 L36.6833181,95.402248 L36.9030781,95.3543102 L37.1472253,95.3066389 L37.3683554,95.2826708 L37.6125027,95.2589676 L38.1254587,95.2589676 L38.3956374,95.2826708 L38.664446,95.3066389 L38.9088673,95.3303412 L39.397162,95.4259504 L39.618292,95.4736216 L39.837778,95.5452618 L40.057538,95.6169012 L40.2540067,95.6885414 L40.4491054,95.7841506 L40.645574,95.8794923 L40.86506,95.9990704 L41.0604326,96.1181152 L41.2569014,96.2376925 L41.452,96.357004 L41.6470986,96.5002836 L41.8435674,96.6198608 L42.038666,96.7868436 L42.2351347,96.9301231 L42.3811846,96.7391723 L42.552992,96.5719238 L42.699316,96.3809721 L42.8711234,96.1900212 L43.0168993,95.9990704 L43.1643193,95.831821 L43.3350306,95.6408702 L43.4821767,95.4499193 L43.652888,95.2589676 L43.800308,95.0914533 L43.946084,94.9005016 L44.1181653,94.7095508 L44.2642153,94.542568 L44.4116354,94.3513506 L44.5820726,94.1603997 L44.7294926,93.9694488 L44.89993,93.8024661 L45.04735,93.6112486 L44.8522513,93.4679691 L44.6557826,93.3009863 L44.460684,93.1577067 L44.2642153,93.0144263 L44.0691166,92.8948491 L43.874018,92.7518353 L43.652888,92.632258 L43.4577894,92.5129465 L43.2383034,92.3936359 L43.0415606,92.2743244 L42.8220746,92.1787161 L42.6023147,92.0594046 L42.3811846,91.9637963 L42.1616987,91.8681871 L41.9419387,91.7728446 L41.7208086,91.7012052 L41.52571,91.629565 L41.306224,91.5818937 L41.085094,91.5102535 L40.86506,91.4623165 L40.645574,91.4146452 L40.424718,91.3669739 L40.1802966,91.3193027 L39.9361494,91.2713648 L39.7150193,91.2476625 L39.4462106,91.1997254 L39.2020634,91.1760223 L38.957916,91.1760223 L38.4186546,91.1280852 Z M115.514675,91.1760223 L114.462732,91.1760223 L114.218584,91.1997254 L113.974437,91.2236935 L113.728646,91.2476625 L113.484498,91.2713648 L113.264738,91.3193027 L113.020591,91.3669739 L112.799735,91.4146452 L112.579701,91.4623165 L112.384602,91.5102535 L112.163472,91.5818937 L111.919325,91.6772363 L111.675178,91.7491423 L111.454048,91.8444848 L111.234562,91.9637963 L111.014802,92.0594046 L110.793672,92.1787161 L110.598847,92.2980267 L110.403474,92.4413071 L110.207006,92.5845867 L110.036569,92.7038982 L109.8401,92.8711467 L109.669388,93.0623642 L109.497581,93.2293469 L109.327144,93.4202978 L109.17945,93.6112486 L109.0334,93.8024661 L108.910915,94.0171201 L108.789252,94.2323057 L108.691155,94.4469597 L108.592784,94.6618795 L108.496056,94.8767993 L108.447008,95.0914533 L108.373298,95.3066389 L108.323975,95.5215587 L108.274926,95.7362127 L108.250265,95.9751014 L108.225878,96.1900212 L108.201216,96.4286434 L108.201216,96.978061 L108.225878,97.2403855 L108.250265,97.4792742 L108.274926,97.7178963 L108.323975,97.9328161 L108.373298,98.1717049 L108.447008,98.3626565 L108.592784,98.7687938 L108.691155,98.9344443 L108.813914,99.1490983 L108.935302,99.3403158 L109.058336,99.5072977 L109.204111,99.6742804 L109.351532,99.841529 L109.69405,100.17576 L109.864488,100.319306 L110.060956,100.438617 L110.256055,100.581897 L110.475815,100.701208 L110.672283,100.82052 L110.916705,100.939831 L111.13619,101.059142 L111.381708,101.154751 L111.626129,101.250093 L111.870276,101.345702 L112.139085,101.44131 L112.360215,101.51295 L112.579701,101.58459 L112.799735,101.656231 L113.043608,101.704168 L113.264738,101.775541 L113.50916,101.847182 L113.753034,101.895119 L113.998824,101.966759 L114.242972,102.01443 L114.51178,102.08607 L114.756202,102.133742 L115.024736,102.205381 L115.270528,102.253052 L115.514675,102.324692 L115.734435,102.372364 L115.955565,102.44427 L116.15039,102.491941 L116.321101,102.539879 L116.614297,102.658924 L116.860089,102.754532 L117.079575,102.850141 L117.274673,102.945484 L117.471416,103.088763 L117.641853,103.232043 L117.764886,103.399026 L117.863257,103.637914 L117.887371,103.924474 L117.887371,103.972146 L117.863257,104.211034 L117.789274,104.425688 L117.690902,104.616905 L117.545126,104.784154 L117.348657,104.927434 L117.177946,105.022776 L116.981477,105.094416 L116.761717,105.142087 L116.542231,105.190025 L116.29644,105.237696 L116.027631,105.261399 L115.490014,105.261399 L115.221479,105.237696 L114.977058,105.237696 L114.73154,105.190025 L114.462732,105.166056 L114.218584,105.118385 L113.974437,105.070714 L113.728646,105.022776 L113.50916,104.951136 L113.264738,104.879496 L113.020591,104.807856 L112.799735,104.712514 L112.579701,104.640874 L112.360215,104.545265 L112.139085,104.449922 L111.919325,104.354314 L111.724501,104.234737 L111.503097,104.139394 L111.308272,104.019817 L111.088512,103.876803 L110.892043,103.757492 L110.672283,103.614212 L110.475815,103.470932 L110.256055,103.327652 L110.060956,103.184372 L109.913536,103.375323 L109.743099,103.542305 L109.595679,103.733523 L109.425241,103.924474 L109.277821,104.091456 L109.131772,104.282674 L108.959964,104.473625 L108.813914,104.640874 L108.641833,104.831825 L108.496056,104.998807 L108.323975,105.190025 L108.178199,105.380976 L108.030779,105.547959 L107.860068,105.738909 L107.712648,105.930127 L107.54221,106.097375 L107.394791,106.288326 L107.589889,106.455309 L107.761697,106.598589 L107.957069,106.741869 L108.153538,106.885149 L108.348637,107.028429 L108.543735,107.171709 L108.740204,107.29102 L108.935302,107.410331 L109.156433,107.529909 L109.351532,107.648954 L109.571292,107.768531 L109.792147,107.864139 L110.011907,107.981853 L110.231667,108.077462 L110.452523,108.17307 L110.696945,108.268679 L110.916705,108.340053 L111.160852,108.411692 L111.381708,108.507301 L111.626129,108.578942 L111.870276,108.650581 L112.090036,108.698519 L112.335554,108.769892 L112.823848,108.865501 L113.06827,108.913172 L113.314061,108.960843 L113.558209,108.984812 L113.802356,109.032484 L114.071165,109.056452 L114.561103,109.10439 L114.829638,109.10439 L115.074059,109.128092 L116.101341,109.128092 L116.345762,109.10439 L116.614297,109.080421 L116.860089,109.056452 L117.079575,109.032484 L117.323996,109.008781 L117.569787,108.960843 L117.789274,108.913172 L118.009034,108.865501 L118.253181,108.817564 L118.474311,108.74619 L118.718458,108.674283 L118.962605,108.60291 L119.206753,108.507301 L119.452544,108.411692 L119.67203,108.292382 L119.89179,108.196772 L120.11292,108.077462 L120.308018,107.934181 L120.503117,107.816468 L120.699586,107.673188 L120.870297,107.529909 L121.066492,107.362659 L121.212542,107.21938 L121.384623,107.052131 L121.530399,106.885149 L121.653432,106.694198 L121.799482,106.503247 L121.92224,106.312029 L122.044999,106.121078 L122.141727,105.906425 L122.240098,105.715207 L122.338195,105.500287 L122.412179,105.261399 L122.459858,105.046479 L122.533294,104.807856 L122.582617,104.568967 L122.607004,104.306643 L122.631666,104.067754 L122.656326,103.805163 L122.656326,103.232043 L122.631666,102.969452 L122.607004,102.73083 L122.557955,102.491941 L122.508907,102.253052 L122.459858,102.038132 L122.387518,101.823213 L122.313808,101.608559 L122.215711,101.417608 L122.092678,101.202422 L121.971289,101.01147 L121.823869,100.796817 L121.677819,100.6056 L121.506012,100.438617 L121.335575,100.2474 L120.944007,99.9131692 L120.748635,99.7938577 L120.552166,99.6505773 L120.357341,99.5312666 L120.137581,99.4119552 L119.916451,99.2923779 L119.67203,99.1730664 L119.427883,99.0777239 L119.183735,98.9581466 L118.913557,98.8641363 L118.694071,98.7924961 L118.474311,98.7208559 L118.228519,98.6492157 L118.009034,98.5775763 L117.520465,98.4342959 L117.274673,98.3866247 L117.005864,98.3149853 L116.761717,98.2433451 L116.493183,98.1956738 L116.224374,98.1237678 L115.955565,98.0523942 L115.685113,97.980754 L115.440965,97.9328161 L115.221479,97.8611767 L115.000349,97.8135055 L114.805251,97.7418653 L114.610152,97.694194 L114.316682,97.5988515 L114.046503,97.5032431 L113.802356,97.407634 L113.607257,97.2883233 L113.386127,97.1690119 L113.21569,97.0017634 L113.117319,96.8584829 L112.996204,96.5958919 L112.971269,96.2856296 L112.971269,96.2376925 L112.996204,95.9990704 L113.092657,95.7841506 L113.240078,95.56923 L113.459838,95.3780125 L113.631919,95.2826708 L113.827017,95.1870616 L114.046503,95.1393904 L114.292295,95.0914533 L114.561103,95.043782 L115.098721,95.043782 L115.318207,95.0677502 L115.563998,95.0914533 L115.808145,95.1154214 L116.29644,95.2110306 L116.542231,95.2589676 L116.786379,95.3303412 L117.030526,95.402248 L117.299608,95.4736216 L117.496078,95.56923 L117.715563,95.6408702 L117.910662,95.7362127 L118.131792,95.831821 L118.32689,95.9271636 L118.546377,96.0227727 L118.74312,96.14235 L118.962605,96.2376925 L119.159074,96.3809721 L119.354447,96.5002836 L119.573932,96.6198608 L119.770402,96.7628746 L119.916451,96.5719238 L120.03921,96.3809721 L120.184986,96.1900212 L120.33268,95.9990704 L120.478456,95.7841506 L120.601489,95.5931989 L120.894958,95.2110306 L121.017443,95.0200797 L121.310913,94.6379106 L121.433946,94.4469597 L121.579722,94.2323057 L121.727142,94.0410882 L121.873191,93.8501374 L121.99595,93.6591865 L122.141727,93.4679691 L121.946902,93.3249553 L121.751803,93.1816757 L121.555335,93.0381295 L121.359962,92.9190846 L121.139105,92.7758042 L120.944007,92.6562269 L120.724247,92.5369155 L120.503117,92.4176048 L120.308018,92.3219957 L120.088258,92.2026842 L119.842741,92.1070759 L119.622981,92.0114675 L119.403495,91.916125 L119.183735,91.8444848 L118.938218,91.7491423 L118.718458,91.7012052 L118.498698,91.629565 L118.253181,91.5579248 L118.033421,91.5102535 L117.789274,91.4623165 L117.545126,91.4146452 L117.323996,91.3669739 L117.079575,91.3193027 L116.810766,91.2953337 L116.566619,91.2476625 L116.29644,91.2236935 L116.052293,91.2236935 L115.783484,91.1997254 L115.514675,91.1760223 Z M105.601636,91.4623165 L91.4660282,91.4623165 L91.4660282,108.841798 L105.724395,108.841798 L105.724395,104.903198 L96.136339,104.903198 L96.136339,101.94279 L104.647791,101.94279 L104.647791,98.2433451 L96.136339,98.2433451 L96.136339,95.402248 L105.601636,95.402248 L105.601636,91.4623165 Z M74.1597929,91.4623165 L69.1453196,91.4623165 L69.1453196,108.841798 L73.7926129,108.841798 L73.7926129,98.6127299 L73.9383889,98.8036816 L74.0616956,99.0201994 L74.2074715,99.2108837 L74.3302303,99.4258043 L74.4776503,99.6170217 L74.5990389,99.8316749 L74.7464589,100.024224 L74.8678475,100.239144 L75.0152676,100.430095 L75.1380263,100.645015 L75.2840762,100.835966 L75.4068349,101.052484 L75.5528849,101.243435 L75.6756435,101.458355 L75.8216935,101.649306 L75.9444523,101.865557 L76.0918723,102.056509 L76.2376482,102.271429 L76.3606809,102.46238 L76.5064569,102.678631 L76.6294895,102.869583 L76.7769096,103.084502 L76.8980242,103.275453 L77.0454442,103.491971 L77.1668329,103.682922 L77.3142529,103.897576 L77.4372856,104.088793 L77.5830615,104.303713 L77.7058202,104.496262 L77.8518702,104.710916 L77.9746289,104.901867 L78.1206789,105.116787 L78.2437115,105.309336 L78.3908576,105.524255 L78.4878589,105.524255 L78.6106175,105.333305 L78.7566675,105.116787 L78.8794262,104.925836 L79.0268463,104.734884 L79.1482349,104.519964 L79.2953809,104.328747 L79.4167695,104.136465 L79.5398022,103.921811 L79.6872223,103.730593 L79.8086109,103.539642 L79.9560309,103.347359 L80.0774195,103.132439 L80.2245656,102.941489 L80.3475982,102.750271 L80.4689869,102.53402 L80.6164069,102.343068 L80.7375215,102.151851 L80.8849416,101.937198 L81.0063302,101.74598 L81.1537502,101.553697 L81.2767829,101.338777 L81.3981715,101.147826 L81.5455916,100.956875 L81.6669802,100.740623 L81.8141262,100.549406 L81.9371589,100.358455 L82.0829348,100.167504 L82.2059676,99.9512522 L82.3270822,99.7603013 L82.4747762,99.5690839 L82.5975349,99.3544307 L82.7433108,99.1632132 L82.8663436,98.9722615 L83.0123935,98.7557437 L83.1348782,98.5647928 L83.1348782,108.841798 L87.8545115,108.841798 L87.8545115,91.4623165 L82.8416822,91.4623165 L82.7189235,91.6535339 L82.5975349,91.8681871 L82.4501148,92.0578066 L82.3270822,92.2727264 L82.2059676,92.463678 L82.0829348,92.6788636 L81.9371589,92.8682173 L81.8141262,93.0834037 L81.6916415,93.2743545 L81.5699789,93.4653054 L81.4228329,93.678628 L81.3011702,93.8698454 L81.1784116,94.0844986 L81.0556528,94.2757161 L80.9098769,94.4890378 L80.7865702,94.6799895 L80.6654556,94.8709404 L80.5424228,95.0847954 L80.4196642,95.2754796 L80.2736142,95.4903994 L80.1511295,95.6816169 L80.0280968,95.8949394 L79.9067082,96.0861569 L79.7592882,96.3008101 L79.6381736,96.4904295 L79.5151409,96.6813804 L79.3923822,96.896301 L79.2463322,97.0875185 L79.1235735,97.3024383 L79.0019109,97.4920577 L78.8794262,97.7069775 L78.7333762,97.8979284 L78.6106175,98.1112509 L78.4878589,98.3024684 L78.3664703,98.1112509 L78.2437115,97.8979284 L78.0960175,97.7069775 L77.9746289,97.4920577 L77.8518702,97.3024383 L77.7304816,97.0875185 L77.6077229,96.896301 L77.4603029,96.6813804 L77.3389143,96.4904295 L77.2158815,96.3008101 L77.0947669,96.0861569 L76.9720083,95.8949394 L76.8245882,95.6816169 L76.7029256,95.4903994 L76.5801669,95.2754796 L76.4590523,95.0847954 L76.3360195,94.8709404 L76.1885995,94.6799895 L76.0672109,94.4890378 L75.9444523,94.2757161 L75.8216935,94.0844986 L75.6756435,93.8698454 L75.5528849,93.678628 L75.4314963,93.4653054 L75.3084635,93.2743545 L75.1859789,93.0834037 L75.0396549,92.8682173 L74.9168962,92.6788636 L74.7955076,92.463678 L74.6727489,92.2727264 L74.5497162,92.0578066 L74.4039403,91.8681871 L74.2811816,91.6535339 L74.1597929,91.4623165 Z M59.5761699,91.343005 L55.0516354,91.343005 L54.954908,91.5579248 L54.8565367,91.7728446 L54.7584394,91.9877644 L54.6844553,92.2266531 L54.587728,92.4413071 L54.3912594,92.8711467 L54.294532,93.0860665 L54.1961607,93.3009863 L54.0977894,93.5396084 L53.999418,93.7547949 L53.927352,93.9694488 L53.8289807,94.1843686 L53.7306093,94.3992884 L53.6338821,94.6142082 L53.5355107,94.8528304 L53.4374134,95.0677502 L53.3404121,95.2826708 L53.2423147,95.4975906 L53.1686047,95.7125104 L53.0705074,95.9271636 L52.973506,96.1660523 L52.8754087,96.3809721 L52.7770374,96.5958919 L52.6800361,96.8108125 L52.5819387,97.0257323 L52.4835674,97.2403855 L52.4098574,97.4792742 L52.31313,97.694194 L52.2147587,97.908848 L52.1166614,98.1237678 L52.0196601,98.3389534 L51.9215627,98.5536074 L51.8234654,98.7924961 L51.726464,99.0058179 L51.652754,99.2210043 L51.4562854,99.6505773 L51.3595581,99.8654979 L51.2611867,100.080418 L51.1628154,100.319306 L50.9677168,100.748879 L50.8940067,100.963799 L50.7959093,101.178719 L50.698908,101.39364 L50.6008107,101.632262 L50.5027133,101.847182 L50.4057121,102.062101 L50.2092434,102.491941 L50.1355333,102.706595 L50.0388061,102.945484 L49.9404347,103.160403 L49.7453361,103.590243 L49.6469647,103.805163 L49.5485934,104.019817 L49.451866,104.258706 L49.378156,104.473625 L49.2800587,104.688545 L49.1816873,104.903198 L49.084686,105.118385 L48.9865887,105.333305 L48.8882174,105.571927 L48.7914901,105.786846 L48.6931187,106.001767 L48.6196827,106.216687 L48.4245841,106.64626 L48.3262127,106.885149 L48.2278414,107.100068 L48.1311141,107.314988 L47.9346454,107.744562 L47.8609353,107.95815 L47.763934,108.196772 L47.5674654,108.626612 L47.4707381,108.841798 L52.4098574,108.841798 L52.5082287,108.626612 L52.5819387,108.411692 L52.6800361,108.196772 L52.7770374,107.95815 L52.8507474,107.744562 L52.9491187,107.529909 L53.045846,107.314988 L53.119556,107.100068 L53.2179274,106.885149 L53.3160247,106.670229 L53.3883646,106.455309 L53.486462,106.216687 L53.5848334,106.001767 L53.6585434,105.786846 L53.7552707,105.571927 L60.7738893,105.571927 L60.8722606,105.786846 L60.9459707,106.001767 L61.044342,106.216687 L61.1413433,106.455309 L61.2147793,106.670229 L61.3131507,106.885149 L61.411248,107.100068 L61.4835879,107.314988 L61.6800566,107.744562 L61.7523966,107.95815 L61.8507679,108.196772 L61.9488653,108.411692 L62.0225753,108.626612 L62.1195766,108.841798 L67.1581633,108.841798 L66.9616946,108.411692 L66.8652413,108.196772 L66.7912573,107.95815 L66.6928859,107.744562 L66.4977873,107.314988 L66.3015926,106.885149 L66.2048653,106.64626 L66.106494,106.43134 L66.0325099,106.216687 L65.8376853,105.786846 L65.739314,105.571927 L65.6412166,105.333305 L65.5444893,105.118385 L65.4461179,104.903198 L65.3477466,104.688545 L65.2756807,104.473625 L65.1773093,104.258706 L65.0789379,104.019817 L64.9805666,103.805163 L64.8838393,103.590243 L64.785468,103.375323 L64.6873706,103.160403 L64.5903693,102.945484 L64.5169333,102.706595 L64.4185619,102.491941 L64.3215606,102.277021 L64.2234633,102.062101 L64.125092,101.847182 L64.0269946,101.632262 L63.9299933,101.39364 L63.831896,101.178719 L63.7581859,100.963799 L63.6614587,100.748879 L63.5630873,100.534226 L63.464716,100.319306 L63.3666186,100.080418 L63.2696173,99.8654979 L63.171246,99.6505773 L63.0731486,99.4356575 L63.0008086,99.2210043 L62.9027113,99.0058179 L62.8043399,98.7924961 L62.7076127,98.5536074 L62.6092413,98.3389534 L62.4127726,97.908848 L62.3160453,97.694194 L62.2420613,97.4792742 L62.1439639,97.2403855 L61.9488653,96.8108125 L61.8507679,96.5958919 L61.7523966,96.3809721 L61.6553953,96.1660523 L61.5572979,95.9271636 L61.4835879,95.7125104 L61.3868607,95.4975906 L61.1903919,95.0677502 L61.0936647,94.8528304 L60.9952933,94.6142082 L60.7985506,94.1843686 L60.7264847,93.9694488 L60.6281133,93.7547949 L60.5297419,93.5396084 L60.4330147,93.3009863 L60.3346433,93.0860665 L60.2365459,92.8711467 L60.1381746,92.6562269 L60.0414473,92.4413071 L59.9677373,92.2266531 L59.86964,91.9877644 L59.7726387,91.7728446 L59.6742673,91.5579248 L59.5761699,91.343005 Z M57.2714474,96.8296262 L57.375282,97.0369177 L57.448992,97.253169 L57.5457193,97.4920577 L57.6440907,97.7083089 L57.7178007,97.9229629 L57.8158981,98.1381485 L57.9128993,98.3781029 L57.9863353,98.5930227 L58.0847067,98.8079425 L58.1830781,99.0241937 L58.2551439,99.2391143 L58.3535153,99.4780022 L58.4274994,99.6942543 L58.5239527,99.9089075 L58.6223239,100.123827 L58.696308,100.340079 L58.7944053,100.578968 L58.8911327,100.793888 L58.9648427,101.010139 L59.063214,101.225059 L59.1599413,101.463948 L59.2336513,101.680199 L59.3317487,101.895119 L55.1990554,101.895119 L55.2957826,101.680199 L55.3694926,101.463948 L55.467864,101.225059 L55.5662354,101.010139 L55.6383013,100.793888 L55.7363987,100.578968 L55.83477,100.340079 L55.9317713,100.123827 L56.0052073,99.9089075 L56.2016761,99.4780022 L56.274016,99.2391143 L56.3723873,99.0241937 L56.4704847,98.8079425 L56.5444687,98.5930227 L56.641196,98.3781029 L56.7395674,98.1381485 L56.8376647,97.9229629 L56.9100046,97.7083089 L57.008376,97.4920577 L57.1067474,97.253169 L57.1801833,97.0369177 L57.2714474,96.8296262 Z M106.983111,19.4403698 L105.654345,19.4817863 C99.2270728,19.896053 96.0466264,23.419617 96.0466264,30.1213825 L96.0466264,67.2575159 L96.0890517,68.5555573 C96.5134065,74.834059 100.122632,77.938529 106.983111,77.938529 L111.44243,77.938529 L112.771463,77.8971149 C119.199879,77.4828768 122.37864,73.9595311 122.37864,67.2575159 L122.37864,53.8659027 L113.54522,53.8659027 L113.54522,66.8473838 L113.504584,67.5688442 C113.287559,69.3721426 112.198833,70.2155274 110.180865,70.2155274 L108.497317,70.2155274 L107.758739,70.1757661 C105.912524,69.9630992 105.048017,68.8924813 105.048017,66.8473838 L105.048017,30.5315146 L105.08877,29.8101334 C105.306728,28.0070221 106.403843,27.1636373 108.497317,27.1636373 L110.011798,27.1636373 L110.725497,27.2033982 C112.513016,27.4160623 113.377523,28.4866538 113.377523,30.5315146 L113.377523,41.7885765 L122.209847,41.7885765 L122.209847,30.0385571 L122.173116,28.8156027 C121.781056,22.4972835 118.245979,19.4403698 111.358855,19.4403698 L106.983111,19.4403698 Z M48.6441522,19.9335671 L28.6213328,19.9335671 L28.6213328,77.4455443 L48.8118494,77.4455443 L48.8118494,69.4764639 L37.6224495,69.4764639 L37.6224495,52.1395926 L48.2221692,52.1395926 L48.2221692,44.1707784 L37.6224495,44.1707784 L37.6224495,27.9023812 L48.6441522,27.9023812 L48.6441522,19.9335671 Z M91.2894807,19.9334073 L82.2869937,19.9334073 L82.2869937,77.4456509 L91.2894807,77.4456509 L91.2894807,19.9334073 Z M53.1572056,19.9333806 L53.1572056,77.4456243 L62.1585964,77.4456243 L62.1585964,56.5762902 L67.2900741,56.5762902 L68.619062,56.534877 C75.0472828,56.1206444 78.2262842,52.5973926 78.2262842,45.8968755 L78.2262842,30.6143932 L78.1838767,29.3163958 C77.7596978,23.0380842 74.1518363,19.9333806 67.2900741,19.9333806 L53.1572056,19.9333806 Z M65.8608121,27.6566482 C68.132396,27.6566482 69.2248935,28.7243233 69.2248935,31.0245254 L69.2248935,45.4851454 L69.1843119,46.2066515 C68.9675597,48.0101837 67.8799978,48.8546206 65.8608121,48.8546206 L62.1585964,48.8546206 L62.1585964,27.6566482 L65.8608121,27.6566482 Z"/></g><g id="platform-pc" stroke-width="0" viewBox="0 0 150 150"><path d="M59,106 L8,106 C3.581722,106 5.41083001e-16,102.418278 0,98 L0,8 C-5.41083001e-16,3.581722 3.581722,8.11624501e-16 8,0 L142,0 C146.418278,-8.11624501e-16 150,3.581722 150,8 L150,98 C150,102.418278 146.418278,106 142,106 L91,106 L91,138 L119,138 L119,150 L31,150 L31,138 L59,138 L59,106 Z M134,16 L16,16 L16,90 L134,90 L134,16 Z"/></g><g id="platform-stadia" stroke-width="0" viewBox="0 0 150 150"><path d="M40.7834185,62.7458377 C72.2143805,48.4075872 108.47782,49.0091964 139.411307,64.3820709 C141.055105,65.6092458 143.520802,64.3820709 143.931752,62.7458377 L149.685045,45.1563308 C150.506945,43.5200976 149.685045,41.0657478 147.630298,40.2476312 C100.264633,17.0886846 43.8317441,22.4686509 1.74321254,54.1556134 C0.0307836801,55.3563938 -0.500280509,57.6470813 0.510363936,59.4733713 L14.0716986,89.3346272 C14.8935977,91.3799187 17.3592949,92.6070936 19.4140426,91.788977 C34.6191754,86.0621608 58.043299,80.3353446 81.878372,83.607811 C65.4403906,86.4712191 52.700955,92.1980353 42.4272166,98.3339098 C40.7147877,99.5346902 40.1837235,101.825378 41.194368,103.651668 L49.4133587,122.468349 C50.2352578,124.104583 52.2900055,124.513641 53.5228541,123.286466 C56.8104504,120.014 60.0980466,117.55965 62.9746934,115.923417 C76.1250785,108.560367 94.2068581,102.833551 118.452881,104.060726 C120.316948,104.145671 122.004523,102.969805 122.562376,101.197318 L128.726619,82.7896944 C129.548518,81.1534612 128.726619,78.6991114 127.082821,77.8809948 C100.968562,62.5659623 70.1636432,57.1890116 40.3724689,62.7458377 L40.7834185,62.7458377 Z"/></g><g id="platform-steam" stroke-width="0" viewBox="0 0 150 150"><path d="M74.8700762,1 C116.364172,1 150,34.352503 150,75.4991579 C150,116.644129 116.364172,150 74.8700762,150 C40.4767836,150 11.5046252,127.073943 2.58828591,95.8013405 L31.3855142,107.608773 C33.3352204,117.255468 41.9424599,124.542697 52.2361613,124.542697 C63.9632703,124.542697 73.5029042,115.082941 73.5029042,103.452341 C73.5029042,103.118884 73.4910157,102.78711 73.4774289,102.455337 L99.0189196,84.3846258 C99.2312134,84.3896782 99.4435072,84.3947306 99.660896,84.3947306 C115.284021,84.3947306 127.992776,71.7890204 127.992776,56.296712 C127.992776,40.8044036 115.284021,28.2003775 99.660896,28.2003775 C84.036073,28.2003775 71.3273174,40.8044036 71.3273174,56.296712 C71.3273174,56.4196535 71.3290157,56.5392267 71.3290157,56.660484 L53.4216098,82.399037 C53.0292909,82.3771433 52.6335753,82.3670385 52.2361613,82.3670385 C47.8017685,82.3670385 43.6798723,83.7210787 40.2678865,86.0333887 L0,69.523866 C3.07401411,31.1728663 35.4055094,1 74.8700762,1 Z M46.5857497,88.6235801 C50.2626782,87.2476462 54.4457151,87.1887016 58.3502225,88.7987296 C62.2853002,90.4272829 65.3457275,93.4755575 66.9676521,97.3844224 C68.5929734,101.291603 68.5827833,105.59287 66.9438752,109.493314 C63.559063,117.551875 54.1960576,121.373165 46.0762446,118.018378 C42.3194937,116.463927 39.490042,113.637957 37.8528323,110.259593 L37.8528323,110.259593 L47.081668,114.042148 C53.0717496,116.517819 59.9534652,113.707007 62.4466435,107.768766 C64.9432185,101.82884 62.1120685,95.0081155 56.1219868,92.5307608 L56.1219868,92.5307608 Z M99.660896,37.574243 C110.070085,37.574243 118.539758,45.9746815 118.539758,56.296712 C118.539758,66.6187424 110.070085,75.0174969 99.660896,75.0174969 C89.2517068,75.0174969 80.7803354,66.6187424 80.7803354,56.296712 C80.7803354,45.9746815 89.2517068,37.574243 99.660896,37.574243 Z M99.6914664,42.2022312 C91.860373,42.2022312 85.5085427,48.4975077 85.5085427,56.2647135 C85.5085427,64.0319193 91.860373,70.3271959 99.6914664,70.3271959 C107.525956,70.3271959 113.87439,64.0319193 113.87439,56.2647135 C113.87439,48.4975077 107.525956,42.2022312 99.6914664,42.2022312 Z"/></g><g id="sliders"><path d="M14.962,11.927H7.279a2.494,2.494,0,0,0-4.559,0H1.038a1.017,1.017,0,1,0,0,2.035H2.721a2.494,2.494,0,0,0,4.559,0h7.682a1.017,1.017,0,1,0,0-2.035ZM5,14.445a1.5,1.5,0,1,1,1.5-1.5A1.5,1.5,0,0,1,5,14.445Z"/><path d="M1.038,3.951H2.711a2.5,2.5,0,0,0,4.578,0h7.673a1.017,1.017,0,1,0,0-2.035H7.27a2.491,2.491,0,0,0-4.54,0H1.038a1.017,1.017,0,1,0,0,2.035ZM5,1.451a1.5,1.5,0,1,1-1.5,1.5A1.5,1.5,0,0,1,5,1.451Z"/><path d="M14.962,6.934h-.682a2.494,2.494,0,0,0-4.559,0H1.038a1.017,1.017,0,1,0,0,2.035H9.721a2.494,2.494,0,0,0,4.559,0h.682a1.017,1.017,0,1,0,0-2.035ZM12,9.451a1.5,1.5,0,1,1,1.5-1.5A1.5,1.5,0,0,1,12,9.451Z"/></g><g id="email"><path d="M8.465,9.45a.8.8,0,0,1-.93,0l-5.6-4,.93-1.3L8,7.817l5.135-3.668.93,1.3ZM15.317,2.4H.682A.683.683,0,0,0,0,3.083v9.834a.683.683,0,0,0,.682.683H15.317A.683.683,0,0,0,16,12.917V3.083A.683.683,0,0,0,15.317,2.4Z"/></g><g id="ea-access-logo" stroke="none" stroke-width="1" fill-rule="evenodd"><path d="M8.6313,5.9692 L4.0333,5.9692 L4.7323,4.8512 L9.3303,4.8512 L8.6313,5.9692 Z M13.7323,10.4392 L12.4133,10.4392 L11.7163,9.3222 L9.6763,9.3222 L10.3743,8.2042 L11.0183,8.2042 L10.2403,6.9602 L8.0673,10.4392 L2.2663,10.4392 L3.6633,8.2042 L2.6383,8.2042 L3.3363,7.0872 L7.8183,7.0872 L7.1193,8.2042 L4.9823,8.2042 L4.2833,9.3222 L7.4473,9.3222 L10.2403,4.8512 L13.7323,10.4392 Z M11.1653,4.9082 L11.0553,4.9082 L11.0553,4.8512 L11.3443,4.8512 L11.3443,4.9082 L11.2333,4.9082 L11.2333,5.1912 L11.1653,5.1912 L11.1653,4.9082 Z M11.4643,5.1912 L11.4023,5.1912 L11.4023,4.8512 L11.4973,4.8512 L11.5833,5.0942 L11.6683,4.8512 L11.7663,4.8512 L11.7663,5.1912 L11.7043,5.1912 L11.7043,4.9162 L11.6113,5.1912 L11.5573,5.1912 L11.4643,4.9162 L11.4643,5.1912 Z M7.9753,15.2462 C3.9703,15.2462 0.7233,11.9992 0.7233,7.9932 C0.7233,3.9892 3.9703,0.7402 7.9753,0.7402 C11.9813,0.7402 15.2273,3.9892 15.2273,7.9932 C15.2273,11.9992 11.9813,15.2462 7.9753,15.2462 L7.9753,15.2462 Z M7.9993,0.0002 C3.5813,0.0002 0.0003,3.5812 0.0003,8.0002 C0.0003,12.4192 3.5813,16.0002 7.9993,16.0002 C12.4173,16.0002 15.9983,12.4192 15.9983,8.0002 C15.9983,3.5812 12.4173,0.0002 7.9993,0.0002 L7.9993,0.0002 Z"/></g><g id="whatsapp" transform="scale(0.8)"><path d="M17.0859 2.90629C15.206 1.03307 12.7059 0.00095039 10.042 0C4.55283 0 0.0854701 4.44545 0.0835601 9.90971C0.0826052 11.6565 0.54147 13.3615 1.41288 14.8641L0 20L5.27909 18.6219C6.73351 19.4117 8.37129 19.8275 10.0377 19.828H10.042C10.0425 19.828 10.0415 19.828 10.042 19.828C15.5302 19.828 19.9981 15.3821 20 9.91779C20.001 7.26953 18.9662 4.77951 17.0859 2.90629ZM10.042 18.1543H10.0387C8.55369 18.1539 7.09688 17.7566 5.82581 17.0063L5.52356 16.8276L2.39077 17.6454L3.22685 14.6056L3.03013 14.2939C2.20169 12.9823 1.76384 11.4665 1.76479 9.91019C1.7667 5.36875 5.47964 1.67364 10.0454 1.67364C12.2561 1.67459 14.3341 2.53231 15.897 4.08953C17.4598 5.64626 18.3197 7.71621 18.3188 9.91684C18.3169 14.4588 14.6039 18.1543 10.042 18.1543ZM14.582 11.9849C14.3332 11.8609 13.1099 11.2621 12.8816 11.1794C12.6534 11.0967 12.4877 11.0554 12.322 11.3035C12.1563 11.5515 11.6793 12.1094 11.5342 12.2743C11.389 12.4396 11.2439 12.4601 10.9951 12.3361C10.7463 12.212 9.94461 11.9507 8.99394 11.1072C8.25431 10.4505 7.75486 9.6398 7.6097 9.39175C7.46455 9.1437 7.59442 9.00969 7.71857 8.88662C7.8303 8.77542 7.96734 8.59723 8.09196 8.45277C8.21659 8.30831 8.25765 8.20471 8.34073 8.03982C8.42382 7.87445 8.38228 7.72999 8.3202 7.60597C8.25813 7.48194 7.76059 6.26307 7.55288 5.76744C7.3509 5.28464 7.14559 5.35022 6.99327 5.34214C6.84811 5.33501 6.68242 5.33359 6.51626 5.33359C6.35057 5.33359 6.08079 5.39536 5.85255 5.64341C5.62431 5.89147 4.98162 6.49069 4.98162 7.70909C4.98162 8.92796 5.87308 10.1055 5.99771 10.2709C6.12233 10.4362 7.75247 12.9372 10.2483 14.0102C10.8418 14.2653 11.3054 14.4179 11.6669 14.5319C12.2628 14.7206 12.8052 14.694 13.234 14.6303C13.712 14.559 14.7061 14.0311 14.9133 13.4528C15.1206 12.8745 15.1206 12.3784 15.0585 12.2752C14.9964 12.1712 14.8307 12.1089 14.582 11.9849Z"/></g><g id="reddit" viewBox="0 0 32 32" transform="translate(-8, -8)"><path d="M39.9617 24.4917C39.9617 22.5443 38.3869 20.9977 36.4677 20.9977C35.5228 20.9977 34.6633 21.3698 34.0334 21.9714C31.6279 20.253 28.3341 19.1362 24.6682 18.9931L26.2719 11.4894L31.4843 12.6062C31.542 13.9237 32.6299 14.9834 33.9763 14.9834C35.3509 14.9834 36.4677 13.8666 36.4677 12.4914C36.4677 11.1168 35.3509 10 33.9763 10C33.0026 10 32.1431 10.5728 31.7422 11.4035L25.9286 10.1719C25.7567 10.1431 25.5848 10.1719 25.47 10.2578C25.327 10.3438 25.241 10.4869 25.2127 10.6588L23.4366 19.0214C19.7136 19.1362 16.3627 20.253 13.9283 22.0003C13.2727 21.3741 12.4006 21.0252 11.494 21.0265C9.54654 21.0265 8 22.6014 8 24.5205C8 25.9523 8.85895 27.1551 10.0622 27.6996C10.0046 28.0428 9.97629 28.3866 9.97629 28.7593C9.97629 34.1431 16.2484 38.5254 23.9811 38.5254C31.7139 38.5254 37.986 34.1719 37.986 28.7593C37.986 28.4155 37.9572 28.0428 37.9 27.6996C39.1028 27.1551 39.9617 25.9235 39.9617 24.4917V24.4917ZM15.9617 26.9832C15.9617 25.6085 17.0785 24.4917 18.4537 24.4917C19.8284 24.4917 20.9452 25.6085 20.9452 26.9832C20.9452 28.3578 19.8284 29.4751 18.4537 29.4751C17.0785 29.5034 15.9617 28.3578 15.9617 26.9832V26.9832ZM29.9095 33.5991C28.191 35.3175 24.926 35.4323 23.9811 35.4323C23.0074 35.4323 19.7424 35.2887 18.0523 33.5991C17.795 33.3412 17.795 32.9403 18.0523 32.6825C18.3101 32.4252 18.711 32.4252 18.9689 32.6825C20.0574 33.771 22.3486 34.1431 23.9811 34.1431C25.6136 34.1431 27.9332 33.771 28.9929 32.6825C29.2507 32.4252 29.6516 32.4252 29.9095 32.6825C30.1385 32.9403 30.1385 33.3412 29.9095 33.5991ZM29.4509 29.5034C28.0763 29.5034 26.9595 28.3866 26.9595 27.012C26.9595 25.6373 28.0763 24.5205 29.4509 24.5205C30.8261 24.5205 31.9429 25.6373 31.9429 27.012C31.9429 28.3578 30.8261 29.5034 29.4509 29.5034Z"/></g><g id="reddit-circle" viewBox="0 0 150 150"><path d="M74.8214286,7.10542736e-14 C116.144163,7.10542736e-14 149.642857,33.4986946 149.642857,74.8214286 C149.642857,116.144163 116.144163,149.642857 74.8214286,149.642857 C33.4986946,149.642857 1.42108547e-14,116.144163 1.42108547e-14,74.8214286 C1.42108547e-14,33.4986946 33.4986946,7.10542736e-14 74.8214286,7.10542736e-14 Z M106.071429,29.6428571 C103.035714,29.6428571 100.357143,31.4285714 99.1071429,34.0178571 L80.9821429,30.1785714 C80.4464286,30.0892857 79.9107143,30.1785714 79.5535714,30.4464286 C79.1071429,30.7142857 78.8392857,31.1607143 78.75,31.6964286 L73.2142857,57.7678571 C61.6071429,58.125 51.1607143,61.6071429 43.5714286,67.0535714 C41.6071429,65.1785714 38.9285714,64.0178571 35.9821429,64.0178571 C29.9107143,64.0178571 25.0892857,68.9285714 25.0892857,74.9107143 C25.0892857,79.375 27.7678571,83.125 31.5178571,84.8214286 C31.3392857,85.8928571 31.25,86.9642857 31.25,88.125 C31.25,104.910714 50.8035714,118.571429 74.9107143,118.571429 C99.0178571,118.571429 118.571429,105 118.571429,88.125 C118.571429,87.0535714 118.482143,85.8928571 118.303571,84.8214286 C122.053571,83.125 124.732143,79.2857143 124.732143,74.8214286 C124.732143,68.75 119.821429,63.9285714 113.839286,63.9285714 C110.892857,63.9285714 108.214286,65.0892857 106.25,66.9642857 C98.75,61.6071429 88.4821429,58.125 77.0535714,57.6785714 L82.0535714,34.2857143 L98.3035714,37.7678571 C98.4821429,41.875 101.875,45.1785714 106.071429,45.1785714 C110.357143,45.1785714 113.839286,41.6964286 113.839286,37.4107143 C113.839286,33.125 110.357143,29.6428571 106.071429,29.6428571 Z M59.2857143,100.357143 C62.6785714,103.75 69.8214286,104.910714 74.9107143,104.910714 C80,104.910714 87.2321429,103.75 90.5357143,100.357143 C91.3392857,99.5535714 92.5892857,99.5535714 93.3928571,100.357143 C94.1071429,101.160714 94.1071429,102.410714 93.3928571,103.214286 C88.1265133,108.48063 78.2007941,108.915029 75.0667068,108.928241 L74.9107143,108.928571 C71.875,108.928571 61.6964286,108.482143 56.4285714,103.214286 C55.625,102.410714 55.625,101.160714 56.4285714,100.357143 C57.2321429,99.5535714 58.4821429,99.5535714 59.2857143,100.357143 Z M91.9642857,74.9107143 C96.25,74.9107143 99.7321429,78.3928571 99.7321429,82.6785714 C99.7321429,86.875 96.25,90.4464286 91.9642857,90.4464286 C87.6785714,90.4464286 84.1964286,86.9642857 84.1964286,82.6785714 C84.1964286,78.3928571 87.6785714,74.9107143 91.9642857,74.9107143 Z M57.6785714,74.8214286 C61.9642857,74.8214286 65.4464286,78.3035714 65.4464286,82.5892857 C65.4464286,86.875 61.9642857,90.3571429 57.6785714,90.3571429 C53.3928571,90.4464286 49.9107143,86.875 49.9107143,82.5892857 C49.9107143,78.3035714 53.3928571,74.8214286 57.6785714,74.8214286 Z"/></g><g id="round-triangle-up" viewBox="0 0 11 8"><path fill-rule="evenodd" clip-rule="evenodd" d="M6.30003 0.401367L10.7889 6.33561C11.1304 6.78698 11.049 7.43564 10.6071 7.78443C10.43 7.92418 10.2126 8 9.98887 8H1.01108C0.452677 8 0 7.53758 0 6.96715C0 6.73858 0.074218 6.51647 0.211028 6.33561L4.69992 0.401367C5.04136 -0.0500045 5.67634 -0.133166 6.1182 0.215622C6.1863 0.269379 6.24741 0.331799 6.30003 0.401367Z"/></g><g id="round-triangle-down" viewBox="0 0 11 8"><path d="M4.69997 7.59863L0.211077 1.66439C-0.130359 1.21302 -0.0489502 0.564359 0.392907 0.215572C0.569955 0.0758162 0.787383 0 1.01113 0L9.98892 0C10.5473 0 11 0.462424 11 1.03285C11 1.26142 10.9258 1.48353 10.789 1.66439L6.30008 7.59863C5.95864 8.05 5.32366 8.13317 4.8818 7.78438C4.8137 7.73062 4.75259 7.6682 4.69997 7.59863Z"/></g></defs></svg>