<svg xmlns="http://www.w3.org/2000/svg"><defs><g id="circle-check"><circle cx="15" cy="15" r="14" fill="none" stroke="currentColor" stroke-width="2"/><path d="M13.5 21a.995.995 0 0 1-.707-.293l-3-3a1 1 0 0 1 1.414-1.414l2.2 2.2 6.304-8.107a.999.999 0 1 1 1.579 1.227l-7 9a1.003 1.003 0 0 1-.79.387z"/></g><g id="circle-check-dashed"><circle cx="15" cy="15" r="14" fill="none" stroke="currentColor" stroke-width="2" stroke-dasharray="3,2"/><path d="M13.5 21a.995.995 0 0 1-.707-.293l-3-3a1 1 0 0 1 1.414-1.414l2.2 2.2 6.304-8.107a.999.999 0 1 1 1.579 1.227l-7 9a1.003 1.003 0 0 1-.79.387z"/></g><g id="chevron" viewBox="0 0 7.44 12.438"><path id="arrow" d="M2453.46,206.922l-6.01,6.012-1.41-1.415,4.8-4.8-4.8-4.8,1.41-1.415,6.01,6.011-0.2.2Z" transform="translate(-2446.03 -200.5)"/></g><g id="checked" viewBox="0 0 16 12.219"><path d="M1155.04,777.5l1.17,0.884-9.67,11.311-1.17-.885Zm-14,5.377-0.82,1.2,6.01,5.654,0.81-1.2Z" transform="translate(-1140.22 -777.5)"/></g><g id="xbox" viewBox="0 0 30 29.969"><path d="M1162.5,673.93a14.981,14.981,0,0,1-6.66-2.36c-1.68-1.1-2.06-1.549-2.06-2.45,0-1.809,1.99-4.978,5.4-8.59,1.93-2.051,4.63-4.456,4.92-4.391,0.56,0.127,5.09,4.541,6.79,6.619,2.68,3.286,3.91,5.976,3.29,7.175-0.48.912-3.43,2.694-5.6,3.379A16.515,16.515,0,0,1,1162.5,673.93Zm-11-6.691a15.625,15.625,0,0,1-2.44-7.311,11.374,11.374,0,0,1,.25-3.656,14.946,14.946,0,0,1,3.65-7.4c0.75-.783.82-0.8,1.74-0.493a12.777,12.777,0,0,1,4.15,2.863l1.07,0.972-0.59.722a46.685,46.685,0,0,0-6.69,11.034,7.2,7.2,0,0,0-.58,3.868C1152.24,668.287,1152.08,668.119,1151.5,667.239Zm24.57,0.365a7.258,7.258,0,0,0-.45-3.162c-0.88-2.705-3.85-7.737-6.58-11.158l-0.85-1.077,0.92-.852a20.423,20.423,0,0,1,2.96-2.341,5.727,5.727,0,0,1,2.18-.841,6.438,6.438,0,0,1,2,2.07,15.841,15.841,0,0,1,2.52,5.813,19.425,19.425,0,0,1,.04,5.646,17.169,17.169,0,0,1-1.12,3.548,19.08,19.08,0,0,1-1.54,2.632c-0.19.239-.19,0.238-0.08-0.278h0Zm-13.32-19.942a18.737,18.737,0,0,0-4.27-1.506,7.666,7.666,0,0,0-1.42-.08c-0.88.044-.84,0,0.57-0.671a14.721,14.721,0,0,1,3.5-1.164,18.031,18.031,0,0,1,5.8-.007,16.018,16.018,0,0,1,4.53,1.685l0.32,0.194-0.72-.036a13.077,13.077,0,0,0-5.77,1.6,12.468,12.468,0,0,1-1.31.584C1163.93,648.251,1163.38,647.983,1162.75,647.662Z" transform="translate(-1149 -644.031)"/></g><g id="ps4" viewBox="0 0 39.97 31"><path d="M1157.96,643c1.74,0.323,3.45.785,5.15,1.266,0.97,0.281,1.94.573,2.91,0.883a21.069,21.069,0,0,1,4.39,1.836,8.377,8.377,0,0,1,1.71,1.3,6.262,6.262,0,0,1,1.32,1.85,10.2,10.2,0,0,1,.87,4,12.571,12.571,0,0,1-.14,2.672,6.315,6.315,0,0,1-.8,2.185,3.961,3.961,0,0,1-1.48,1.422,3.92,3.92,0,0,1-1.92.452,6.822,6.822,0,0,1-2.9-.73c-0.02-3,0-6.008-.01-9.011a8.056,8.056,0,0,0-.08-1.628,1.844,1.844,0,0,0-.57-1.116,1.69,1.69,0,0,0-.78-0.364,0.8,0.8,0,0,0-.77.295,2.239,2.239,0,0,0-.39,1.309q0,12.06,0,24.12l-6.51-2.058V643Zm-9.76,20.347c2.83-1,5.66-2.006,8.49-3,0.01,1.107,0,2.215,0,3.322a3.393,3.393,0,0,1-.01.451c-2.24.79-4.47,1.595-6.71,2.39a2.38,2.38,0,0,0-.86.485,0.4,0.4,0,0,0-.14.432,0.732,0.732,0,0,0,.44.365,4.662,4.662,0,0,0,1.55.251,8.707,8.707,0,0,0,1.74-.178,7.252,7.252,0,0,0,1.12-.343c0.96-.344,1.91-0.691,2.87-1.032,0.01,0.937,0,1.874,0,2.812a5.256,5.256,0,0,1-.01.561,22.042,22.042,0,0,1-3.56.373,21.354,21.354,0,0,1-7.1-1.067,6.439,6.439,0,0,1-2.12-.978,2.454,2.454,0,0,1-.81-1.01,1.368,1.368,0,0,1,.05-1.086,2.027,2.027,0,0,1,.73-0.8,12.518,12.518,0,0,1,2.26-1.18C1146.81,663.82,1147.51,663.6,1148.2,663.346Zm22.77-1.261c0.65-.074,1.29-0.092,1.94-0.115a21.452,21.452,0,0,1,6.29.906c0.39,0.121.78,0.277,1.18,0.4a6.082,6.082,0,0,1,1.98,1.077,1.741,1.741,0,0,1,.64,1.2,1.507,1.507,0,0,1-.41,1.044,5.714,5.714,0,0,1-1.75,1.226,19.8,19.8,0,0,1-2.12.829q-6.51,2.328-13.01,4.657v-3.631c0-.048-0.02-0.132.04-0.145q4.965-1.757,9.91-3.517a4.624,4.624,0,0,0,1.3-.589,0.473,0.473,0,0,0,.23-0.522,0.8,0.8,0,0,0-.44-0.358,4.529,4.529,0,0,0-1.56-.247,7.763,7.763,0,0,0-2.43.37c-2.35.82-4.7,1.651-7.05,2.47v-3.9A24.429,24.429,0,0,1,1170.97,662.085Zm9.65,8.955a1.485,1.485,0,1,1,.16,2.959,1.48,1.48,0,0,1-1.28-.74A1.488,1.488,0,0,1,1180.62,671.04Zm-0.11.274a1.24,1.24,0,0,0-.93,1.469,1.239,1.239,0,0,0,1.94.731A1.235,1.235,0,0,0,1180.51,671.314Zm-0.36.348h0.81a0.582,0.582,0,0,1,.42.153,0.519,0.519,0,0,1,.09.451,0.548,0.548,0,0,1-.17.23,0.343,0.343,0,0,1,.14.176,3.643,3.643,0,0,0,.05.467,0.349,0.349,0,0,1,.06.172c-0.11,0-.22,0-0.33,0a3.426,3.426,0,0,1-.07-0.554,0.153,0.153,0,0,0-.16-0.116c-0.19-.008-0.37,0-0.55,0,0,0.224.01,0.449,0,.673-0.1,0-.19,0-0.29,0v-1.65Zm0.29,0.262v0.456c0.16,0,.33,0,0.49,0a0.265,0.265,0,0,0,.22-0.083,0.278,0.278,0,0,0,.01-0.291,0.233,0.233,0,0,0-.2-0.081C1180.79,671.92,1180.61,671.923,1180.44,671.924Z" transform="translate(-1143.03 -643)"/></g><g id="pc" viewBox="0 0 23 20"><path d="M734.724,759H727v20l4.991-.006V772.2H734.7l3.207-2.747v-7.635Zm-1.844,9.349h-0.889v-5.537h0.889v5.537ZM741.719,759H747.1l2.9,2.818v4.922h-5.024v-3.928h-1.043v12.354h1.043v-4.735H750v5.745L746.754,779h-4.538l-3.407-2.824V761.818Z" transform="translate(-727 -759)"/></g><g id="diagonal-stripe-pattern" viewBox="0 0 1920 2166"><path id="gold_strip_lines" d="M384,2681.46L2649.46,416l6.53,6.533L390.531,2687.99Zm-9.074-9.07L2640.39,406.923l5.8,5.808L380.731,2678.19Zm-9.437-9.44L2630.95,397.486l5.81,5.808L371.294,2668.76Zm-9.074-9.07L2621.88,388.413l5.08,5.081L361.494,2658.96Zm-9.437-9.44L2612.44,378.976l5.08,5.081L352.057,2649.52Zm-9.436-9.44L2603,369.539l4.72,4.718L342.257,2639.72Zm-9.074-9.07L2593.93,360.465l4.35,4.355L332.82,2630.28Zm-10.889-10.89L2583.04,349.576l3.99,3.993L321.568,2619.03Zm-10.526-10.53L2572.51,339.05l3.63,3.63L310.68,2608.14Zm-10.525-10.52L2561.99,328.524l3.26,3.267L299.791,2597.25ZM286,2583.46L2551.46,318l2.9,2.9L288.9,2586.37Zm-10.889-10.89L2540.57,307.11l2.18,2.178L277.288,2574.75Zm-10.163-10.16L2530.41,296.947l1.81,1.815L266.762,2564.22Zm-10.888-10.89L2519.52,286.058l1.45,1.452L255.51,2552.97ZM243.533,2541L2509,275.533l1.08,1.088L244.622,2542.08Zm-10.526-10.53L2498.47,265.007l0.73,0.726L233.733,2531.2Z" transform="translate(0 -265)"/><path id="BG_Thick_Angular_Line" d="M-647.777,2691.49L1768.68,275.265l81.43-.164L-566.351,2691.32Zm540.636,0L2309.32,275.265l81.42-.164L-25.716,2691.32Zm-413.439-4.02L1896.02,273.245l378.33-.761L-142.417,2687.7Z" transform="translate(0 -265)"/></g><g id="ea-fifa" viewBox="0 0 159 25"><path d="M546.019,1289.39h-3.127v-3.12h-2.356v3.12h-3.127v2.36h3.127v3.13h2.356v-3.13h3.127v-2.36ZM559,1278v25h7.8v-9.03h5.417l2.106-5.46H566.8v-5.07h9.157l2-5.44H559m21.334,0-0.014,25h7.706v-25h-7.692m37.933,16.83,2.968-10.41,3.075,10.41h-6.043Zm7.094-16.83h-8l-8.872,25h7.448l0.959-3.36h8.682l1,3.36h7.676l-8.9-25m-32.014,0v25h7.792v-9.03h5.411l2.121-5.46h-7.532v-5.07h9.16l2.012-5.44H593.347m39.275,2.66h0.535a1.035,1.035,0,0,0,.252-0.02,0.493,0.493,0,0,0,.213-0.06,0.322,0.322,0,0,0,.146-0.15,0.493,0.493,0,0,0,.055-0.26,0.45,0.45,0,0,0-.059-0.24,0.468,0.468,0,0,0-.152-0.13,0.721,0.721,0,0,0-.216-0.07,1.763,1.763,0,0,0-.231-0.01h-0.543v0.94Zm-0.616-1.41h1.219a1.5,1.5,0,0,1,.9.22,0.872,0.872,0,0,1,.306.75,0.848,0.848,0,0,1-.221.64,1.084,1.084,0,0,1-.632.25l0.876,1.45h-0.624l-0.844-1.43h-0.363v1.43h-0.616v-3.31Zm1.116,4.02a2.112,2.112,0,0,0,1.54-.67,2.54,2.54,0,0,0,.471-0.74,2.712,2.712,0,0,0,.167-0.95,2.616,2.616,0,0,0-.167-0.94,2.3,2.3,0,0,0-.471-0.74,2.035,2.035,0,0,0-.69-0.5,2.213,2.213,0,0,0-1.7,0,2.05,2.05,0,0,0-.694.5,2.292,2.292,0,0,0-.467.74,2.533,2.533,0,0,0-.169.94,2.624,2.624,0,0,0,.169.95,2.53,2.53,0,0,0,.467.74A2.13,2.13,0,0,0,633.122,1283.27Zm0,0.57a2.887,2.887,0,0,1-2.04-.87,2.912,2.912,0,0,1-.841-2.06,2.783,2.783,0,0,1,.227-1.13,3.054,3.054,0,0,1,.614-0.93,3.012,3.012,0,0,1,.913-0.62,2.685,2.685,0,0,1,1.127-.23,2.639,2.639,0,0,1,1.119.23,2.887,2.887,0,0,1,.914.62,3.084,3.084,0,0,1,.618.93,2.834,2.834,0,0,1,.227,1.13,2.893,2.893,0,0,1-.845,2.06,2.758,2.758,0,0,1-.914.63,2.807,2.807,0,0,1-1.119.24M508.42,1278H487.967l-3.1,5h20.449Zm-8.379,20H485.97l3.1-5h9.51l3.106-5H481.755l-3.106,5h4.563L477,1303h25.8l9.668-15.57,3.457,5.57h-2.86l-3.108,5h9.074l3.105,5H528l-15.532-25Zm16.345-19.11v0.25h0.493v1.26h0.3v-1.26h0.494v-0.25h-1.286Zm2.733,0-0.381,1.08-0.378-1.08h-0.432v1.51h0.279v-1.22l0.415,1.22h0.241l0.412-1.22v1.22h0.279v-1.51h-0.435Z" transform="translate(-477 -1278)"/></g><g id="bold-quote" viewBox="0 0 243 211"><polygon points="38,90.5 38,168 111.5,168 111.5,35.5 "/><polygon points="134,90.5 134,168 207.5,168 207.5,35.5 "/></g><g id="valid" viewBox="0 0 40 40"><circle cx="20" cy="20" r="20"/><path d="M475.4,1389.61l-9.679,10.36-0.194-.13-0.124.17-6.011-5.19,0.817-1.1,5.218,4.5,8.8-9.42Z" fill="#fff" transform="translate(-447 -1374)"/></g><g id="warning" viewBox="0 0 40 40"><path d="M19.893,0.05H19.885A19.9,19.9,0,0,0,.027,20c0,0.032,0,.063,0,0.095A19.961,19.961,0,1,0,19.893.05Zm0.165,36.058a16.11,16.11,0,0,1-16.2-16.022c0-.027,0-0.055,0-0.082A16.069,16.069,0,0,1,19.893,3.9h0A16.105,16.105,0,1,1,20.058,36.108Zm2.076-25.867H17.94l0.739,13.6H21.4ZM21.993,30.789V26.748H18.082v4.042h3.912Z"/></g><g id="microsoft-store" viewBox="0 0 20 20"><path d="M0,17.1c0-3.8,0-7.6,0-11.4c0.2,0,2.7-0.6,3-0.6c0.1,0,0.1-0.1,0.1-0.1c0-0.2,0-0.4,0-0.7c0-0.5,0.1-1.1,0.3-1.6 c0.3-0.8,0.8-1.5,1.5-2.1C5.4,0.4,5.9,0.1,6.4,0C7,0,7.5,0,8,0.2c0.6,0.2,1,0.5,1.5,0.9c0.5,0.5,0.8,1,1,1.6 c0.1,0.3,0.1,0.5,0.1,0.8c0,0.1,0,0.1,0.1,0.1c0.3-0.1,0.7-0.1,1-0.2c0.1,0,0.1,0,0.1-0.1c-0.3-0.7-0.7-1.3-1.4-1.7 c-0.1-0.1-0.2-0.2-0.3-0.3C9.9,1.1,9.5,0.6,9.4,0.6c0,0,0,0,0,0c0,0,0.1,0,0.1,0c0.2,0.1,0.5,0.1,0.7,0.2c0.7,0.3,1.3,0.8,1.7,1.4 c0.2,0.3,0.3,0.5,0.4,0.8c0,0.1,0.1,0.1,0.2,0.1c0.1,0,0.3-0.1,0.4-0.1C13.3,3,13.7,3,14.2,2.9c0.1,0,0.2,0,0.2,0 c0.4,0.3,0.9,0.6,1.3,0.9c0.1,0,0.1,0.1,0.2,0.1C16.4,4,16.8,4,17.3,4.1c0.1,0,0.3,0,0.4,0c0,4.9,0,9.7,0,14.6 c-0.3,0.1-2.5,1-3.2,1.2c-0.1,0-0.2,0.1-0.3,0C14,19.9,0.3,17.2,0,17.1z M8.1,1.1C8.1,1.1,8.1,1.1,8.1,1.1C8.1,1.1,8.1,1.1,8.1,1.1 C7.7,1.2,7.3,1.4,7,1.7C6.1,2.4,5.6,3.3,5.5,4.4c0,0.2,0,0.2,0.2,0.1c0,0,0,0,0,0C6,4.5,9.8,3.7,10,3.7c0.1,0,0.1,0,0.1-0.1 c0-0.1,0-0.3-0.1-0.4C9.9,2.5,9.7,2,9.3,1.6c-0.5-0.5-1.1-0.9-1.8-1c-0.7-0.1-1.3,0-1.9,0.3C5.1,1.2,4.6,1.6,4.3,2.1 c-0.4,0.6-0.6,1.3-0.7,2c0,0.2,0,0.5,0,0.7c0,0.2,0,0.2,0.2,0.2c0.3-0.1,0.7-0.1,1-0.2C4.9,4.7,5,4.7,5,4.6c0-0.2,0-0.5,0.1-0.7 c0.1-0.4,0.2-0.8,0.5-1.2c0.4-0.8,1-1.4,1.7-1.8c0.1,0,0.2-0.1,0.2,0C7.6,0.9,8,1,8.1,1.1z M10.5,11.5c0.1,0,0.1,0,0.1-0.1 c0-1.2,0-2.3,0-3.5c0-0.1,0-0.1-0.1-0.1c-0.1,0-3.5,0.5-3.9,0.6c-0.1,0-0.1,0-0.1,0.1c0,0.9,0,1.9,0,2.8c0,0.1,0,0.1,0.1,0.1 C7.2,11.5,9.8,11.5,10.5,11.5z M6.6,11.7c-0.1,0-0.1,0-0.1,0.1c0,0.9,0,1.9,0,2.8c0,0,0,0.1,0,0.1c0,0,0,0.1,0.1,0.1 c0.2,0,3.3,0.5,3.9,0.6c0.1,0,0.1,0,0.1-0.1c0-1.1,0-2.3,0-3.4c0-0.1,0-0.1-0.1-0.1C9.8,11.7,7.2,11.7,6.6,11.7z M6.2,11.5 c0.1,0,0.1,0,0.1-0.1c0-0.9,0-1.9,0-2.8c0-0.1,0-0.1-0.1-0.1c-0.3,0-2.3,0.3-3,0.4C3.1,8.9,3.1,9,3.1,9c0,0.8,0,1.6,0,2.4 c0,0.1,0,0.1,0.1,0.1C3.7,11.5,5.7,11.5,6.2,11.5z M3.3,11.7c-0.1,0-0.1,0-0.1,0.1c0,0.6,0,2.2,0,2.4c0,0,0,0.1,0.1,0.1 c0.3,0,2.6,0.4,3,0.4c0.1,0,0.1,0,0.1-0.1c0-0.9,0-1.9,0-2.8c0-0.1,0-0.1-0.1-0.1C5.7,11.7,3.7,11.7,3.3,11.7z"/></g><g id="play-store" viewBox="0 0 20 20"><path fill-rule="evenodd" clip-rule="evenodd" d="M13.5,6.7L1.7,0.1c0,0-0.3-0.2-0.5-0.1l9.5,9.4L13.5,6.7z M0.5,0.2 C0.1,0.4,0,1,0,1S0,18.7,0,19c0,0.3,0.4,0.8,0.4,0.8l9.9-9.8L0.5,0.2z M1.3,20c0,0,0.4-0.2,0.9-0.5c0.6-0.3,11.4-6.3,11.4-6.3 l-2.8-2.7L1.3,20z M17.5,8.9l-3.2-1.8L11.4,10l2.8,2.9c0,0,3.2-1.7,3.4-1.9c0.2-0.1,0.9-0.5,0.9-1C18.5,9.5,17.5,8.9,17.5,8.9z"/></g><g id="apple" viewBox="0 0 20 20"><path d="M16.5,15.6c-0.3,0.7-0.7,1.3-1.1,1.9c-0.6,0.8-1,1.4-1.4,1.7c-0.6,0.5-1.1,0.8-1.8,0.8c-0.5,0-1-0.1-1.6-0.4 c-0.6-0.3-1.2-0.4-1.8-0.4c-0.6,0-1.2,0.1-1.8,0.4C6.4,19.8,5.8,20,5.4,20c-0.6,0-1.2-0.2-1.8-0.8c-0.4-0.3-0.9-0.9-1.4-1.7 c-0.6-0.9-1.1-1.9-1.5-3C0.2,13.2,0,12,0,10.8c0-1.3,0.3-2.5,0.9-3.5c0.5-0.8,1.1-1.4,1.8-1.8C3.5,5,4.3,4.8,5.2,4.8 c0.5,0,1.1,0.1,1.9,0.4c0.8,0.3,1.3,0.4,1.5,0.4c0.2,0,0.7-0.2,1.7-0.5c0.9-0.3,1.7-0.5,2.3-0.4c1.7,0.1,2.9,0.8,3.8,2 c-1.5,0.9-2.2,2.2-2.2,3.8c0,1.3,0.5,2.3,1.4,3.2c0.4,0.4,0.9,0.7,1.4,0.9C16.7,15,16.6,15.3,16.5,15.6L16.5,15.6z M12.6,0.4 c0,1-0.4,1.9-1.1,2.8c-0.9,1-1.9,1.6-3.1,1.5c0-0.1,0-0.2,0-0.4c0-1,0.4-2,1.2-2.8C10,1.1,10.4,0.7,11,0.5C11.6,0.2,12.1,0,12.6,0 C12.6,0.1,12.6,0.3,12.6,0.4L12.6,0.4z"/></g><g id="chevron-left" viewBox="0 0 24 24"><path d="M15.41 7.41L14 6l-6 6 6 6 1.41-1.41L10.83 12z"/></g><g id="chevron-right" viewBox="0 0 24 24"><path d="M10 6L8.59 7.41 13.17 12l-4.58 4.59L10 18l6-6z"/></g></defs></svg>