<svg xmlns="http://www.w3.org/2000/svg"><g id="promotions" viewBox="0 0 15 27"><defs><linearGradient id="promotions_icon_pro-clubs-a" x1="52.119%" x2="52.119%" y1="-25.317%" y2="118.091%"><stop offset="0%" stop-color="#B9E75E"/><stop offset="100%" stop-color="#17A563"/></linearGradient></defs><g fill="none" fill-rule="evenodd" transform="translate(-1)"><path fill="url(#promotions_icon_pro-clubs-a) #17A563" fill-rule="nonzero" d="M9.53856156,1.34402085 L15.3656626,8.88497515 C15.8088849,9.45855687 15.7032076,10.2828393 15.1296259,10.7260616 C14.8997972,10.9036565 14.6175511,11 14.3271011,11 L2.67289894,11 C1.94802521,11 1.36039894,10.4123737 1.36039894,9.6875 C1.36039894,9.39705 1.45674246,9.11480388 1.63433738,8.88497515 L7.46143844,1.34402085 C7.90466067,0.770439134 8.72894313,0.664761895 9.30252485,1.10798413 C9.39092901,1.17629644 9.47024926,1.25561669 9.53856156,1.34402085 Z"/><path fill="#CDCDCD" d="M9.53856156,17.3440208 L15.3656626,24.8849752 C15.8088849,25.4585569 15.7032076,26.2828393 15.1296259,26.7260616 C14.8997972,26.9036565 14.6175511,27 14.3271011,27 L2.67289894,27 C1.94802521,27 1.36039894,26.4123737 1.36039894,25.6875 C1.36039894,25.39705 1.45674246,25.1148039 1.63433738,24.8849752 L7.46143844,17.3440208 C7.90466067,16.7704391 8.72894313,16.6647619 9.30252485,17.1079841 C9.39092901,17.1762964 9.47024926,17.2556167 9.53856156,17.3440208 Z" transform="rotate(-180 8.5 21.5)"/></g></g><g id="relegations" viewBox="0 0 15 27"><defs><linearGradient id="relegations_icon_pro-clubs-a" x1="50%" x2="50%" y1="0%" y2="171.057%"><stop offset="0%" stop-color="#F90048"/><stop offset="100%" stop-color="#C1000C"/></linearGradient></defs><g fill="none" fill-rule="evenodd" transform="translate(-1)"><path fill="#CDCDCD" d="M9.53856156,1.34402085 L15.3656626,8.88497515 C15.8088849,9.45855687 15.7032076,10.2828393 15.1296259,10.7260616 C14.8997972,10.9036565 14.6175511,11 14.3271011,11 L2.67289894,11 C1.94802521,11 1.36039894,10.4123737 1.36039894,9.6875 C1.36039894,9.39705 1.45674246,9.11480388 1.63433738,8.88497515 L7.46143844,1.34402085 C7.90466067,0.770439134 8.72894313,0.664761895 9.30252485,1.10798413 C9.39092901,1.17629644 9.47024926,1.25561669 9.53856156,1.34402085 Z"/><path fill="url(#relegations_icon_pro-clubs-a) #C1000C" fill-rule="nonzero" d="M9.53856156,17.3440208 L15.3656626,24.8849752 C15.8088849,25.4585569 15.7032076,26.2828393 15.1296259,26.7260616 C14.8997972,26.9036565 14.6175511,27 14.3271011,27 L2.67289894,27 C1.94802521,27 1.36039894,26.4123737 1.36039894,25.6875 C1.36039894,25.39705 1.45674246,25.1148039 1.63433738,24.8849752 L7.46143844,17.3440208 C7.90466067,16.7704391 8.72894313,16.6647619 9.30252485,17.1079841 C9.39092901,17.1762964 9.47024926,17.2556167 9.53856156,17.3440208 Z" transform="rotate(-180 8.5 21.5)"/></g></g><g id="report" viewBox="0 0 28 28"><path d="M0 5C0 2.23858 2.23858 0 5 0H23C25.7614 0 28 2.23858 28 5V23C28 25.7614 25.7614 28 23 28H5C2.23858 28 0 25.7614 0 23V5Z"/><path d="M14.5 6.18103V16.3996" stroke="white" stroke-width="2.6" stroke-linecap="round"/><path fill-rule="evenodd" clip-rule="evenodd" d="M14.5 22C15.3284 22 16 21.3284 16 20.5C16 19.6716 15.3284 19 14.5 19C13.6716 19 13 19.6716 13 20.5C13 21.3284 13.6716 22 14.5 22Z" fill="white"/></g></svg>